Atma-SemiBold.ufo
<glyph name="hyphen" format="1">
  <advance width="343"/>
  <unicode hex="002D"/>
  <outline>
    <contour>
      <point x="26" y="302"/>
      <point x="25" y="268"/>
      <point x="27" y="228" type="curve"/>
      <point x="74" y="206"/>
      <point x="213" y="204"/>
      <point x="303" y="222" type="curve"/>
      <point x="315" y="261"/>
      <point x="316" y="306"/>
      <point x="316" y="339" type="curve"/>
      <point x="280" y="334"/>
      <point x="242" y="333"/>
      <point x="175" y="333" type="curve" smooth="yes"/>
      <point x="141" y="333"/>
      <point x="78" y="337"/>
      <point x="40" y="345" type="curve"/>
    </contour>
  </outline>
</glyph>
<glyph name="zero" format="1">
  <advance width="586"/>
  <unicode hex="0030"/>
  <outline>
    <contour>
      <point x="331" y="673" type="curve"/>
      <point x="151" y="673"/>
      <point x="33" y="524"/>
      <point x="33" y="300" type="curve"/>
      <point x="33" y="131"/>
      <point x="103" y="-20"/>
      <point x="262" y="-20" type="curve" smooth="yes"/>
      <point x="475" y="-20"/>
      <point x="553" y="201"/>
      <point x="553" y="396" type="curve"/>
      <point x="553" y="568"/>
      <point x="472" y="673"/>
    </contour>
    <contour>
      <point x="303" y="573" type="curve" smooth="yes"/>
      <point x="366" y="573"/>
      <point x="398" y="503"/>
      <point x="398" y="347" type="curve" smooth="yes"/>
      <point x="398" y="212"/>
      <point x="365" y="79"/>
      <point x="292" y="79" type="curve" smooth="yes"/>
      <point x="221" y="79"/>
      <point x="186" y="199"/>
      <point x="186" y="321" type="curve" smooth="yes"/>
      <point x="186" y="476"/>
      <point x="234" y="573"/>
    </contour>
  </outline>
</glyph>
<glyph name="two" format="1">
  <advance width="486"/>
  <unicode hex="0032"/>
  <outline>
    <contour>
      <point x="457" y="460" type="curve" smooth="yes"/>
      <point x="457" y="566"/>
      <point x="374" y="641"/>
      <point x="251" y="641" type="curve" smooth="yes"/>
      <point x="134" y="641"/>
      <point x="50" y="580"/>
      <point x="16" y="437" type="curve"/>
      <point x="55" y="418"/>
      <point x="100" y="410"/>
      <point x="153" y="410" type="curve"/>
      <point x="172" y="513"/>
      <point x="200" y="554"/>
      <point x="243" y="554" type="curve" smooth="yes"/>
      <point x="283" y="554"/>
      <point x="304" y="521"/>
      <point x="304" y="470" type="curve" smooth="yes"/>
      <point x="304" y="369"/>
      <point x="214" y="248"/>
      <point x="6" y="103" type="curve"/>
      <point x="-2" y="76"/>
      <point x="-4" y="48"/>
      <point x="-4" y="17" type="curve"/>
      <point x="99" y="-14"/>
      <point x="269" y="-36"/>
      <point x="418" y="-41" type="curve"/>
      <point x="433" y="-5"/>
      <point x="441" y="38"/>
      <point x="442" y="85" type="curve"/>
      <point x="339" y="80"/>
      <point x="257" y="85"/>
      <point x="136" y="92" type="curve"/>
      <point x="126" y="63" type="line"/>
      <point x="370" y="223"/>
      <point x="457" y="333"/>
    </contour>
  </outline>
</glyph>
<glyph name="four" format="1">
  <advance width="591"/>
  <unicode hex="0034"/>
  <outline>
    <contour>
      <point x="554" y="109" type="curve"/>
      <point x="571" y="137"/>
      <point x="581" y="183"/>
      <point x="581" y="219" type="curve"/>
      <point x="454" y="226"/>
      <point x="311" y="241"/>
      <point x="156" y="274" type="curve"/>
      <point x="163" y="238" type="line"/>
      <point x="268" y="403"/>
      <point x="337" y="556"/>
      <point x="398" y="723" type="curve"/>
      <point x="365" y="736"/>
      <point x="310" y="756"/>
      <point x="253" y="757" type="curve"/>
      <point x="187" y="541"/>
      <point x="126" y="411"/>
      <point x="8" y="230" type="curve"/>
      <point x="14" y="203"/>
      <point x="19" y="182"/>
      <point x="28" y="161" type="curve"/>
      <point x="159" y="142"/>
      <point x="434" y="114"/>
    </contour>
    <contour>
      <point x="423" y="-33" type="curve"/>
      <point x="433" y="143"/>
      <point x="461" y="325"/>
      <point x="489" y="410" type="curve"/>
      <point x="468" y="416"/>
      <point x="442" y="419"/>
      <point x="420" y="419" type="curve" smooth="yes"/>
      <point x="375" y="419"/>
      <point x="348" y="410"/>
      <point x="327" y="400" type="curve"/>
      <point x="309" y="316"/>
      <point x="297" y="173"/>
      <point x="297" y="56" type="curve" smooth="yes"/>
      <point x="297" y="23"/>
      <point x="298" y="-9"/>
      <point x="300" y="-38" type="curve"/>
      <point x="313" y="-42"/>
      <point x="324" y="-44"/>
      <point x="345" y="-45" type="curve" smooth="yes"/>
      <point x="379" y="-45"/>
      <point x="405" y="-40"/>
    </contour>
  </outline>
</glyph>
<glyph name="five" format="1">
  <advance width="522"/>
  <unicode hex="0035"/>
  <outline>
    <contour>
      <point x="235" y="-37" type="curve" smooth="yes"/>
      <point x="375" y="-37"/>
      <point x="465" y="71"/>
      <point x="465" y="207" type="curve" smooth="yes"/>
      <point x="465" y="333"/>
      <point x="386" y="415"/>
      <point x="268" y="415" type="curve" smooth="yes"/>
      <point x="248" y="415"/>
      <point x="219" y="412"/>
      <point x="199" y="406" type="curve"/>
      <point x="198" y="446"/>
      <point x="201" y="497"/>
      <point x="210" y="569" type="curve"/>
      <point x="179" y="543" type="line"/>
      <point x="293" y="522"/>
      <point x="370" y="514"/>
      <point x="468" y="509" type="curve"/>
      <point x="483" y="545"/>
      <point x="491" y="590"/>
      <point x="492" y="637" type="curve"/>
      <point x="353" y="638"/>
      <point x="246" y="646"/>
      <point x="87" y="680" type="curve"/>
      <point x="73" y="595"/>
      <point x="63" y="505"/>
      <point x="63" y="420" type="curve" smooth="yes"/>
      <point x="63" y="395"/>
      <point x="64" y="373"/>
      <point x="66" y="349" type="curve"/>
      <point x="76" y="333"/>
      <point x="103" y="308"/>
      <point x="119" y="298" type="curve"/>
      <point x="143" y="307"/>
      <point x="166" y="312"/>
      <point x="188" y="312" type="curve" smooth="yes"/>
      <point x="273" y="312"/>
      <point x="311" y="243"/>
      <point x="311" y="168" type="curve" smooth="yes"/>
      <point x="311" y="87"/>
      <point x="282" y="49"/>
      <point x="233" y="49" type="curve" smooth="yes"/>
      <point x="187" y="49"/>
      <point x="150" y="86"/>
      <point x="150" y="184" type="curve"/>
      <point x="110" y="193"/>
      <point x="59" y="201"/>
      <point x="5" y="201" type="curve"/>
      <point x="14" y="40"/>
      <point x="107" y="-37"/>
    </contour>
  </outline>
</glyph>
<glyph name="seven" format="1">
  <advance width="472"/>
  <unicode hex="0037"/>
  <outline>
    <contour>
      <point x="158" y="-25" type="curve"/>
      <point x="238" y="201"/>
      <point x="326" y="366"/>
      <point x="450" y="522" type="curve"/>
      <point x="460" y="557"/>
      <point x="466" y="587"/>
      <point x="462" y="628" type="curve"/>
      <point x="308" y="631"/>
      <point x="174" y="651"/>
      <point x="19" y="679" type="curve"/>
      <point x="0" y="638"/>
      <point x="-6" y="593"/>
      <point x="-4" y="547" type="curve"/>
      <point x="111" y="535"/>
      <point x="208" y="532"/>
      <point x="338" y="536" type="curve"/>
      <point x="336" y="564" type="line"/>
      <point x="211" y="416"/>
      <point x="104" y="247"/>
      <point x="11" y="-3" type="curve"/>
      <point x="58" y="-23"/>
      <point x="104" y="-30"/>
    </contour>
  </outline>
</glyph>
<glyph name="less" format="1">
  <advance width="444"/>
  <unicode hex="003C"/>
  <outline>
    <contour>
      <point x="82" y="290" type="line"/>
      <point x="179" y="363"/>
      <point x="288" y="423"/>
      <point x="415" y="477" type="curve"/>
      <point x="408" y="511"/>
      <point x="401" y="532"/>
      <point x="387" y="562" type="curve"/>
      <point x="270" y="517"/>
      <point x="119" y="436"/>
      <point x="30" y="368" type="curve"/>
      <point x="29" y="314" type="line"/>
      <point x="115" y="247"/>
      <point x="268" y="165"/>
      <point x="386" y="121" type="curve"/>
      <point x="400" y="149"/>
      <point x="408" y="172"/>
      <point x="414" y="205" type="curve"/>
      <point x="287" y="260"/>
      <point x="174" y="320"/>
      <point x="80" y="393" type="curve"/>
    </contour>
  </outline>
</glyph>
<glyph name="equal" format="1">
  <advance width="445"/>
  <unicode hex="003D"/>
  <outline>
    <contour>
      <point x="42" y="451" type="curve"/>
      <point x="37" y="418"/>
      <point x="35" y="392"/>
      <point x="35" y="358" type="curve"/>
      <point x="143" y="342"/>
      <point x="292" y="340"/>
      <point x="409" y="358" type="curve"/>
      <point x="417" y="387"/>
      <point x="421" y="418"/>
      <point x="421" y="450" type="curve"/>
      <point x="282" y="436"/>
      <point x="161" y="436"/>
    </contour>
    <contour>
      <point x="30" y="299" type="curve"/>
      <point x="25" y="266"/>
      <point x="23" y="240"/>
      <point x="23" y="206" type="curve"/>
      <point x="131" y="190"/>
      <point x="279" y="189"/>
      <point x="396" y="206" type="curve"/>
      <point x="404" y="235"/>
      <point x="409" y="266"/>
      <point x="409" y="298" type="curve"/>
      <point x="269" y="284"/>
      <point x="149" y="284"/>
    </contour>
  </outline>
</glyph>
<glyph name="D" format="1">
  <advance width="609"/>
  <unicode hex="0044"/>
  <outline>
    <contour>
      <point x="206" y="-10" type="curve"/>
      <point x="203" y="60"/>
      <point x="200" y="126"/>
      <point x="200" y="206" type="curve" smooth="yes"/>
      <point x="200" y="360"/>
      <point x="204" y="490"/>
      <point x="218" y="658" type="curve"/>
      <point x="180" y="669"/>
      <point x="106" y="673"/>
      <point x="56" y="665" type="curve"/>
      <point x="54" y="614"/>
      <point x="53" y="558"/>
      <point x="53" y="508" type="curve" smooth="yes"/>
      <point x="53" y="346"/>
      <point x="62" y="183"/>
      <point x="78" y="0" type="curve"/>
      <point x="111" y="-5"/>
      <point x="172" y="-10"/>
    </contour>
    <contour>
      <point x="581" y="442" type="curve" smooth="yes"/>
      <point x="581" y="611"/>
      <point x="484" y="717"/>
      <point x="276" y="717" type="curve" smooth="yes"/>
      <point x="195" y="717"/>
      <point x="128" y="700"/>
      <point x="56" y="665" type="curve"/>
      <point x="60" y="635"/>
      <point x="76" y="589"/>
      <point x="96" y="558" type="curve"/>
      <point x="150" y="593"/>
      <point x="204" y="623"/>
      <point x="260" y="623" type="curve" smooth="yes"/>
      <point x="368" y="623"/>
      <point x="426" y="552"/>
      <point x="426" y="442" type="curve" smooth="yes"/>
      <point x="426" y="272"/>
      <point x="334" y="132"/>
      <point x="135" y="76" type="curve"/>
      <point x="206" y="-10" type="line"/>
      <point x="428" y="57"/>
      <point x="581" y="254"/>
    </contour>
  </outline>
</glyph>
<glyph name="I" format="1">
  <advance width="292"/>
  <unicode hex="0049"/>
  <outline>
    <contour>
      <point x="209" y="-15" type="curve"/>
      <point x="220" y="160"/>
      <point x="225" y="346"/>
      <point x="225" y="510" type="curve" smooth="yes"/>
      <point x="225" y="572"/>
      <point x="224" y="626"/>
      <point x="221" y="677" type="curve"/>
      <point x="196" y="683"/>
      <point x="177" y="685"/>
      <point x="151" y="685" type="curve" smooth="yes"/>
      <point x="110" y="685"/>
      <point x="78" y="674"/>
      <point x="56" y="660" type="curve"/>
      <point x="79" y="442"/>
      <point x="85" y="194"/>
      <point x="84" y="-30" type="curve"/>
      <point x="128" y="-30"/>
      <point x="183" y="-23"/>
    </contour>
  </outline>
</glyph>
<glyph name="K" format="1">
  <advance width="615"/>
  <unicode hex="004B"/>
  <outline>
    <contour>
      <point x="232" y="-58" type="curve"/>
      <point x="218" y="51"/>
      <point x="210" y="156"/>
      <point x="210" y="293" type="curve" smooth="yes"/>
      <point x="210" y="425"/>
      <point x="219" y="560"/>
      <point x="243" y="694" type="curve"/>
      <point x="219" y="701"/>
      <point x="195" y="704"/>
      <point x="169" y="704" type="curve" smooth="yes"/>
      <point x="127" y="704"/>
      <point x="91" y="692"/>
      <point x="68" y="680" type="curve"/>
      <point x="62" y="595"/>
      <point x="59" y="515"/>
      <point x="59" y="441" type="curve" smooth="yes"/>
      <point x="59" y="262"/>
      <point x="71" y="104"/>
      <point x="100" y="-73" type="curve"/>
      <point x="144" y="-73"/>
      <point x="205" y="-66"/>
    </contour>
    <contour>
      <point x="188" y="195" type="line"/>
      <point x="362" y="313"/>
      <point x="463" y="421"/>
      <point x="566" y="612" type="curve"/>
      <point x="535" y="649"/>
      <point x="497" y="682"/>
      <point x="446" y="699" type="curve"/>
      <point x="357" y="500"/>
      <point x="291" y="401"/>
      <point x="140" y="271" type="curve"/>
    </contour>
    <contour>
      <point x="494" y="-106" type="curve"/>
      <point x="554" y="-81"/>
      <point x="592" y="-48"/>
      <point x="622" y="-4" type="curve"/>
      <point x="504" y="180"/>
      <point x="425" y="261"/>
      <point x="288" y="372" type="curve"/>
      <point x="205" y="275" type="line"/>
      <point x="339" y="148"/>
      <point x="412" y="51"/>
    </contour>
  </outline>
</glyph>
<glyph name="M" format="1">
  <advance width="797"/>
  <unicode hex="004D"/>
  <outline>
    <contour>
      <point x="736" y="725" type="curve"/>
      <point x="697" y="744"/>
      <point x="654" y="755"/>
      <point x="614" y="761" type="curve"/>
      <point x="527" y="628"/>
      <point x="452" y="482"/>
      <point x="394" y="315" type="curve"/>
      <point x="442" y="321" type="line"/>
      <point x="388" y="491"/>
      <point x="295" y="644"/>
      <point x="209" y="762" type="curve"/>
      <point x="160" y="754"/>
      <point x="106" y="731"/>
      <point x="64" y="704" type="curve"/>
      <point x="195" y="545"/>
      <point x="286" y="380"/>
      <point x="359" y="191" type="curve"/>
      <point x="388" y="186"/>
      <point x="425" y="186"/>
      <point x="452" y="195" type="curve"/>
      <point x="524" y="398"/>
      <point x="614" y="559"/>
    </contour>
    <contour>
      <point x="198" y="476" type="curve" smooth="yes"/>
      <point x="198" y="537"/>
      <point x="199" y="603"/>
      <point x="214" y="696" type="curve"/>
      <point x="64" y="704" type="line"/>
      <point x="61" y="489"/>
      <point x="79" y="188"/>
      <point x="108" y="-4" type="curve"/>
      <point x="155" y="-4"/>
      <point x="218" y="2"/>
      <point x="247" y="11" type="curve"/>
      <point x="215" y="150"/>
      <point x="198" y="321"/>
    </contour>
    <contour>
      <point x="744" y="-26" type="curve"/>
      <point x="746" y="185"/>
      <point x="747" y="499"/>
      <point x="736" y="725" type="curve"/>
      <point x="611" y="708" type="line"/>
      <point x="613" y="458"/>
      <point x="606" y="175"/>
      <point x="589" y="-53" type="curve"/>
      <point x="659" y="-53"/>
      <point x="700" y="-42"/>
    </contour>
  </outline>
</glyph>
<glyph name="N" format="1">
  <advance width="677"/>
  <unicode hex="004E"/>
  <outline>
    <contour>
      <point x="223" y="-28" type="curve"/>
      <point x="220" y="54"/>
      <point x="216" y="145"/>
      <point x="216" y="235" type="curve" smooth="yes"/>
      <point x="215" y="399"/>
      <point x="214" y="563"/>
      <point x="222" y="679" type="curve"/>
      <point x="153" y="691"/>
      <point x="91" y="683"/>
      <point x="63" y="663" type="curve"/>
      <point x="63" y="448"/>
      <point x="80" y="196"/>
      <point x="100" y="-43" type="curve"/>
      <point x="144" y="-42"/>
      <point x="197" y="-35"/>
    </contour>
    <contour>
      <point x="593" y="29" type="curve"/>
      <point x="606" y="195"/>
      <point x="613" y="366"/>
      <point x="613" y="549" type="curve" smooth="yes"/>
      <point x="613" y="622"/>
      <point x="611" y="692"/>
      <point x="608" y="760" type="curve"/>
      <point x="550" y="759"/>
      <point x="499" y="749"/>
      <point x="453" y="734" type="curve"/>
      <point x="467" y="642"/>
      <point x="471" y="494"/>
      <point x="471" y="351" type="curve" smooth="yes"/>
      <point x="471" y="225"/>
      <point x="469" y="102"/>
      <point x="459" y="14" type="curve"/>
      <point x="509" y="16"/>
      <point x="552" y="22"/>
    </contour>
    <contour>
      <point x="540" y="78" type="line"/>
      <point x="440" y="377"/>
      <point x="340" y="552"/>
      <point x="226" y="709" type="curve"/>
      <point x="158" y="705"/>
      <point x="105" y="688"/>
      <point x="63" y="663" type="curve"/>
      <point x="248" y="471"/>
      <point x="342" y="293"/>
      <point x="459" y="14" type="curve"/>
    </contour>
  </outline>
</glyph>
<glyph name="X" format="1">
  <advance width="646"/>
  <unicode hex="0058"/>
  <outline>
    <contour>
      <point x="602" y="28" type="curve"/>
      <point x="577" y="1"/>
      <point x="533" y="-25"/>
      <point x="495" y="-44" type="curve"/>
      <point x="351" y="269"/>
      <point x="231" y="484"/>
      <point x="38" y="694" type="curve"/>
      <point x="77" y="728"/>
      <point x="130" y="764"/>
      <point x="181" y="782" type="curve"/>
      <point x="363" y="543"/>
      <point x="481" y="336"/>
    </contour>
    <contour>
      <point x="83" y="6" type="curve"/>
      <point x="56" y="23"/>
      <point x="21" y="57"/>
      <point x="4" y="82" type="curve"/>
      <point x="106" y="199"/>
      <point x="190" y="296"/>
      <point x="279" y="417" type="curve"/>
      <point x="294" y="417" type="line"/>
      <point x="373" y="525"/>
      <point x="444" y="629"/>
      <point x="515" y="759" type="curve"/>
      <point x="554" y="740"/>
      <point x="595" y="704"/>
      <point x="620" y="669" type="curve"/>
      <point x="541" y="545"/>
      <point x="454" y="433"/>
      <point x="364" y="323" type="curve"/>
      <point x="359" y="319" type="line"/>
      <point x="267" y="206"/>
      <point x="188" y="113"/>
    </contour>
  </outline>
</glyph>
<glyph name="Y" format="1">
  <advance width="543"/>
  <unicode hex="0059"/>
  <outline>
    <contour>
      <point x="304" y="292" type="line"/>
      <point x="227" y="428"/>
      <point x="183" y="554"/>
      <point x="154" y="733" type="curve"/>
      <point x="94" y="730"/>
      <point x="46" y="715"/>
      <point x="3" y="685" type="curve"/>
      <point x="47" y="493"/>
      <point x="113" y="325"/>
      <point x="231" y="178" type="curve"/>
    </contour>
    <contour>
      <point x="210" y="-94" type="curve"/>
      <point x="372" y="145"/>
      <point x="454" y="393"/>
      <point x="526" y="670" type="curve"/>
      <point x="482" y="698"/>
      <point x="434" y="714"/>
      <point x="375" y="723" type="curve"/>
      <point x="325" y="421"/>
      <point x="249" y="199"/>
      <point x="93" y="-42" type="curve"/>
      <point x="121" y="-64"/>
      <point x="172" y="-85"/>
    </contour>
  </outline>
</glyph>
<glyph name="bracketleft" format="1">
  <advance width="402"/>
  <unicode hex="005B"/>
  <outline>
    <contour>
      <point x="388" y="-127" type="curve"/>
      <point x="388" y="-96"/>
      <point x="382" y="-48"/>
      <point x="375" y="-26" type="curve"/>
      <point x="332" y="-34"/>
      <point x="267" y="-43"/>
      <point x="223" y="-43" type="curve"/>
      <point x="188" y="266"/>
      <point x="181" y="517"/>
      <point x="201" y="750" type="curve"/>
      <point x="62" y="754" type="line"/>
      <point x="64" y="476"/>
      <point x="90" y="110"/>
      <point x="129" y="-142" type="curve"/>
      <point x="220" y="-143"/>
      <point x="308" y="-137"/>
    </contour>
    <contour>
      <point x="343" y="793" type="curve"/>
      <point x="240" y="789"/>
      <point x="157" y="775"/>
      <point x="62" y="754" type="curve"/>
      <point x="98" y="677" type="line"/>
      <point x="174" y="689"/>
      <point x="258" y="693"/>
      <point x="337" y="694" type="curve"/>
      <point x="342" y="721"/>
      <point x="344" y="757"/>
    </contour>
  </outline>
</glyph>
<glyph name="bracketright" format="1">
  <advance width="392"/>
  <unicode hex="005D"/>
  <outline>
    <contour>
      <point x="14" y="787" type="curve"/>
      <point x="14" y="757"/>
      <point x="21" y="709"/>
      <point x="27" y="687" type="curve"/>
      <point x="73" y="695"/>
      <point x="130" y="701"/>
      <point x="177" y="701" type="curve"/>
      <point x="212" y="467"/>
      <point x="220" y="215"/>
      <point x="194" y="-77" type="curve"/>
      <point x="308" y="-86" type="line"/>
      <point x="325" y="205"/>
      <point x="330" y="595"/>
      <point x="295" y="804" type="curve"/>
      <point x="198" y="804"/>
      <point x="102" y="799"/>
    </contour>
    <contour>
      <point x="37" y="-120" type="curve"/>
      <point x="134" y="-115"/>
      <point x="216" y="-104"/>
      <point x="308" y="-86" type="curve"/>
      <point x="275" y="-4" type="line"/>
      <point x="204" y="-16"/>
      <point x="123" y="-21"/>
      <point x="43" y="-22" type="curve"/>
      <point x="39" y="-49"/>
      <point x="37" y="-84"/>
    </contour>
  </outline>
</glyph>
<glyph name="g" format="1">
  <advance width="525"/>
  <unicode hex="0067"/>
  <outline>
    <contour>
      <point x="317" y="431" type="curve"/>
      <point x="439" y="504" type="line"/>
      <point x="393" y="520"/>
      <point x="334" y="531"/>
      <point x="289" y="531" type="curve" smooth="yes"/>
      <point x="124" y="531"/>
      <point x="35" y="428"/>
      <point x="35" y="247" type="curve" smooth="yes"/>
      <point x="35" y="102"/>
      <point x="109" y="4"/>
      <point x="227" y="4" type="curve" smooth="yes"/>
      <point x="303" y="4"/>
      <point x="348" y="65"/>
      <point x="380" y="181" type="curve"/>
      <point x="342" y="214" type="line"/>
      <point x="330" y="147"/>
      <point x="305" y="99"/>
      <point x="269" y="99" type="curve" smooth="yes"/>
      <point x="226" y="99"/>
      <point x="183" y="152"/>
      <point x="183" y="273" type="curve" smooth="yes"/>
      <point x="183" y="385"/>
      <point x="211" y="439"/>
      <point x="268" y="439" type="curve" smooth="yes"/>
      <point x="285" y="439"/>
      <point x="303" y="436"/>
    </contour>
    <contour>
      <point x="385" y="504"/>
      <point x="322" y="498"/>
      <point x="285" y="481" type="curve"/>
      <point x="303" y="420"/>
      <point x="326" y="283"/>
      <point x="326" y="150" type="curve" smooth="yes"/>
      <point x="326" y="-57"/>
      <point x="294" y="-158"/>
      <point x="239" y="-158" type="curve" smooth="yes"/>
      <point x="201" y="-158"/>
      <point x="181" y="-120"/>
      <point x="169" y="-37" type="curve"/>
      <point x="125" y="-43"/>
      <point x="78" y="-61"/>
      <point x="44" y="-87" type="curve"/>
      <point x="48" y="-137"/>
      <point x="81" y="-247"/>
      <point x="227" y="-247" type="curve" smooth="yes"/>
      <point x="348" y="-247"/>
      <point x="475" y="-158"/>
      <point x="475" y="169" type="curve" smooth="yes"/>
      <point x="475" y="290"/>
      <point x="457" y="438"/>
      <point x="439" y="504" type="curve"/>
    </contour>
  </outline>
</glyph>
<glyph name="h" format="1">
  <advance width="544"/>
  <unicode hex="0068"/>
  <outline>
    <contour>
      <point x="493" y="336" type="curve" smooth="yes"/>
      <point x="493" y="484"/>
      <point x="439" y="536"/>
      <point x="347" y="536" type="curve" smooth="yes"/>
      <point x="257" y="536"/>
      <point x="196" y="459"/>
      <point x="160" y="366" type="curve"/>
      <point x="177" y="279" type="line"/>
      <point x="215" y="389"/>
      <point x="264" y="434"/>
      <point x="298" y="434" type="curve" smooth="yes"/>
      <point x="334" y="434"/>
      <point x="345" y="408"/>
      <point x="345" y="335" type="curve" smooth="yes"/>
      <point x="345" y="220"/>
      <point x="317" y="94"/>
      <point x="286" y="-3" type="curve"/>
      <point x="326" y="-19"/>
      <point x="371" y="-30"/>
      <point x="416" y="-32" type="curve"/>
      <point x="438" y="17"/>
      <point x="493" y="196"/>
    </contour>
    <contour>
      <point x="72" y="27" type="curve"/>
      <point x="116" y="27"/>
      <point x="179" y="33"/>
      <point x="205" y="42" type="curve"/>
      <point x="202" y="81"/>
      <point x="197" y="158"/>
      <point x="197" y="215" type="curve" smooth="yes"/>
      <point x="197" y="425"/>
      <point x="215" y="614"/>
      <point x="242" y="747" type="curve"/>
      <point x="220" y="752"/>
      <point x="205" y="755"/>
      <point x="181" y="755" type="curve" smooth="yes"/>
      <point x="138" y="755"/>
      <point x="92" y="748"/>
      <point x="67" y="734" type="curve"/>
      <point x="60" y="666"/>
      <point x="55" y="549"/>
      <point x="55" y="454" type="curve" smooth="yes"/>
      <point x="55" y="314"/>
      <point x="62" y="158"/>
    </contour>
  </outline>
</glyph>
<glyph name="n" format="1">
  <advance width="541"/>
  <unicode hex="006E"/>
  <outline>
    <contour>
      <point x="460" y="57"/>
      <point x="487" y="213"/>
      <point x="487" y="341" type="curve" smooth="yes"/>
      <point x="487" y="486"/>
      <point x="434" y="536"/>
      <point x="355" y="536" type="curve" smooth="yes"/>
      <point x="275" y="536"/>
      <point x="215" y="477"/>
      <point x="170" y="368" type="curve"/>
      <point x="189" y="284" type="line"/>
      <point x="214" y="372"/>
      <point x="256" y="420"/>
      <point x="293" y="420" type="curve" smooth="yes"/>
      <point x="327" y="420"/>
      <point x="339" y="393"/>
      <point x="339" y="338" type="curve" smooth="yes"/>
      <point x="339" y="245"/>
      <point x="321" y="121"/>
      <point x="304" y="27" type="curve"/>
      <point x="352" y="18"/>
      <point x="403" y="11"/>
      <point x="448" y="10" type="curve"/>
    </contour>
    <contour>
      <point x="44" y="354"/>
      <point x="60" y="88"/>
      <point x="74" y="-39" type="curve"/>
      <point x="116" y="-39"/>
      <point x="169" y="-32"/>
      <point x="198" y="-23" type="curve"/>
      <point x="195" y="22"/>
      <point x="193" y="86"/>
      <point x="193" y="127" type="curve" smooth="yes"/>
      <point x="193" y="257"/>
      <point x="205" y="448"/>
      <point x="216" y="536" type="curve"/>
      <point x="194" y="540"/>
      <point x="174" y="542"/>
      <point x="155" y="542" type="curve" smooth="yes"/>
      <point x="113" y="542"/>
      <point x="68" y="534"/>
      <point x="44" y="522" type="curve"/>
    </contour>
  </outline>
</glyph>
<glyph name="q" format="1">
  <advance width="554"/>
  <unicode hex="0071"/>
  <outline>
    <contour>
      <point x="349" y="424" type="curve"/>
      <point x="364" y="508" type="line"/>
      <point x="351" y="515"/>
      <point x="314" y="522"/>
      <point x="291" y="522" type="curve" smooth="yes"/>
      <point x="132" y="522"/>
      <point x="33" y="392"/>
      <point x="33" y="196" type="curve" smooth="yes"/>
      <point x="33" y="62"/>
      <point x="86" y="-50"/>
      <point x="205" y="-50" type="curve" smooth="yes"/>
      <point x="278" y="-50"/>
      <point x="334" y="23"/>
      <point x="369" y="161" type="curve"/>
      <point x="330" y="194" type="line"/>
      <point x="310" y="86"/>
      <point x="281" y="56"/>
      <point x="246" y="56" type="curve" smooth="yes"/>
      <point x="207" y="56"/>
      <point x="179" y="110"/>
      <point x="179" y="218" type="curve" smooth="yes"/>
      <point x="179" y="374"/>
      <point x="235" y="435"/>
      <point x="296" y="435" type="curve" smooth="yes"/>
      <point x="320" y="435"/>
      <point x="337" y="430"/>
    </contour>
    <contour>
      <point x="406" y="574"/>
      <point x="379" y="565"/>
      <point x="357" y="554" type="curve"/>
      <point x="333" y="454"/>
      <point x="312" y="230"/>
      <point x="312" y="87" type="curve" smooth="yes"/>
      <point x="312" y="13"/>
      <point x="315" y="-209"/>
      <point x="318" y="-236" type="curve"/>
      <point x="332" y="-240"/>
      <point x="343" y="-241"/>
      <point x="363" y="-241" type="curve" smooth="yes"/>
      <point x="397" y="-241"/>
      <point x="425" y="-235"/>
      <point x="443" y="-227" type="curve"/>
      <point x="439" y="74"/>
      <point x="483" y="445"/>
      <point x="523" y="564" type="curve"/>
      <point x="501" y="570"/>
      <point x="474" y="574"/>
      <point x="454" y="574" type="curve" smooth="yes"/>
    </contour>
  </outline>
</glyph>
<glyph name="w" format="1">
  <advance width="751"/>
  <unicode hex="0077"/>
  <outline>
    <contour>
      <point x="456" y="503" type="curve"/>
      <point x="490" y="398"/>
      <point x="518" y="273"/>
      <point x="541" y="117" type="curve"/>
      <point x="527" y="118" type="line"/>
      <point x="580" y="272"/>
      <point x="605" y="399"/>
      <point x="618" y="510" type="curve"/>
      <point x="672" y="506"/>
      <point x="707" y="495"/>
      <point x="744" y="474" type="curve"/>
      <point x="699" y="302"/>
      <point x="646" y="143"/>
      <point x="556" y="-15" type="curve"/>
      <point x="530" y="-25"/>
      <point x="481" y="-34"/>
      <point x="442" y="-36" type="curve"/>
      <point x="420" y="105"/>
      <point x="395" y="228"/>
      <point x="357" y="367" type="curve"/>
      <point x="391" y="367" type="line"/>
      <point x="349" y="236"/>
      <point x="315" y="136"/>
      <point x="261" y="20" type="curve"/>
      <point x="229" y="10"/>
      <point x="174" y="2"/>
      <point x="135" y="1" type="curve"/>
      <point x="70" y="173"/>
      <point x="31" y="335"/>
      <point x="4" y="521" type="curve"/>
      <point x="56" y="537"/>
      <point x="110" y="546"/>
      <point x="167" y="548" type="curve"/>
      <point x="179" y="384"/>
      <point x="196" y="258"/>
      <point x="233" y="114" type="curve"/>
      <point x="212" y="113" type="line"/>
      <point x="264" y="249"/>
      <point x="295" y="362"/>
      <point x="319" y="485" type="curve"/>
      <point x="360" y="495"/>
      <point x="413" y="505"/>
    </contour>
  </outline>
</glyph>
<glyph name="z" format="1">
  <advance width="505"/>
  <unicode hex="007A"/>
  <outline>
    <contour>
      <point x="418" y="-35" type="curve"/>
      <point x="433" y="0"/>
      <point x="442" y="44"/>
      <point x="442" y="90" type="curve"/>
      <point x="332" y="73"/>
      <point x="256" y="73"/>
      <point x="159" y="76" type="curve"/>
      <point x="245" y="193"/>
      <point x="364" y="308"/>
      <point x="454" y="393" type="curve"/>
      <point x="467" y="421"/>
      <point x="474" y="458"/>
      <point x="477" y="488" type="curve"/>
      <point x="348" y="532"/>
      <point x="223" y="550"/>
      <point x="84" y="556" type="curve"/>
      <point x="63" y="515"/>
      <point x="56" y="481"/>
      <point x="55" y="433" type="curve"/>
      <point x="147" y="435"/>
      <point x="242" y="435"/>
      <point x="324" y="427" type="curve"/>
      <point x="223" y="340"/>
      <point x="122" y="236"/>
      <point x="21" y="109" type="curve"/>
      <point x="14" y="85"/>
      <point x="10" y="51"/>
      <point x="11" y="23" type="curve"/>
      <point x="114" y="-14"/>
      <point x="272" y="-34"/>
    </contour>
  </outline>
</glyph>
<glyph name="cent" format="1">
  <advance width="485"/>
  <unicode hex="00A2"/>
  <outline>
    <contour>
      <point x="331" y="417" type="curve"/>
      <point x="383" y="417"/>
      <point x="427" y="423"/>
      <point x="464" y="441" type="curve"/>
      <point x="464" y="541"/>
      <point x="408" y="613"/>
      <point x="288" y="613" type="curve" smooth="yes"/>
      <point x="125" y="613"/>
      <point x="30" y="439"/>
      <point x="30" y="272" type="curve" smooth="yes"/>
      <point x="30" y="152"/>
      <point x="87" y="45"/>
      <point x="229" y="45" type="curve" smooth="yes"/>
      <point x="369" y="45"/>
      <point x="444" y="139"/>
      <point x="458" y="187" type="curve"/>
      <point x="441" y="213"/>
      <point x="406" y="235"/>
      <point x="376" y="241" type="curve"/>
      <point x="350" y="193"/>
      <point x="308" y="133"/>
      <point x="256" y="133" type="curve" smooth="yes"/>
      <point x="201" y="133"/>
      <point x="179" y="200"/>
      <point x="179" y="278" type="curve" smooth="yes"/>
      <point x="179" y="404"/>
      <point x="222" y="534"/>
      <point x="278" y="534" type="curve" smooth="yes"/>
      <point x="318" y="534"/>
      <point x="331" y="486"/>
    </contour>
    <contour>
      <point x="412" y="524" type="line"/>
      <point x="428" y="575"/>
      <point x="448" y="617"/>
      <point x="475" y="663" type="curve"/>
      <point x="449" y="680"/>
      <point x="411" y="695"/>
      <point x="382" y="696" type="curve"/>
      <point x="361" y="659"/>
      <point x="345" y="608"/>
      <point x="334" y="568" type="curve"/>
    </contour>
    <contour>
      <point x="195" y="72" type="curve"/>
      <point x="115" y="117" type="line"/>
      <point x="100" y="63"/>
      <point x="80" y="22"/>
      <point x="51" y="-24" type="curve"/>
      <point x="77" y="-41"/>
      <point x="117" y="-55"/>
      <point x="147" y="-58" type="curve"/>
      <point x="168" y="-17"/>
      <point x="185" y="33"/>
    </contour>
  </outline>
</glyph>
<glyph name="yen" format="1">
  <advance width="550"/>
  <unicode hex="00A5"/>
  <outline>
    <contour>
      <point x="198" y="-50" type="curve"/>
      <point x="241" y="-50"/>
      <point x="293" y="-43"/>
      <point x="322" y="-35" type="curve"/>
      <point x="335" y="96"/>
      <point x="339" y="241"/>
      <point x="340" y="376" type="curve"/>
      <point x="193" y="356" type="line"/>
      <point x="200" y="217"/>
      <point x="202" y="89"/>
    </contour>
    <contour>
      <point x="501" y="207" type="curve" smooth="yes"/>
      <point x="502" y="220"/>
      <point x="501" y="234"/>
      <point x="499" y="247" type="curve"/>
      <point x="379" y="231"/>
      <point x="174" y="229"/>
      <point x="56" y="239" type="curve"/>
      <point x="51" y="219"/>
      <point x="47" y="177"/>
      <point x="47" y="143" type="curve"/>
      <point x="174" y="134"/>
      <point x="349" y="138"/>
      <point x="491" y="152" type="curve"/>
      <point x="497" y="169"/>
      <point x="501" y="189"/>
    </contour>
    <contour>
      <point x="323" y="295" type="line"/>
      <point x="383" y="296"/>
      <point x="442" y="301"/>
      <point x="499" y="310" type="curve"/>
      <point x="507" y="321"/>
      <point x="514" y="337"/>
      <point x="515" y="359" type="curve" smooth="yes"/>
      <point x="515" y="373"/>
      <point x="514" y="388"/>
      <point x="510" y="405" type="curve"/>
      <point x="458" y="396"/>
      <point x="396" y="390"/>
      <point x="331" y="389" type="curve"/>
    </contour>
    <contour>
      <point x="44" y="298" type="curve"/>
      <point x="92" y="296"/>
      <point x="144" y="295"/>
      <point x="198" y="296" type="curve"/>
      <point x="213" y="391" type="line"/>
      <point x="153" y="390"/>
      <point x="97" y="391"/>
      <point x="50" y="394" type="curve"/>
      <point x="45" y="373"/>
      <point x="43" y="333"/>
    </contour>
    <contour>
      <point x="206" y="247" type="curve"/>
      <point x="291" y="312" type="line"/>
      <point x="247" y="474"/>
      <point x="198" y="588"/>
      <point x="148" y="684" type="curve"/>
      <point x="127" y="682"/>
      <point x="109" y="676"/>
      <point x="90" y="669" type="curve" smooth="yes"/>
      <point x="55" y="657"/>
      <point x="32" y="635"/>
      <point x="20" y="616" type="curve"/>
      <point x="85" y="507"/>
      <point x="160" y="370"/>
    </contour>
    <contour>
      <point x="410" y="690" type="curve"/>
      <point x="365" y="543"/>
      <point x="319" y="435"/>
      <point x="235" y="303" type="curve"/>
      <point x="308" y="240" type="line"/>
      <point x="425" y="406"/>
      <point x="475" y="494"/>
      <point x="527" y="625" type="curve"/>
      <point x="491" y="660"/>
      <point x="453" y="682"/>
    </contour>
  </outline>
</glyph>
<glyph name="guillemotleft" format="1">
  <advance width="549"/>
  <unicode hex="00AB"/>
  <outline>
    <contour>
      <point x="197" y="40" type="curve"/>
      <point x="236" y="57"/>
      <point x="261" y="80"/>
      <point x="285" y="120" type="curve"/>
      <point x="195" y="179"/>
      <point x="141" y="236"/>
      <point x="93" y="305" type="curve"/>
      <point x="7" y="265" type="line"/>
      <point x="52" y="175"/>
      <point x="117" y="105"/>
    </contour>
    <contour>
      <point x="285" y="402" type="curve"/>
      <point x="267" y="430"/>
      <point x="230" y="458"/>
      <point x="195" y="475" type="curve"/>
      <point x="140" y="383"/>
      <point x="81" y="321"/>
      <point x="7" y="265" type="curve"/>
      <point x="69" y="218" type="line"/>
      <point x="161" y="270"/>
      <point x="221" y="326"/>
    </contour>
    <contour>
      <point x="444" y="40" type="curve"/>
      <point x="483" y="57"/>
      <point x="508" y="80"/>
      <point x="532" y="120" type="curve"/>
      <point x="442" y="179"/>
      <point x="388" y="236"/>
      <point x="340" y="305" type="curve"/>
      <point x="254" y="265" type="line"/>
      <point x="299" y="175"/>
      <point x="364" y="105"/>
    </contour>
    <contour>
      <point x="532" y="402" type="curve"/>
      <point x="514" y="430"/>
      <point x="477" y="458"/>
      <point x="442" y="475" type="curve"/>
      <point x="387" y="383"/>
      <point x="328" y="321"/>
      <point x="254" y="265" type="curve"/>
      <point x="316" y="218" type="line"/>
      <point x="408" y="270"/>
      <point x="468" y="326"/>
    </contour>
  </outline>
</glyph>
<glyph name="macron" format="1">
  <advance width="259"/>
  <unicode hex="00AF"/>
  <outline>
    <contour>
      <point x="15" y="692"/>
      <point x="14" y="653"/>
      <point x="17" y="632" type="curve"/>
      <point x="54" y="615"/>
      <point x="135" y="609"/>
      <point x="242" y="626" type="curve"/>
      <point x="244" y="652"/>
      <point x="244" y="680"/>
      <point x="242" y="705" type="curve"/>
      <point x="161" y="697"/>
      <point x="96" y="700"/>
      <point x="19" y="712" type="curve"/>
    </contour>
    <contour>
      <point x="127" y="560" type="move" name="_top"/>
    </contour>
  </outline>
</glyph>
<glyph name="acute" format="1">
  <advance width="260"/>
  <unicode hex="00B4"/>
  <outline>
    <contour>
      <point x="137" y="571" type="curve"/>
      <point x="177" y="631"/>
      <point x="198" y="683"/>
      <point x="206" y="737" type="curve"/>
      <point x="167" y="752"/>
      <point x="115" y="752"/>
      <point x="83" y="747" type="curve"/>
      <point x="80" y="694"/>
      <point x="68" y="638"/>
      <point x="49" y="582" type="curve"/>
      <point x="77" y="574"/>
      <point x="105" y="571"/>
    </contour>
    <contour>
      <point x="88" y="560" type="move" name="_top"/>
    </contour>
  </outline>
</glyph>
<glyph name="AE" format="1">
  <advance width="874"/>
  <unicode hex="00C6"/>
  <outline>
    <contour>
      <point x="405" y="685" type="curve"/>
      <point x="359" y="696"/>
      <point x="313" y="705"/>
      <point x="268" y="705" type="curve"/>
      <point x="199" y="450"/>
      <point x="133" y="264"/>
      <point x="3" y="37" type="curve"/>
      <point x="29" y="6"/>
      <point x="73" y="-19"/>
      <point x="126" y="-29" type="curve"/>
      <point x="221" y="148"/>
      <point x="338" y="411"/>
    </contour>
    <contour>
      <point x="840" y="-12" type="curve"/>
      <point x="840" y="22"/>
      <point x="835" y="80"/>
      <point x="826" y="105" type="curve"/>
      <point x="751" y="89"/>
      <point x="619" y="74"/>
      <point x="555" y="73" type="curve"/>
      <point x="544" y="167"/>
      <point x="537" y="266"/>
      <point x="535" y="350" type="curve" smooth="yes"/>
      <point x="530" y="483"/>
      <point x="533" y="597"/>
      <point x="541" y="677" type="curve"/>
      <point x="373" y="683" type="line"/>
      <point x="376" y="480"/>
      <point x="401" y="185"/>
      <point x="431" y="-43" type="curve"/>
      <point x="566" y="-42"/>
      <point x="768" y="-26"/>
    </contour>
    <contour>
      <point x="771" y="319" type="curve"/>
      <point x="772" y="366"/>
      <point x="768" y="402"/>
      <point x="759" y="438" type="curve"/>
      <point x="664" y="435"/>
      <point x="584" y="419"/>
      <point x="497" y="396" type="curve"/>
      <point x="504" y="294" type="line"/>
      <point x="592" y="308"/>
      <point x="672" y="315"/>
    </contour>
    <contour>
      <point x="802" y="609" type="curve"/>
      <point x="809" y="643"/>
      <point x="816" y="687"/>
      <point x="815" y="733" type="curve"/>
      <point x="647" y="732"/>
      <point x="522" y="711"/>
      <point x="373" y="683" type="curve"/>
      <point x="390" y="577" type="line"/>
      <point x="522" y="599"/>
      <point x="659" y="609"/>
    </contour>
    <contour>
      <point x="452" y="270" type="line"/>
      <point x="355" y="269"/>
      <point x="263" y="259"/>
      <point x="175" y="242" type="curve"/>
      <point x="179" y="145" type="line"/>
      <point x="268" y="160"/>
      <point x="365" y="165"/>
      <point x="462" y="165" type="curve"/>
    </contour>
  </outline>
</glyph>
<glyph name="Oslash" format="1">
  <advance width="623"/>
  <unicode hex="00D8"/>
  <outline>
    <contour>
      <point x="40" y="-31" type="curve"/>
      <point x="68" y="-59"/>
      <point x="92" y="-71"/>
      <point x="132" y="-84" type="curve"/>
      <point x="300" y="202"/>
      <point x="438" y="447"/>
      <point x="574" y="734" type="curve"/>
      <point x="548" y="761"/>
      <point x="511" y="783"/>
      <point x="480" y="792" type="curve"/>
      <point x="334" y="481"/>
      <point x="199" y="225"/>
    </contour>
    <contour>
      <point x="588" y="416" type="curve" smooth="yes"/>
      <point x="588" y="621"/>
      <point x="501" y="733"/>
      <point x="348" y="733" type="curve" smooth="yes"/>
      <point x="157" y="733"/>
      <point x="33" y="560"/>
      <point x="33" y="329" type="curve" smooth="yes"/>
      <point x="33" y="143"/>
      <point x="109" y="-20"/>
      <point x="274" y="-20" type="curve" smooth="yes"/>
      <point x="514" y="-20"/>
      <point x="588" y="251"/>
    </contour>
    <contour>
      <point x="303" y="80" type="curve" smooth="yes"/>
      <point x="215" y="80"/>
      <point x="188" y="228"/>
      <point x="188" y="351" type="curve" smooth="yes"/>
      <point x="188" y="519"/>
      <point x="237" y="631"/>
      <point x="317" y="631" type="curve" smooth="yes"/>
      <point x="396" y="631"/>
      <point x="432" y="560"/>
      <point x="432" y="377" type="curve" smooth="yes"/>
      <point x="432" y="244"/>
      <point x="406" y="80"/>
    </contour>
  </outline>
</glyph>
<glyph name="Thorn" format="1">
  <advance width="594"/>
  <unicode hex="00DE"/>
  <outline>
    <contour>
      <point x="222" y="-68" type="curve"/>
      <point x="215" y="52"/>
      <point x="209" y="152"/>
      <point x="209" y="268" type="curve" smooth="yes"/>
      <point x="209" y="405"/>
      <point x="215" y="547"/>
      <point x="230" y="693" type="curve"/>
      <point x="185" y="706"/>
      <point x="125" y="711"/>
      <point x="68" y="703" type="curve"/>
      <point x="64" y="654"/>
      <point x="61" y="586"/>
      <point x="61" y="538" type="curve" smooth="yes"/>
      <point x="61" y="340"/>
      <point x="70" y="170"/>
      <point x="93" y="-59" type="curve"/>
      <point x="130" y="-66"/>
      <point x="182" y="-69"/>
    </contour>
    <contour>
      <point x="560" y="399" type="curve" smooth="yes"/>
      <point x="560" y="512"/>
      <point x="479" y="594"/>
      <point x="305" y="594" type="curve" smooth="yes"/>
      <point x="224" y="594"/>
      <point x="136" y="576"/>
      <point x="69" y="548" type="curve"/>
      <point x="111" y="451" type="line"/>
      <point x="155" y="476"/>
      <point x="217" y="505"/>
      <point x="280" y="505" type="curve" smooth="yes"/>
      <point x="374" y="505"/>
      <point x="405" y="442"/>
      <point x="405" y="373" type="curve" smooth="yes"/>
      <point x="405" y="261"/>
      <point x="325" y="194"/>
      <point x="186" y="166" type="curve"/>
      <point x="202" y="68" type="line"/>
      <point x="428" y="132"/>
      <point x="560" y="249"/>
    </contour>
  </outline>
</glyph>
<glyph name="ccedilla" format="1">
  <advance width="481"/>
  <unicode hex="00E7"/>
  <outline>
    <contour>
      <point x="327" y="347" type="curve"/>
      <point x="379" y="347"/>
      <point x="423" y="353"/>
      <point x="460" y="371" type="curve"/>
      <point x="460" y="468"/>
      <point x="404" y="543"/>
      <point x="282" y="543" type="curve" smooth="yes"/>
      <point x="121" y="543"/>
      <point x="26" y="370"/>
      <point x="26" y="201" type="curve" smooth="yes"/>
      <point x="26" y="81"/>
      <point x="83" y="-24"/>
      <point x="225" y="-24" type="curve" smooth="yes"/>
      <point x="364" y="-24"/>
      <point x="438" y="67"/>
      <point x="452" y="116" type="curve"/>
      <point x="433" y="143"/>
      <point x="401" y="164"/>
      <point x="372" y="170" type="curve"/>
      <point x="346" y="122"/>
      <point x="304" y="63"/>
      <point x="252" y="63" type="curve" smooth="yes"/>
      <point x="197" y="63"/>
      <point x="175" y="129"/>
      <point x="175" y="208" type="curve" smooth="yes"/>
      <point x="175" y="333"/>
      <point x="218" y="464"/>
      <point x="274" y="464" type="curve" smooth="yes"/>
      <point x="313" y="464"/>
      <point x="327" y="415"/>
    </contour>
    <contour>
      <point x="227" y="-233" type="curve" smooth="yes"/>
      <point x="305" y="-233"/>
      <point x="355" y="-193"/>
      <point x="355" y="-132" type="curve" smooth="yes"/>
      <point x="355" y="-83"/>
      <point x="317" y="-52"/>
      <point x="265" y="-52" type="curve" smooth="yes"/>
      <point x="238" y="-52"/>
      <point x="219" y="-59"/>
      <point x="194" y="-72" type="curve"/>
      <point x="221" y="-91" type="line"/>
      <point x="239" y="-58"/>
      <point x="247" y="-29"/>
      <point x="249" y="-4" type="curve"/>
      <point x="196" y="7" type="line"/>
      <point x="195" y="-25"/>
      <point x="184" y="-63"/>
      <point x="167" y="-91" type="curve"/>
      <point x="172" y="-99"/>
      <point x="182" y="-108"/>
      <point x="191" y="-115" type="curve"/>
      <point x="203" y="-109"/>
      <point x="214" y="-106"/>
      <point x="225" y="-106" type="curve" smooth="yes"/>
      <point x="248" y="-106"/>
      <point x="262" y="-120"/>
      <point x="262" y="-140" type="curve" smooth="yes"/>
      <point x="262" y="-163"/>
      <point x="247" y="-177"/>
      <point x="225" y="-177" type="curve" smooth="yes"/>
      <point x="201" y="-177"/>
      <point x="181" y="-159"/>
      <point x="173" y="-132" type="curve"/>
      <point x="154" y="-140"/>
      <point x="143" y="-145"/>
      <point x="117" y="-161" type="curve"/>
      <point x="135" y="-210"/>
      <point x="177" y="-233"/>
    </contour>
  </outline>
</glyph>
<glyph name="Aogonek" format="1">
  <advance width="649"/>
  <unicode hex="0104"/>
  <outline>
    <contour>
      <point x="640" y="-65" type="curve"/>
      <point x="594" y="229"/>
      <point x="519" y="473"/>
      <point x="393" y="692" type="curve"/>
      <point x="349" y="702"/>
      <point x="313" y="707"/>
      <point x="256" y="708" type="curve"/>
      <point x="191" y="456"/>
      <point x="129" y="269"/>
      <point x="2" y="38" type="curve"/>
      <point x="28" y="7"/>
      <point x="73" y="-18"/>
      <point x="125" y="-27" type="curve"/>
      <point x="216" y="152"/>
      <point x="285" y="374"/>
      <point x="334" y="583" type="curve"/>
      <point x="299" y="585" type="line"/>
      <point x="394" y="384"/>
      <point x="457" y="161"/>
      <point x="491" y="-112" type="curve"/>
      <point x="551" y="-104"/>
      <point x="600" y="-91"/>
    </contour>
    <contour>
      <point x="483" y="173" type="curve"/>
      <point x="474" y="279" type="line"/>
      <point x="369" y="279"/>
      <point x="266" y="270"/>
      <point x="168" y="251" type="curve"/>
      <point x="172" y="154" type="line"/>
      <point x="268" y="170"/>
      <point x="377" y="174"/>
    </contour>
    <contour>
      <point x="588" y="-85" type="curve"/>
      <point x="552" y="-69" type="line"/>
      <point x="475" y="-114"/>
      <point x="434" y="-157"/>
      <point x="434" y="-217" type="curve" smooth="yes"/>
      <point x="434" y="-264"/>
      <point x="472" y="-294"/>
      <point x="529" y="-294" type="curve" smooth="yes"/>
      <point x="581" y="-294"/>
      <point x="617" y="-271"/>
      <point x="644" y="-235" type="curve"/>
      <point x="636" y="-216"/>
      <point x="625" y="-197"/>
      <point x="611" y="-185" type="curve"/>
      <point x="593" y="-214"/>
      <point x="575" y="-226"/>
      <point x="554" y="-226" type="curve" smooth="yes"/>
      <point x="534" y="-226"/>
      <point x="524" y="-213"/>
      <point x="524" y="-191" type="curve" smooth="yes"/>
      <point x="524" y="-156"/>
      <point x="545" y="-118"/>
    </contour>
  </outline>
</glyph>
<glyph name="aogonek" format="1">
  <advance width="510"/>
  <unicode hex="0105"/>
  <outline>
    <contour>
      <point x="405" y="-35" type="curve"/>
      <point x="368" y="-35"/>
      <point x="324" y="-30"/>
      <point x="288" y="-21" type="curve"/>
      <point x="314" y="120"/>
      <point x="322" y="195"/>
      <point x="322" y="300" type="curve" smooth="yes"/>
      <point x="322" y="409"/>
      <point x="308" y="469"/>
      <point x="259" y="469" type="curve" smooth="yes"/>
      <point x="217" y="469"/>
      <point x="181" y="419"/>
      <point x="179" y="342" type="curve"/>
      <point x="112" y="344"/>
      <point x="70" y="370"/>
      <point x="52" y="413" type="curve"/>
      <point x="70" y="480"/>
      <point x="153" y="552"/>
      <point x="273" y="552" type="curve" smooth="yes"/>
      <point x="428" y="552"/>
      <point x="466" y="450"/>
      <point x="466" y="351" type="curve" smooth="yes"/>
      <point x="466" y="250"/>
      <point x="432" y="73"/>
    </contour>
    <contour>
      <point x="339" y="219" type="line"/>
      <point x="212" y="225"/>
      <point x="175" y="190"/>
      <point x="175" y="140" type="curve" smooth="yes"/>
      <point x="175" y="101"/>
      <point x="199" y="79"/>
      <point x="238" y="79" type="curve" smooth="yes"/>
      <point x="276" y="79"/>
      <point x="305" y="93"/>
      <point x="333" y="119" type="curve"/>
      <point x="325" y="48" type="line"/>
      <point x="296" y="22"/>
      <point x="252" y="4"/>
      <point x="195" y="4" type="curve" smooth="yes"/>
      <point x="93" y="4"/>
      <point x="25" y="61"/>
      <point x="25" y="149" type="curve" smooth="yes"/>
      <point x="25" y="235"/>
      <point x="92" y="287"/>
      <point x="250" y="287" type="curve" smooth="yes"/>
      <point x="300" y="287"/>
      <point x="319" y="286"/>
      <point x="339" y="284" type="curve"/>
    </contour>
    <contour>
      <point x="337" y="-26" type="line"/>
      <point x="294" y="-58"/>
      <point x="273" y="-97"/>
      <point x="273" y="-131" type="curve" smooth="yes"/>
      <point x="273" y="-153"/>
      <point x="284" y="-167"/>
      <point x="303" y="-167" type="curve" smooth="yes"/>
      <point x="324" y="-167"/>
      <point x="342" y="-154"/>
      <point x="360" y="-125" type="curve"/>
      <point x="374" y="-137"/>
      <point x="385" y="-156"/>
      <point x="393" y="-175" type="curve"/>
      <point x="367" y="-212"/>
      <point x="330" y="-235"/>
      <point x="279" y="-235" type="curve" smooth="yes"/>
      <point x="221" y="-235"/>
      <point x="183" y="-205"/>
      <point x="183" y="-157" type="curve" smooth="yes"/>
      <point x="183" y="-98"/>
      <point x="224" y="-54"/>
      <point x="301" y="-10" type="curve"/>
    </contour>
  </outline>
</glyph>
<glyph name="Lslash" format="1">
  <advance width="505"/>
  <unicode hex="0141"/>
  <outline>
    <contour>
      <point x="507" y="-72" type="curve"/>
      <point x="507" y="-36"/>
      <point x="498" y="19"/>
      <point x="490" y="44" type="curve"/>
      <point x="414" y="44"/>
      <point x="322" y="34"/>
      <point x="242" y="15" type="curve"/>
      <point x="224" y="133"/>
      <point x="222" y="257"/>
      <point x="221" y="372" type="curve" smooth="yes"/>
      <point x="221" y="488"/>
      <point x="225" y="596"/>
      <point x="235" y="672" type="curve"/>
      <point x="222" y="674"/>
      <point x="207" y="675"/>
      <point x="194" y="675" type="curve" smooth="yes"/>
      <point x="145" y="675"/>
      <point x="102" y="668"/>
      <point x="63" y="656" type="curve"/>
      <point x="60" y="431"/>
      <point x="86" y="110"/>
      <point x="118" y="-102" type="curve"/>
      <point x="254" y="-83"/>
      <point x="357" y="-73"/>
    </contour>
    <contour>
      <point x="1" y="75" type="curve"/>
      <point x="157" y="167"/>
      <point x="296" y="262"/>
      <point x="438" y="369" type="curve"/>
      <point x="425" y="405"/>
      <point x="404" y="440"/>
      <point x="380" y="460" type="curve"/>
      <point x="235" y="348"/>
      <point x="99" y="251"/>
      <point x="-52" y="159" type="curve"/>
      <point x="-39" y="122"/>
      <point x="-25" y="100"/>
    </contour>
  </outline>
</glyph>
<glyph name="oe" format="1">
  <advance width="798"/>
  <unicode hex="0153"/>
  <outline>
    <contour>
      <point x="250" y="435" type="curve" smooth="yes"/>
      <point x="206" y="435"/>
      <point x="168" y="355"/>
      <point x="168" y="237" type="curve" smooth="yes"/>
      <point x="168" y="160"/>
      <point x="190" y="60"/>
      <point x="245" y="60" type="curve" smooth="yes"/>
      <point x="293" y="60"/>
      <point x="322" y="164"/>
      <point x="322" y="263" type="curve" smooth="yes"/>
      <point x="322" y="387"/>
      <point x="296" y="435"/>
    </contour>
    <contour>
      <point x="398" y="93" type="line" smooth="yes"/>
      <point x="349" y="14"/>
      <point x="291" y="-29"/>
      <point x="212" y="-29" type="curve" smooth="yes"/>
      <point x="87" y="-29"/>
      <point x="22" y="77"/>
      <point x="22" y="217" type="curve" smooth="yes"/>
      <point x="22" y="396"/>
      <point x="127" y="526"/>
      <point x="273" y="526" type="curve" smooth="yes"/>
      <point x="362" y="526"/>
      <point x="430" y="470"/>
      <point x="460" y="372" type="curve" smooth="yes"/>
      <point x="386" y="388" type="line" smooth="yes"/>
      <point x="434" y="473"/>
      <point x="509" y="525"/>
      <point x="586" y="525" type="curve" smooth="yes"/>
      <point x="683" y="525"/>
      <point x="741" y="462"/>
      <point x="741" y="376" type="curve" smooth="yes"/>
      <point x="741" y="329"/>
      <point x="731" y="276"/>
      <point x="717" y="240" type="curve"/>
      <point x="677" y="222"/>
      <point x="622" y="216"/>
      <point x="560" y="216" type="curve" smooth="yes"/>
      <point x="515" y="216"/>
      <point x="464" y="225"/>
      <point x="418" y="244" type="curve"/>
      <point x="423" y="328" type="line"/>
      <point x="472" y="301"/>
      <point x="525" y="294"/>
      <point x="557" y="294" type="curve" smooth="yes"/>
      <point x="568" y="294"/>
      <point x="587" y="295"/>
      <point x="594" y="297" type="curve"/>
      <point x="601" y="323"/>
      <point x="608" y="356"/>
      <point x="608" y="386" type="curve" smooth="yes"/>
      <point x="608" y="420"/>
      <point x="599" y="443"/>
      <point x="569" y="443" type="curve" smooth="yes"/>
      <point x="508" y="443"/>
      <point x="463" y="304"/>
      <point x="463" y="190" type="curve" smooth="yes"/>
      <point x="463" y="107"/>
      <point x="488" y="44"/>
      <point x="540" y="44" type="curve" smooth="yes"/>
      <point x="581" y="44"/>
      <point x="625" y="107"/>
      <point x="640" y="157" type="curve"/>
      <point x="678" y="150"/>
      <point x="722" y="127"/>
      <point x="748" y="99" type="curve"/>
      <point x="728" y="34"/>
      <point x="628" y="-43"/>
      <point x="529" y="-43" type="curve" smooth="yes"/>
      <point x="425" y="-43"/>
      <point x="365" y="19"/>
      <point x="339" y="113" type="curve"/>
    </contour>
  </outline>
</glyph>
<glyph name="uni02C9" format="1">
  <advance width="259"/>
  <unicode hex="02C9"/>
  <outline>
    <contour>
      <point x="19" y="712" type="curve"/>
      <point x="15" y="692"/>
      <point x="14" y="653"/>
      <point x="17" y="632" type="curve"/>
      <point x="54" y="615"/>
      <point x="135" y="609"/>
      <point x="242" y="626" type="curve"/>
      <point x="244" y="652"/>
      <point x="244" y="680"/>
      <point x="242" y="705" type="curve"/>
      <point x="161" y="697"/>
      <point x="96" y="700"/>
    </contour>
  </outline>
</glyph>
<glyph name="breve" format="1">
  <advance width="260"/>
  <unicode hex="02D8"/>
  <outline>
    <contour>
      <point x="42" y="738"/>
      <point x="22" y="734"/>
      <point x="5" y="728" type="curve"/>
      <point x="3" y="687"/>
      <point x="11" y="660"/>
      <point x="25" y="641" type="curve" smooth="yes"/>
      <point x="49" y="611"/>
      <point x="84" y="598"/>
      <point x="129" y="598" type="curve" smooth="yes"/>
      <point x="179" y="598"/>
      <point x="221" y="617"/>
      <point x="240" y="654" type="curve" smooth="yes"/>
      <point x="253" y="678"/>
      <point x="257" y="703"/>
      <point x="255" y="737" type="curve"/>
      <point x="233" y="741"/>
      <point x="203" y="741"/>
      <point x="184" y="736" type="curve"/>
      <point x="195" y="696"/>
      <point x="181" y="670"/>
      <point x="130" y="670" type="curve" smooth="yes"/>
      <point x="78" y="670"/>
      <point x="68" y="696"/>
      <point x="72" y="737" type="curve"/>
    </contour>
    <contour>
      <point x="137" y="560" type="move" name="_top"/>
    </contour>
  </outline>
</glyph>
<glyph name="pi" format="1">
  <advance width="709"/>
  <unicode hex="03C0"/>
  <outline>
    <contour>
      <point x="653" y="414" type="curve"/>
      <point x="662" y="448"/>
      <point x="668" y="503"/>
      <point x="664" y="545" type="curve"/>
      <point x="526" y="556"/>
      <point x="190" y="567"/>
      <point x="37" y="565" type="curve"/>
      <point x="22" y="530"/>
      <point x="12" y="468"/>
      <point x="28" y="396" type="curve"/>
      <point x="115" y="408"/>
      <point x="319" y="420"/>
      <point x="439" y="420" type="curve" smooth="yes"/>
      <point x="499" y="420"/>
      <point x="592" y="418"/>
    </contour>
    <contour>
      <point x="546" y="7" type="curve" smooth="yes"/>
      <point x="660" y="7"/>
      <point x="686" y="109"/>
      <point x="687" y="169" type="curve"/>
      <point x="659" y="190"/>
      <point x="620" y="205"/>
      <point x="585" y="209" type="curve"/>
      <point x="583" y="130"/>
      <point x="573" y="96"/>
      <point x="556" y="96" type="curve" smooth="yes"/>
      <point x="525" y="96"/>
      <point x="518" y="174"/>
      <point x="518" y="268" type="curve" smooth="yes"/>
      <point x="518" y="331"/>
      <point x="526" y="400"/>
      <point x="537" y="465" type="curve"/>
      <point x="383" y="467" type="line"/>
      <point x="376" y="408"/>
      <point x="371" y="348"/>
      <point x="371" y="287" type="curve" smooth="yes"/>
      <point x="371" y="95"/>
      <point x="447" y="7"/>
    </contour>
    <contour>
      <point x="274" y="490" type="curve"/>
      <point x="148" y="497" type="line"/>
      <point x="154" y="436"/>
      <point x="155" y="386"/>
      <point x="147" y="290" type="curve" smooth="yes"/>
      <point x="139" y="189"/>
      <point x="126" y="127"/>
      <point x="93" y="13" type="curve"/>
      <point x="142" y="-1"/>
      <point x="215" y="-3"/>
      <point x="250" y="8" type="curve"/>
      <point x="274" y="120"/>
      <point x="284" y="200"/>
      <point x="284" y="307" type="curve" smooth="yes"/>
      <point x="285" y="368"/>
      <point x="282" y="431"/>
    </contour>
  </outline>
</glyph>
<glyph name="bn_u" format="1">
  <advance width="602"/>
  <unicode hex="0989"/>
  <outline>
    <contour>
      <point x="602" y="618" type="line"/>
      <point x="583" y="729"/>
      <point x="526" y="817"/>
      <point x="430" y="817" type="curve" smooth="yes"/>
      <point x="369" y="817"/>
      <point x="285" y="788"/>
      <point x="235" y="788" type="curve" smooth="yes"/>
      <point x="181" y="788"/>
      <point x="149" y="826"/>
      <point x="123" y="871" type="curve"/>
      <point x="104" y="857"/>
      <point x="77" y="834"/>
      <point x="57" y="804" type="curve"/>
      <point x="92" y="743"/>
      <point x="145" y="690"/>
      <point x="226" y="690" type="curve" smooth="yes"/>
      <point x="289" y="690"/>
      <point x="368" y="718"/>
      <point x="429" y="718" type="curve" smooth="yes"/>
      <point x="503" y="718"/>
      <point x="529" y="657"/>
      <point x="542" y="596" type="curve"/>
    </contour>
    <component base="bn_dda"/>
    <contour>
      <point x="300" y="830" type="move" name="chandrabindu"/>
    </contour>
  </outline>
</glyph>
<glyph name="bn_uu" format="1">
  <advance width="669"/>
  <unicode hex="098A"/>
  <outline>
    <contour>
      <point x="574" y="-37"/>
      <point x="648" y="67"/>
      <point x="648" y="213" type="curve" smooth="yes"/>
      <point x="648" y="282"/>
      <point x="632" y="350"/>
      <point x="607" y="400" type="curve"/>
      <point x="579" y="415"/>
      <point x="544" y="427"/>
      <point x="515" y="434" type="curve"/>
      <point x="477" y="371"/>
      <point x="444" y="320"/>
      <point x="415" y="320" type="curve" smooth="yes"/>
      <point x="399" y="320"/>
      <point x="386" y="332"/>
      <point x="386" y="359" type="curve" smooth="yes"/>
      <point x="386" y="398"/>
      <point x="416" y="505"/>
      <point x="442" y="578" type="curve"/>
      <point x="323" y="602" type="line"/>
      <point x="308" y="540"/>
      <point x="290" y="452"/>
      <point x="290" y="405" type="curve" smooth="yes"/>
      <point x="290" y="318"/>
      <point x="347" y="217"/>
      <point x="442" y="217" type="curve" smooth="yes"/>
      <point x="514" y="217"/>
      <point x="555" y="272"/>
      <point x="593" y="331" type="curve"/>
      <point x="551" y="360" type="line"/>
      <point x="561" y="327"/>
      <point x="569" y="283"/>
      <point x="569" y="244" type="curve" smooth="yes"/>
      <point x="569" y="143"/>
      <point x="527" y="92"/>
      <point x="443" y="92" type="curve" smooth="yes"/>
      <point x="317" y="92"/>
      <point x="252" y="218"/>
      <point x="184" y="461" type="curve"/>
      <point x="161" y="454"/>
      <point x="136" y="444"/>
      <point x="116" y="432" type="curve"/>
      <point x="166" y="249"/>
      <point x="228" y="97"/>
      <point x="346" y="19" type="curve"/>
      <point x="360" y="35" type="line"/>
      <point x="238" y="88"/>
      <point x="146" y="194"/>
      <point x="73" y="415" type="curve"/>
      <point x="49" y="407"/>
      <point x="27" y="398"/>
      <point x="5" y="386" type="curve"/>
      <point x="66" y="194"/>
      <point x="188" y="-37"/>
      <point x="419" y="-37" type="curve" smooth="yes"/>
    </contour>
    <contour>
      <point x="83" y="530"/>
      <point x="189" y="542"/>
      <point x="336" y="542" type="curve" smooth="yes"/>
      <point x="478" y="542"/>
      <point x="585" y="531"/>
      <point x="669" y="514" type="curve"/>
      <point x="675" y="528"/>
      <point x="677" y="552"/>
      <point x="677" y="572" type="curve" smooth="yes"/>
      <point x="677" y="590"/>
      <point x="674" y="608"/>
      <point x="669" y="618" type="curve"/>
      <point x="588" y="636"/>
      <point x="482" y="650"/>
      <point x="335" y="650" type="curve" smooth="yes"/>
      <point x="189" y="650"/>
      <point x="81" y="636"/>
      <point x="0" y="618" type="curve"/>
      <point x="-6" y="607"/>
      <point x="-9" y="591"/>
      <point x="-9" y="573" type="curve" smooth="yes"/>
      <point x="-9" y="552"/>
      <point x="-5" y="527"/>
      <point x="0" y="514" type="curve"/>
    </contour>
    <contour>
      <point x="669" y="618" type="line"/>
      <point x="650" y="729"/>
      <point x="593" y="817"/>
      <point x="497" y="817" type="curve" smooth="yes"/>
      <point x="426" y="817"/>
      <point x="326" y="788"/>
      <point x="269" y="788" type="curve" smooth="yes"/>
      <point x="214" y="788"/>
      <point x="182" y="826"/>
      <point x="156" y="871" type="curve"/>
      <point x="137" y="857"/>
      <point x="110" y="834"/>
      <point x="90" y="804" type="curve"/>
      <point x="125" y="743"/>
      <point x="178" y="690"/>
      <point x="260" y="690" type="curve" smooth="yes"/>
      <point x="333" y="690"/>
      <point x="427" y="718"/>
      <point x="497" y="718" type="curve" smooth="yes"/>
      <point x="570" y="718"/>
      <point x="597" y="657"/>
      <point x="610" y="596" type="curve"/>
    </contour>
    <contour>
      <point x="327" y="830" type="move" name="chandrabindu"/>
    </contour>
  </outline>
</glyph>
<glyph name="bn_li" format="1">
  <advance width="518"/>
  <unicode hex="098C"/>
  <outline>
    <contour>
      <point x="448" y="77"/>
      <point x="484" y="208"/>
      <point x="484" y="319" type="curve" smooth="yes"/>
      <point x="484" y="447"/>
      <point x="435" y="526"/>
      <point x="311" y="555" type="curve" smooth="yes"/>
      <point x="245" y="571" type="line" smooth="yes"/>
      <point x="170" y="588"/>
      <point x="136" y="605"/>
      <point x="119" y="698" type="curve"/>
      <point x="96" y="692"/>
      <point x="63" y="680"/>
      <point x="33" y="659" type="curve"/>
      <point x="56" y="514"/>
      <point x="122" y="480"/>
      <point x="253" y="450" type="curve" smooth="yes"/>
      <point x="343" y="432"/>
      <point x="404" y="415"/>
      <point x="404" y="344" type="curve" smooth="yes"/>
      <point x="404" y="264"/>
      <point x="363" y="148"/>
      <point x="309" y="67" type="curve"/>
      <point x="296" y="-12" type="line"/>
      <point x="326" y="-24"/>
      <point x="362" y="-30"/>
      <point x="396" y="-30" type="curve"/>
    </contour>
    <contour>
      <point x="196" y="-29"/>
      <point x="225" y="-9"/>
      <point x="243" y="18" type="curve"/>
      <point x="239" y="56"/>
      <point x="222" y="111"/>
      <point x="202" y="148" type="curve"/>
      <point x="187" y="118"/>
      <point x="167" y="96"/>
      <point x="139" y="96" type="curve" smooth="yes"/>
      <point x="117" y="96"/>
      <point x="94" y="111"/>
      <point x="94" y="151" type="curve" smooth="yes"/>
      <point x="94" y="196"/>
      <point x="122" y="226"/>
      <point x="168" y="226" type="curve" smooth="yes"/>
      <point x="234" y="226"/>
      <point x="298" y="162"/>
      <point x="296" y="-12" type="curve"/>
      <point x="352" y="73" type="line"/>
      <point x="353" y="248"/>
      <point x="285" y="362"/>
      <point x="178" y="362" type="curve" smooth="yes"/>
      <point x="80" y="362"/>
      <point x="21" y="279"/>
      <point x="21" y="168" type="curve" smooth="yes"/>
      <point x="21" y="56"/>
      <point x="82" y="-29"/>
      <point x="161" y="-29" type="curve" smooth="yes"/>
    </contour>
    <contour>
      <point x="275" y="690" type="move" name="chandrabindu"/>
    </contour>
  </outline>
</glyph>
<glyph name="bn_kha" format="1">
  <advance width="615"/>
  <unicode hex="0996"/>
  <outline>
    <contour>
      <point x="409" y="35" type="line"/>
      <point x="383" y="148"/>
      <point x="317" y="240"/>
      <point x="210" y="284" type="curve"/>
      <point x="212" y="210" type="line"/>
      <point x="274" y="240" type="line" smooth="yes"/>
      <point x="362" y="283"/>
      <point x="396" y="358"/>
      <point x="396" y="434" type="curve" smooth="yes"/>
      <point x="396" y="485"/>
      <point x="384" y="524"/>
      <point x="364" y="553" type="curve"/>
      <point x="304" y="591" type="line"/>
      <point x="281" y="558"/>
      <point x="237" y="523"/>
      <point x="194" y="523" type="curve" smooth="yes"/>
      <point x="159" y="523"/>
      <point x="146" y="545"/>
      <point x="146" y="577" type="curve" smooth="yes"/>
      <point x="146" y="589"/>
      <point x="148" y="603"/>
      <point x="156" y="615" type="curve"/>
      <point x="115" y="615"/>
      <point x="75" y="607"/>
      <point x="45" y="589" type="curve"/>
      <point x="40" y="577"/>
      <point x="37" y="564"/>
      <point x="37" y="548" type="curve" smooth="yes"/>
      <point x="37" y="463"/>
      <point x="84" y="409"/>
      <point x="164" y="409" type="curve" smooth="yes"/>
      <point x="230" y="409"/>
      <point x="295" y="460"/>
      <point x="327" y="514" type="curve"/>
      <point x="286" y="528" type="line"/>
      <point x="299" y="520"/>
      <point x="309" y="503"/>
      <point x="309" y="484" type="curve" smooth="yes"/>
      <point x="309" y="437"/>
      <point x="282" y="396"/>
      <point x="202" y="355" type="curve" smooth="yes"/>
      <point x="115" y="311" type="line"/>
      <point x="120" y="268"/>
      <point x="136" y="228"/>
      <point x="163" y="189" type="curve"/>
      <point x="254" y="169"/>
      <point x="317" y="104"/>
      <point x="369" y="-13" type="curve"/>
    </contour>
    <contour>
      <point x="538" y="80"/>
      <point x="555" y="272"/>
      <point x="555" y="455" type="curve" smooth="yes"/>
      <point x="555" y="481"/>
      <point x="560" y="494"/>
      <point x="578" y="502" type="curve" smooth="yes"/>
      <point x="588" y="506"/>
      <point x="601" y="510"/>
      <point x="615" y="514" type="curve"/>
      <point x="620" y="528"/>
      <point x="623" y="552"/>
      <point x="623" y="572" type="curve" smooth="yes"/>
      <point x="623" y="592"/>
      <point x="620" y="608"/>
      <point x="615" y="618" type="curve"/>
      <point x="571" y="610"/>
      <point x="534" y="600"/>
      <point x="497" y="585" type="curve" smooth="yes"/>
      <point x="460" y="570"/>
      <point x="438" y="540"/>
      <point x="438" y="499" type="curve" smooth="yes"/>
      <point x="438" y="478"/>
      <point x="441" y="456"/>
      <point x="441" y="395" type="curve" smooth="yes"/>
      <point x="441" y="263"/>
      <point x="429" y="143"/>
      <point x="396" y="51" type="curve"/>
      <point x="369" y="-13" type="line"/>
      <point x="398" y="-25"/>
      <point x="450" y="-33"/>
      <point x="492" y="-33" type="curve"/>
    </contour>
    <contour>
      <point x="431" y="-6" type="move" name="blwm"/>
    </contour>
    <contour>
      <point x="180" y="0" type="move" name="nukt"/>
    </contour>
    <contour>
      <point x="459" y="690" type="move" name="reph"/>
    </contour>
    <contour>
      <point x="459" y="690" type="move" name="chandrabindu"/>
    </contour>
    <contour>
      <point x="272" y="0" type="move" name="haln"/>
    </contour>
  </outline>
</glyph>
<glyph name="bn_gha" format="1">
  <advance width="523"/>
  <unicode hex="0998"/>
  <outline>
    <contour>
      <point x="374" y="24" type="line"/>
      <point x="330" y="134"/>
      <point x="237" y="207"/>
      <point x="141" y="249" type="curve"/>
      <point x="144" y="187" type="line"/>
      <point x="302" y="312" type="line"/>
      <point x="297" y="353"/>
      <point x="282" y="404"/>
      <point x="264" y="432" type="curve"/>
      <point x="232" y="400"/>
      <point x="205" y="390"/>
      <point x="185" y="390" type="curve" smooth="yes"/>
      <point x="158" y="390"/>
      <point x="135" y="409"/>
      <point x="135" y="442" type="curve" smooth="yes"/>
      <point x="135" y="476"/>
      <point x="162" y="515"/>
      <point x="245" y="543" type="curve"/>
      <point x="92" y="566" type="line"/>
      <point x="51" y="536"/>
      <point x="32" y="497"/>
      <point x="32" y="454" type="curve" smooth="yes"/>
      <point x="32" y="372"/>
      <point x="101" y="335"/>
      <point x="174" y="333" type="curve" smooth="yes"/>
      <point x="229" y="332"/>
      <point x="251" y="352"/>
      <point x="263" y="364" type="curve"/>
      <point x="175" y="373" type="line"/>
      <point x="56" y="276" type="line"/>
      <point x="55" y="234"/>
      <point x="72" y="188"/>
      <point x="110" y="152" type="curve"/>
      <point x="204" y="133"/>
      <point x="283" y="77"/>
      <point x="346" y="-27" type="curve"/>
    </contour>
    <contour>
      <point x="385" y="-27"/>
      <point x="437" y="-23"/>
      <point x="469" y="-8" type="curve"/>
      <point x="453" y="67"/>
      <point x="449" y="184"/>
      <point x="449" y="292" type="curve" smooth="yes"/>
      <point x="449" y="388"/>
      <point x="452" y="459"/>
      <point x="462" y="541" type="curve"/>
      <point x="364" y="564" type="line"/>
      <point x="345" y="413"/>
      <point x="337" y="302"/>
      <point x="337" y="145" type="curve" smooth="yes"/>
      <point x="337" y="66"/>
      <point x="339" y="15"/>
      <point x="346" y="-27" type="curve"/>
    </contour>
    <contour>
      <point x="64" y="528"/>
      <point x="159" y="541"/>
      <point x="263" y="541" type="curve" smooth="yes"/>
      <point x="367" y="541"/>
      <point x="464" y="528"/>
      <point x="523" y="514" type="curve"/>
      <point x="527" y="528"/>
      <point x="531" y="551"/>
      <point x="531" y="573" type="curve" smooth="yes"/>
      <point x="531" y="590"/>
      <point x="529" y="607"/>
      <point x="523" y="618" type="curve"/>
      <point x="468" y="635"/>
      <point x="372" y="649"/>
      <point x="268" y="649" type="curve" smooth="yes"/>
      <point x="161" y="649"/>
      <point x="63" y="635"/>
      <point x="0" y="618" type="curve"/>
      <point x="-5" y="608"/>
      <point x="-8" y="591"/>
      <point x="-8" y="573" type="curve" smooth="yes"/>
      <point x="-8" y="552"/>
      <point x="-4" y="530"/>
      <point x="0" y="514" type="curve"/>
    </contour>
    <contour>
      <point x="392" y="0" type="move" name="blwm"/>
    </contour>
    <contour>
      <point x="134" y="0" type="move" name="nukt"/>
    </contour>
    <contour>
      <point x="291" y="690" type="move" name="reph"/>
    </contour>
    <contour>
      <point x="291" y="690" type="move" name="chandrabindu"/>
    </contour>
    <contour>
      <point x="225" y="0" type="move" name="haln"/>
    </contour>
  </outline>
</glyph>
<glyph name="bn_nna" format="1">
  <advance width="511"/>
  <unicode hex="09A3"/>
  <outline>
    <contour>
      <point x="379" y="294" type="line"/>
      <point x="381" y="491"/>
      <point x="309" y="640"/>
      <point x="184" y="640" type="curve" smooth="yes"/>
      <point x="88" y="640"/>
      <point x="28" y="551"/>
      <point x="28" y="443" type="curve" smooth="yes"/>
      <point x="28" y="334"/>
      <point x="90" y="254"/>
      <point x="172" y="254" type="curve" smooth="yes"/>
      <point x="238" y="254"/>
      <point x="285" y="306"/>
      <point x="285" y="369" type="curve" smooth="yes"/>
      <point x="285" y="382"/>
      <point x="283" y="391"/>
      <point x="279" y="399" type="curve"/>
      <point x="256" y="424"/>
      <point x="218" y="444"/>
      <point x="182" y="453" type="curve"/>
      <point x="189" y="439"/>
      <point x="193" y="421"/>
      <point x="193" y="407" type="curve" smooth="yes"/>
      <point x="193" y="377"/>
      <point x="181" y="346"/>
      <point x="153" y="346" type="curve" smooth="yes"/>
      <point x="129" y="346"/>
      <point x="109" y="366"/>
      <point x="109" y="405" type="curve" smooth="yes"/>
      <point x="109" y="458"/>
      <point x="144" y="501"/>
      <point x="197" y="501" type="curve" smooth="yes"/>
      <point x="256" y="501"/>
      <point x="335" y="450"/>
      <point x="335" y="344" type="curve" smooth="yes"/>
      <point x="335" y="324"/>
      <point x="332" y="287"/>
      <point x="326" y="235" type="curve"/>
    </contour>
    <contour>
      <point x="432" y="103"/>
      <point x="441" y="226"/>
      <point x="449" y="454" type="curve" smooth="yes"/>
      <point x="450" y="482"/>
      <point x="453" y="493"/>
      <point x="476" y="503" type="curve" smooth="yes"/>
      <point x="485" y="507"/>
      <point x="497" y="511"/>
      <point x="511" y="514" type="curve"/>
      <point x="516" y="528"/>
      <point x="520" y="550"/>
      <point x="520" y="571" type="curve" smooth="yes"/>
      <point x="520" y="590"/>
      <point x="516" y="608"/>
      <point x="511" y="618" type="curve"/>
      <point x="468" y="610"/>
      <point x="424" y="597"/>
      <point x="402" y="587" type="curve" smooth="yes"/>
      <point x="359" y="568"/>
      <point x="353" y="541"/>
      <point x="353" y="506" type="curve" smooth="yes"/>
      <point x="353" y="485"/>
      <point x="356" y="468"/>
      <point x="357" y="446" type="curve"/>
      <point x="337" y="459" type="line"/>
      <point x="338" y="258"/>
      <point x="317" y="121"/>
      <point x="270" y="-6" type="curve"/>
      <point x="300" y="-22"/>
      <point x="354" y="-33"/>
      <point x="395" y="-33" type="curve"/>
    </contour>
    <contour>
      <point x="331" y="-2" type="move" name="blwm"/>
    </contour>
    <contour>
      <point x="142" y="0" type="move" name="nukt"/>
    </contour>
    <contour>
      <point x="408" y="690" type="move" name="reph"/>
    </contour>
    <contour>
      <point x="414" y="690" type="move" name="chandrabindu"/>
    </contour>
    <contour>
      <point x="205" y="0" type="move" name="haln"/>
    </contour>
  </outline>
</glyph>
<glyph name="bn_na" format="1">
  <advance width="513"/>
  <unicode hex="09A8"/>
  <outline>
    <contour>
      <point x="226" y="138"/>
      <point x="234" y="191"/>
      <point x="234" y="232" type="curve"/>
      <point x="218" y="223"/>
      <point x="194" y="219"/>
      <point x="173" y="219" type="curve" smooth="yes"/>
      <point x="122" y="219"/>
      <point x="91" y="244"/>
      <point x="91" y="280" type="curve" smooth="yes"/>
      <point x="91" y="313"/>
      <point x="114" y="332"/>
      <point x="153" y="332" type="curve" smooth="yes"/>
      <point x="234" y="332"/>
      <point x="322" y="223"/>
      <point x="324" y="118" type="curve"/>
      <point x="355" y="210" type="line"/>
      <point x="328" y="356"/>
      <point x="248" y="450"/>
      <point x="155" y="450" type="curve" smooth="yes"/>
      <point x="75" y="450"/>
      <point x="20" y="384"/>
      <point x="20" y="287" type="curve" smooth="yes"/>
      <point x="20" y="171"/>
      <point x="87" y="98"/>
      <point x="178" y="98" type="curve" smooth="yes"/>
      <point x="197" y="98"/>
      <point x="211" y="102"/>
      <point x="216" y="105" type="curve"/>
    </contour>
    <contour>
      <point x="377" y="-29"/>
      <point x="427" y="-25"/>
      <point x="456" y="-19" type="curve"/>
      <point x="444" y="39"/>
      <point x="436" y="155"/>
      <point x="436" y="277" type="curve" smooth="yes"/>
      <point x="436" y="374"/>
      <point x="441" y="435"/>
      <point x="455" y="541" type="curve"/>
      <point x="361" y="564" type="line"/>
      <point x="334" y="445"/>
      <point x="324" y="321"/>
      <point x="324" y="113" type="curve" smooth="yes"/>
      <point x="324" y="44"/>
      <point x="326" y="2"/>
      <point x="329" y="-29" type="curve"/>
    </contour>
    <contour>
      <point x="80" y="532"/>
      <point x="176" y="541"/>
      <point x="265" y="541" type="curve" smooth="yes"/>
      <point x="354" y="541"/>
      <point x="450" y="531"/>
      <point x="513" y="514" type="curve"/>
      <point x="517" y="528"/>
      <point x="520" y="549"/>
      <point x="520" y="572" type="curve" smooth="yes"/>
      <point x="520" y="592"/>
      <point x="517" y="608"/>
      <point x="513" y="618" type="curve"/>
      <point x="440" y="638"/>
      <point x="353" y="649"/>
      <point x="268" y="649" type="curve" smooth="yes"/>
      <point x="179" y="649"/>
      <point x="78" y="638"/>
      <point x="0" y="618" type="curve"/>
      <point x="-4" y="608"/>
      <point x="-8" y="592"/>
      <point x="-8" y="574" type="curve" smooth="yes"/>
      <point x="-8" y="554"/>
      <point x="-4" y="532"/>
      <point x="0" y="514" type="curve"/>
    </contour>
    <contour>
      <point x="374" y="-3" type="move" name="blwm"/>
    </contour>
    <contour>
      <point x="192" y="-13" type="move" name="nukt"/>
    </contour>
    <contour>
      <point x="383" y="690" type="move" name="reph"/>
    </contour>
    <contour>
      <point x="383" y="690" type="move" name="chandrabindu"/>
    </contour>
    <contour>
      <point x="279" y="0" type="move" name="haln"/>
    </contour>
  </outline>
</glyph>
<glyph name="bn_pa" format="1">
  <advance width="603"/>
  <unicode hex="09AA"/>
  <outline>
    <contour>
      <point x="467" y="485"/>
      <point x="388" y="641"/>
      <point x="241" y="641" type="curve" smooth="yes"/>
      <point x="150" y="641"/>
      <point x="65" y="581"/>
      <point x="8" y="502" type="curve"/>
      <point x="14" y="467"/>
      <point x="26" y="433"/>
      <point x="44" y="400" type="curve"/>
      <point x="95" y="395"/>
      <point x="153" y="371"/>
      <point x="153" y="325" type="curve" smooth="yes"/>
      <point x="153" y="309"/>
      <point x="146" y="292"/>
      <point x="130" y="280" type="curve"/>
      <point x="193" y="326" type="line"/>
      <point x="207" y="335"/>
      <point x="217" y="356"/>
      <point x="217" y="378" type="curve" smooth="yes"/>
      <point x="217" y="421"/>
      <point x="172" y="458"/>
      <point x="124" y="479" type="curve"/>
      <point x="117" y="432" type="line"/>
      <point x="164" y="498"/>
      <point x="205" y="530"/>
      <point x="259" y="530" type="curve" smooth="yes"/>
      <point x="339" y="530"/>
      <point x="423" y="460"/>
      <point x="423" y="328" type="curve"/>
      <point x="465" y="285" type="line"/>
    </contour>
    <contour>
      <point x="293" y="246"/>
      <point x="386" y="343"/>
      <point x="434" y="426" type="curve"/>
      <point x="383" y="524" type="line"/>
      <point x="306" y="421"/>
      <point x="201" y="332"/>
      <point x="115" y="269" type="curve"/>
      <point x="136" y="229"/>
      <point x="165" y="196"/>
      <point x="202" y="170" type="curve"/>
    </contour>
    <contour>
      <point x="469" y="-29"/>
      <point x="519" y="-25"/>
      <point x="548" y="-19" type="curve"/>
      <point x="536" y="39"/>
      <point x="528" y="152"/>
      <point x="528" y="282" type="curve" smooth="yes"/>
      <point x="528" y="342"/>
      <point x="530" y="393"/>
      <point x="537" y="455" type="curve" smooth="yes"/>
      <point x="539" y="479"/>
      <point x="546" y="495"/>
      <point x="567" y="503" type="curve" smooth="yes"/>
      <point x="584" y="509"/>
      <point x="581" y="508"/>
      <point x="602" y="514" type="curve"/>
      <point x="607" y="528"/>
      <point x="611" y="550"/>
      <point x="611" y="571" type="curve" smooth="yes"/>
      <point x="611" y="590"/>
      <point x="608" y="608"/>
      <point x="602" y="618" type="curve"/>
      <point x="564" y="611"/>
      <point x="518" y="598"/>
      <point x="495" y="588" type="curve" smooth="yes"/>
      <point x="466" y="575"/>
      <point x="452" y="552"/>
      <point x="444" y="514" type="curve" smooth="yes"/>
      <point x="440" y="495"/>
      <point x="437" y="473"/>
      <point x="435" y="460" type="curve"/>
      <point x="431" y="438" type="line"/>
      <point x="420" y="350"/>
      <point x="416" y="244"/>
      <point x="416" y="120" type="curve" smooth="yes"/>
      <point x="416" y="41"/>
      <point x="418" y="2"/>
      <point x="421" y="-29" type="curve"/>
    </contour>
    <contour>
      <point x="463" y="-6" type="move" name="blwm"/>
    </contour>
    <contour>
      <point x="238" y="0" type="move" name="nukt"/>
    </contour>
    <contour>
      <point x="499" y="690" type="move" name="reph"/>
    </contour>
    <contour>
      <point x="499" y="690" type="move" name="chandrabindu"/>
    </contour>
    <contour>
      <point x="339" y="0" type="move" name="haln"/>
    </contour>
  </outline>
</glyph>
<glyph name="bn_bha" format="1">
  <advance width="630"/>
  <unicode hex="09AD"/>
  <outline>
    <contour>
      <point x="527" y="-31"/>
      <point x="608" y="65"/>
      <point x="608" y="207" type="curve" smooth="yes"/>
      <point x="608" y="263"/>
      <point x="596" y="321"/>
      <point x="576" y="368" type="curve"/>
      <point x="554" y="391"/>
      <point x="523" y="416"/>
      <point x="498" y="432" type="curve"/>
      <point x="434" y="367"/>
      <point x="379" y="319"/>
      <point x="336" y="319" type="curve" smooth="yes"/>
      <point x="313" y="319"/>
      <point x="298" y="331"/>
      <point x="298" y="351" type="curve" smooth="yes"/>
      <point x="298" y="383"/>
      <point x="345" y="416"/>
      <point x="400" y="427" type="curve"/>
      <point x="385" y="461"/>
      <point x="343" y="490"/>
      <point x="309" y="496" type="curve"/>
      <point x="265" y="479"/>
      <point x="218" y="436"/>
      <point x="218" y="369" type="curve" smooth="yes"/>
      <point x="218" y="287"/>
      <point x="288" y="224"/>
      <point x="368" y="224" type="curve" smooth="yes"/>
      <point x="435" y="224"/>
      <point x="493" y="269"/>
      <point x="544" y="337" type="curve"/>
      <point x="503" y="365" type="line"/>
      <point x="513" y="330"/>
      <point x="521" y="286"/>
      <point x="521" y="246" type="curve" smooth="yes"/>
      <point x="521" y="153"/>
      <point x="478" y="99"/>
      <point x="391" y="99" type="curve" smooth="yes"/>
      <point x="257" y="99"/>
      <point x="162" y="232"/>
      <point x="94" y="458" type="curve"/>
      <point x="65" y="448"/>
      <point x="37" y="435"/>
      <point x="10" y="419" type="curve"/>
      <point x="63" y="220"/>
      <point x="162" y="-31"/>
      <point x="387" y="-31" type="curve" smooth="yes"/>
    </contour>
    <contour>
      <point x="76" y="528"/>
      <point x="191" y="541"/>
      <point x="313" y="541" type="curve" smooth="yes"/>
      <point x="435" y="541"/>
      <point x="553" y="528"/>
      <point x="630" y="514" type="curve"/>
      <point x="636" y="528"/>
      <point x="639" y="550"/>
      <point x="639" y="572" type="curve" smooth="yes"/>
      <point x="639" y="590"/>
      <point x="637" y="608"/>
      <point x="630" y="618" type="curve"/>
      <point x="554" y="635"/>
      <point x="437" y="649"/>
      <point x="313" y="649" type="curve" smooth="yes"/>
      <point x="190" y="649"/>
      <point x="74" y="635"/>
      <point x="0" y="618" type="curve"/>
      <point x="-5" y="608"/>
      <point x="-8" y="591"/>
      <point x="-8" y="572" type="curve" smooth="yes"/>
      <point x="-8" y="550"/>
      <point x="-4" y="527"/>
      <point x="0" y="514" type="curve"/>
    </contour>
    <contour>
      <point x="386" y="-13" type="move" name="blwm"/>
    </contour>
    <contour>
      <point x="370" y="-120" type="move" name="nukt"/>
    </contour>
    <contour>
      <point x="317" y="690" type="move" name="reph"/>
    </contour>
    <contour>
      <point x="317" y="690" type="move" name="chandrabindu"/>
    </contour>
    <contour>
      <point x="250" y="0" type="move" name="haln"/>
    </contour>
  </outline>
</glyph>
<glyph name="bn_ma" format="1">
  <advance width="535"/>
  <unicode hex="09AE"/>
  <outline>
    <contour>
      <point x="288" y="186"/>
      <point x="307" y="217"/>
      <point x="307" y="262" type="curve" smooth="yes"/>
      <point x="307" y="381"/>
      <point x="184" y="407"/>
      <point x="184" y="494" type="curve" smooth="yes"/>
      <point x="184" y="513"/>
      <point x="190" y="532"/>
      <point x="203" y="550" type="curve"/>
      <point x="65" y="543" type="line"/>
      <point x="53" y="528"/>
      <point x="45" y="506"/>
      <point x="45" y="485" type="curve" smooth="yes"/>
      <point x="45" y="387"/>
      <point x="211" y="398"/>
      <point x="211" y="312" type="curve" smooth="yes"/>
      <point x="211" y="292"/>
      <point x="200" y="279"/>
      <point x="192" y="274" type="curve"/>
      <point x="263" y="167" type="line"/>
    </contour>
    <contour>
      <point x="216" y="78"/>
      <point x="260" y="121"/>
      <point x="276" y="185" type="curve"/>
      <point x="212" y="265" type="line"/>
      <point x="209" y="216"/>
      <point x="186" y="193"/>
      <point x="148" y="193" type="curve" smooth="yes"/>
      <point x="118" y="193"/>
      <point x="97" y="210"/>
      <point x="97" y="235" type="curve" smooth="yes"/>
      <point x="97" y="258"/>
      <point x="113" y="274"/>
      <point x="136" y="274" type="curve" smooth="yes"/>
      <point x="167" y="274"/>
      <point x="203" y="244"/>
      <point x="217" y="188" type="curve"/>
      <point x="248" y="264" type="line"/>
      <point x="228" y="311"/>
      <point x="186" y="338"/>
      <point x="139" y="338" type="curve" smooth="yes"/>
      <point x="74" y="338"/>
      <point x="26" y="286"/>
      <point x="26" y="212" type="curve" smooth="yes"/>
      <point x="26" y="132"/>
      <point x="80" y="78"/>
      <point x="152" y="78" type="curve" smooth="yes"/>
    </contour>
    <contour>
      <point x="393" y="1" type="line"/>
      <point x="372" y="95"/>
      <point x="302" y="209"/>
      <point x="243" y="246" type="curve"/>
      <point x="184" y="180" type="line"/>
      <point x="261" y="136"/>
      <point x="328" y="61"/>
      <point x="369" y="-30" type="curve"/>
    </contour>
    <contour>
      <point x="410" y="-31"/>
      <point x="454" y="-21"/>
      <point x="496" y="4" type="curve"/>
      <point x="468" y="77"/>
      <point x="459" y="186"/>
      <point x="459" y="300" type="curve" smooth="yes"/>
      <point x="459" y="386"/>
      <point x="463" y="466"/>
      <point x="472" y="547" type="curve"/>
      <point x="376" y="564" type="line"/>
      <point x="352" y="403"/>
      <point x="349" y="310"/>
      <point x="349" y="149" type="curve" smooth="yes"/>
      <point x="349" y="62"/>
      <point x="349" y="14"/>
      <point x="369" y="-31" type="curve"/>
    </contour>
    <contour>
      <point x="67" y="528"/>
      <point x="171" y="541"/>
      <point x="271" y="541" type="curve" smooth="yes"/>
      <point x="370" y="541"/>
      <point x="473" y="528"/>
      <point x="535" y="514" type="curve"/>
      <point x="542" y="541"/>
      <point x="546" y="590"/>
      <point x="535" y="618" type="curve"/>
      <point x="479" y="635"/>
      <point x="377" y="649"/>
      <point x="274" y="649" type="curve" smooth="yes"/>
      <point x="174" y="649"/>
      <point x="72" y="636"/>
      <point x="0" y="618" type="curve"/>
      <point x="-12" y="596"/>
      <point x="-8" y="542"/>
      <point x="0" y="514" type="curve"/>
    </contour>
    <contour>
      <point x="409" y="6" type="move" name="blwm"/>
    </contour>
    <contour>
      <point x="220" y="0" type="move" name="nukt"/>
    </contour>
    <contour>
      <point x="428" y="690" type="move" name="reph"/>
    </contour>
    <contour>
      <point x="428" y="690" type="move" name="chandrabindu"/>
    </contour>
    <contour>
      <point x="304" y="0" type="move" name="haln"/>
    </contour>
  </outline>
</glyph>
<glyph name="bn_avagraha" format="1">
  <advance width="484"/>
  <unicode hex="09BD"/>
  <outline>
    <contour>
      <point x="456" y="-33"/>
      <point x="479" y="-8"/>
      <point x="497" y="16" type="curve"/>
      <point x="390" y="109"/>
      <point x="292" y="181"/>
      <point x="192" y="233" type="curve"/>
      <point x="149" y="190" type="line"/>
      <point x="175" y="186"/>
      <point x="201" y="184"/>
      <point x="224" y="184" type="curve" smooth="yes"/>
      <point x="340" y="184"/>
      <point x="422" y="234"/>
      <point x="422" y="336" type="curve" smooth="yes"/>
      <point x="422" y="457"/>
      <point x="308" y="582"/>
      <point x="182" y="582" type="curve" smooth="yes"/>
      <point x="121" y="582"/>
      <point x="68" y="553"/>
      <point x="68" y="487" type="curve" smooth="yes"/>
      <point x="68" y="402"/>
      <point x="148" y="364"/>
      <point x="222" y="364" type="curve" smooth="yes"/>
      <point x="294" y="364"/>
      <point x="333" y="405"/>
      <point x="340" y="478" type="curve"/>
      <point x="272" y="485" type="line"/>
      <point x="263" y="452"/>
      <point x="239" y="427"/>
      <point x="201" y="427" type="curve" smooth="yes"/>
      <point x="168" y="427"/>
      <point x="148" y="445"/>
      <point x="148" y="469" type="curve" smooth="yes"/>
      <point x="148" y="490"/>
      <point x="165" y="505"/>
      <point x="200" y="505" type="curve" smooth="yes"/>
      <point x="265" y="505"/>
      <point x="318" y="443"/>
      <point x="318" y="378" type="curve" smooth="yes"/>
      <point x="318" y="326"/>
      <point x="282" y="297"/>
      <point x="205" y="297" type="curve" smooth="yes"/>
      <point x="151" y="297"/>
      <point x="87" y="310"/>
      <point x="23" y="337" type="curve"/>
      <point x="43" y="199" type="line"/>
      <point x="176" y="156"/>
      <point x="303" y="77"/>
      <point x="431" y="-55" type="curve"/>
    </contour>
    <contour>
      <point x="379" y="511"/>
      <point x="393" y="572"/>
      <point x="403" y="632" type="curve"/>
      <point x="380" y="646"/>
      <point x="342" y="657"/>
      <point x="310" y="660" type="curve"/>
      <point x="306" y="623"/>
      <point x="296" y="572"/>
      <point x="278" y="517" type="curve"/>
      <point x="353" y="445" type="line"/>
    </contour>
  </outline>
</glyph>
<glyph name="bn_aakaar" format="1">
  <advance width="265"/>
  <unicode hex="09BE"/>
  <outline>
    <contour>
      <point x="189" y="96"/>
      <point x="199" y="292"/>
      <point x="199" y="495" type="curve"/>
      <point x="117" y="484" type="line"/>
      <point x="88" y="480" type="line"/>
      <point x="86" y="253"/>
      <point x="72" y="92"/>
      <point x="43" y="-50" type="curve"/>
      <point x="72" y="-58"/>
      <point x="132" y="-64"/>
      <point x="178" y="-64" type="curve"/>
    </contour>
    <contour>
      <point x="161" y="521" type="line"/>
      <point x="133" y="568"/>
      <point x="61" y="604"/>
      <point x="0" y="618" type="curve"/>
      <point x="-11" y="600"/>
      <point x="-9" y="539"/>
      <point x="0" y="514" type="curve"/>
      <point x="74" y="501"/>
      <point x="87" y="440"/>
      <point x="87" y="398" type="curve"/>
    </contour>
    <contour>
      <point x="194" y="479"/>
      <point x="220" y="504"/>
      <point x="265" y="514" type="curve"/>
      <point x="274" y="544"/>
      <point x="278" y="598"/>
      <point x="265" y="618" type="curve"/>
      <point x="191" y="603"/>
      <point x="121" y="566"/>
      <point x="94" y="502" type="curve"/>
      <point x="183" y="450" type="line"/>
    </contour>
  </outline>
</glyph>
<glyph name="bn_ikaar" format="1">
  <advance width="265"/>
  <unicode hex="09BF"/>
  <outline>
    <contour>
      <point x="143" y="-62"/>
      <point x="204" y="-55"/>
      <point x="233" y="-46" type="curve"/>
      <point x="203" y="114"/>
      <point x="189" y="275"/>
      <point x="196" y="499" type="curve"/>
      <point x="171" y="558" type="line"/>
      <point x="156" y="599"/>
      <point x="140" y="638"/>
      <point x="140" y="690" type="curve" smooth="yes"/>
      <point x="140" y="765"/>
      <point x="182" y="801"/>
      <point x="274" y="801" type="curve" smooth="yes"/>
      <point x="395" y="801"/>
      <point x="503" y="770"/>
      <point x="670" y="693" type="curve"/>
      <point x="689" y="717"/>
      <point x="703" y="740"/>
      <point x="711" y="769" type="curve"/>
      <point x="571" y="835"/>
      <point x="384" y="901"/>
      <point x="233" y="901" type="curve" smooth="yes"/>
      <point x="99" y="901"/>
      <point x="30" y="834"/>
      <point x="30" y="739" type="curve" smooth="yes"/>
      <point x="30" y="654"/>
      <point x="83" y="593"/>
      <point x="140" y="530" type="curve"/>
      <point x="118" y="484" type="line"/>
      <point x="83" y="485" type="line"/>
      <point x="78" y="323"/>
      <point x="84" y="90"/>
      <point x="99" y="-62" type="curve"/>
    </contour>
    <contour>
      <point x="157" y="521" type="line"/>
      <point x="129" y="568"/>
      <point x="59" y="604"/>
      <point x="0" y="618" type="curve"/>
      <point x="-11" y="600"/>
      <point x="-9" y="539"/>
      <point x="0" y="514" type="curve"/>
      <point x="69" y="502"/>
      <point x="82" y="440"/>
      <point x="82" y="399" type="curve"/>
    </contour>
    <contour>
      <point x="192" y="479"/>
      <point x="218" y="504"/>
      <point x="265" y="514" type="curve"/>
      <point x="274" y="544"/>
      <point x="278" y="598"/>
      <point x="265" y="618" type="curve"/>
      <point x="190" y="603"/>
      <point x="119" y="566"/>
      <point x="91" y="502" type="curve"/>
      <point x="180" y="450" type="line"/>
    </contour>
  </outline>
</glyph>
<glyph name="bn_ekaar" format="1">
  <advance width="316"/>
  <unicode hex="09C7"/>
  <outline>
    <contour>
      <point x="302" y="-79"/>
      <point x="343" y="-54"/>
      <point x="379" y="-4" type="curve"/>
      <point x="379" y="28"/>
      <point x="340" y="85"/>
      <point x="304" y="105" type="curve"/>
      <point x="267" y="27"/>
      <point x="250" y="3"/>
      <point x="225" y="3" type="curve" smooth="yes"/>
      <point x="189" y="3"/>
      <point x="174" y="66"/>
      <point x="174" y="214" type="curve" smooth="yes"/>
      <point x="174" y="419"/>
      <point x="212" y="498"/>
      <point x="316" y="514" type="curve"/>
      <point x="321" y="527"/>
      <point x="324" y="549"/>
      <point x="324" y="572" type="curve" smooth="yes"/>
      <point x="324" y="591"/>
      <point x="321" y="607"/>
      <point x="316" y="618" type="curve"/>
      <point x="234" y="603"/>
      <point x="179" y="579"/>
      <point x="147" y="545" type="curve"/>
      <point x="130" y="536" type="line"/>
      <point x="80" y="459"/>
      <point x="57" y="358"/>
      <point x="57" y="229" type="curve" smooth="yes"/>
      <point x="57" y="41"/>
      <point x="133" y="-79"/>
      <point x="250" y="-79" type="curve" smooth="yes"/>
    </contour>
    <contour>
      <point x="194" y="523" type="line"/>
      <point x="165" y="565"/>
      <point x="97" y="598"/>
      <point x="0" y="618" type="curve"/>
      <point x="-5" y="606"/>
      <point x="-7" y="589"/>
      <point x="-7" y="569" type="curve" smooth="yes"/>
      <point x="-7" y="549"/>
      <point x="-4" y="527"/>
      <point x="0" y="514" type="curve"/>
      <point x="63" y="502"/>
      <point x="112" y="474"/>
      <point x="112" y="449" type="curve"/>
    </contour>
  </outline>
</glyph>
<glyph name="bn_aumark" format="1">
  <advance width="265"/>
  <unicode hex="09D7"/>
  <outline>
    <contour>
      <point x="186" y="544"/>
      <point x="218" y="581"/>
      <point x="218" y="649" type="curve" smooth="yes"/>
      <point x="218" y="712"/>
      <point x="183" y="759"/>
      <point x="111" y="806" type="curve" smooth="yes"/>
      <point x="57" y="842"/>
      <point x="20" y="865"/>
      <point x="20" y="926" type="curve" smooth="yes"/>
      <point x="20" y="940"/>
      <point x="22" y="955"/>
      <point x="25" y="973" type="curve"/>
      <point x="0" y="974"/>
      <point x="-34" y="973"/>
      <point x="-66" y="963" type="curve"/>
      <point x="-70" y="941"/>
      <point x="-72" y="921"/>
      <point x="-72" y="904" type="curve" smooth="yes"/>
      <point x="-72" y="818"/>
      <point x="-24" y="786"/>
      <point x="57" y="728" type="curve" smooth="yes"/>
      <point x="124" y="681"/>
      <point x="156" y="658"/>
      <point x="156" y="621" type="curve" smooth="yes"/>
      <point x="156" y="582"/>
      <point x="136" y="555"/>
      <point x="108" y="536" type="curve"/>
      <point x="136" y="502" type="line"/>
    </contour>
    <contour>
      <point x="191" y="100"/>
      <point x="199" y="294"/>
      <point x="199" y="495" type="curve"/>
      <point x="117" y="484" type="line"/>
      <point x="88" y="480" type="line"/>
      <point x="87" y="253"/>
      <point x="74" y="93"/>
      <point x="52" y="-49" type="curve"/>
      <point x="80" y="-54"/>
      <point x="139" y="-58"/>
      <point x="184" y="-58" type="curve"/>
    </contour>
    <contour>
      <point x="161" y="521" type="line"/>
      <point x="133" y="568"/>
      <point x="61" y="604"/>
      <point x="0" y="618" type="curve"/>
      <point x="-5" y="609"/>
      <point x="-8" y="591"/>
      <point x="-8" y="572" type="curve" smooth="yes"/>
      <point x="-8" y="551"/>
      <point x="-4" y="527"/>
      <point x="0" y="514" type="curve"/>
      <point x="74" y="501"/>
      <point x="87" y="440"/>
      <point x="87" y="398" type="curve"/>
    </contour>
    <contour>
      <point x="194" y="479"/>
      <point x="220" y="504"/>
      <point x="265" y="514" type="curve"/>
      <point x="270" y="530"/>
      <point x="273" y="553"/>
      <point x="273" y="575" type="curve" smooth="yes"/>
      <point x="273" y="593"/>
      <point x="271" y="609"/>
      <point x="265" y="618" type="curve"/>
      <point x="191" y="603"/>
      <point x="121" y="566"/>
      <point x="94" y="502" type="curve"/>
      <point x="183" y="450" type="line"/>
    </contour>
  </outline>
</glyph>
<glyph name="bn_rha" format="1">
  <advance width="503"/>
  <unicode hex="09DD"/>
  <outline>
    <contour>
      <point x="264" y="-206"/>
      <point x="300" y="-175"/>
      <point x="300" y="-132" type="curve" smooth="yes"/>
      <point x="300" y="-94"/>
      <point x="270" y="-67"/>
      <point x="232" y="-67" type="curve" smooth="yes"/>
      <point x="192" y="-67"/>
      <point x="157" y="-97"/>
      <point x="157" y="-142" type="curve" smooth="yes"/>
      <point x="157" y="-179"/>
      <point x="186" y="-206"/>
      <point x="224" y="-206" type="curve" smooth="yes"/>
    </contour>
    <component base="bn_ddha"/>
    <contour>
      <point x="100" y="-185" type="move" name="haln"/>
    </contour>
    <contour>
      <point x="260" y="690" type="move" name="reph"/>
    </contour>
    <contour>
      <point x="260" y="690" type="move" name="chandrabindu"/>
    </contour>
  </outline>
</glyph>
<glyph name="bn_rri" format="1">
  <advance width="749"/>
  <unicode hex="09E0"/>
  <outline>
    <component base="bn_ri"/>
    <component base="bn_rikaar" xOffset="256" yOffset="153"/>
    <contour>
      <point x="635" y="690" type="move" name="chandrabindu"/>
    </contour>
    <contour>
      <point x="635" y="690" type="move" name="reph"/>
    </contour>
    <contour>
      <point x="647" y="7" type="move" name="blwm"/>
    </contour>
    <contour>
      <point x="468" y="1" type="move" name="haln"/>
    </contour>
  </outline>
</glyph>
<glyph name="bn_one" format="1">
  <advance width="550"/>
  <unicode hex="09E7"/>
  <outline>
    <contour>
      <point x="400" y="-33"/>
      <point x="490" y="79"/>
      <point x="490" y="211" type="curve" smooth="yes"/>
      <point x="490" y="446"/>
      <point x="205" y="438"/>
      <point x="179" y="596" type="curve"/>
      <point x="138" y="576"/>
      <point x="100" y="550"/>
      <point x="64" y="520" type="curve"/>
      <point x="95" y="313"/>
      <point x="406" y="384"/>
      <point x="406" y="207" type="curve" smooth="yes"/>
      <point x="406" y="131"/>
      <point x="348" y="73"/>
      <point x="270" y="73" type="curve" smooth="yes"/>
      <point x="218" y="73"/>
      <point x="188" y="99"/>
      <point x="188" y="135" type="curve" smooth="yes"/>
      <point x="188" y="163"/>
      <point x="206" y="185"/>
      <point x="233" y="185" type="curve" smooth="yes"/>
      <point x="256" y="185"/>
      <point x="276" y="169"/>
      <point x="285" y="131" type="curve"/>
      <point x="313" y="146"/>
      <point x="343" y="174"/>
      <point x="359" y="200" type="curve"/>
      <point x="336" y="252"/>
      <point x="297" y="286"/>
      <point x="243" y="286" type="curve" smooth="yes"/>
      <point x="161" y="286"/>
      <point x="110" y="211"/>
      <point x="110" y="132" type="curve" smooth="yes"/>
      <point x="110" y="40"/>
      <point x="178" y="-33"/>
      <point x="277" y="-33" type="curve" smooth="yes"/>
    </contour>
  </outline>
</glyph>
<glyph name="bn_three" format="1">
  <advance width="550"/>
  <unicode hex="09E9"/>
  <outline>
    <contour>
      <point x="457" y="-33"/>
      <point x="519" y="75"/>
      <point x="519" y="239" type="curve" smooth="yes"/>
      <point x="519" y="441"/>
      <point x="430" y="591"/>
      <point x="331" y="591" type="curve" smooth="yes"/>
      <point x="259" y="591"/>
      <point x="213" y="520"/>
      <point x="213" y="420" type="curve" smooth="yes"/>
      <point x="213" y="362"/>
      <point x="228" y="302"/>
      <point x="255" y="257" type="curve"/>
      <point x="294" y="255"/>
      <point x="345" y="260"/>
      <point x="370" y="273" type="curve"/>
      <point x="344" y="307"/>
      <point x="326" y="359"/>
      <point x="326" y="416" type="curve" smooth="yes"/>
      <point x="326" y="457"/>
      <point x="338" y="484"/>
      <point x="360" y="484" type="curve" smooth="yes"/>
      <point x="394" y="484"/>
      <point x="431" y="412"/>
      <point x="431" y="276" type="curve" smooth="yes"/>
      <point x="431" y="160"/>
      <point x="402" y="102"/>
      <point x="343" y="102" type="curve" smooth="yes"/>
      <point x="237" y="102"/>
      <point x="144" y="299"/>
      <point x="103" y="535" type="curve"/>
      <point x="71" y="532"/>
      <point x="44" y="525"/>
      <point x="19" y="512" type="curve"/>
      <point x="64" y="265"/>
      <point x="150" y="-33"/>
      <point x="349" y="-33" type="curve" smooth="yes"/>
    </contour>
  </outline>
</glyph>
<glyph name="bn_currency1" format="1">
  <advance width="567"/>
  <unicode hex="09F4"/>
  <outline>
    <contour>
      <point x="141" y="-40" type="line"/>
      <point x="343" y="121"/>
      <point x="482" y="324"/>
      <point x="558" y="566" type="curve"/>
      <point x="532" y="577"/>
      <point x="503" y="585"/>
      <point x="475" y="591" type="curve"/>
      <point x="372" y="341"/>
      <point x="229" y="173"/>
      <point x="54" y="87" type="curve"/>
    </contour>
  </outline>
</glyph>
<glyph name="bn_currency16" format="1">
  <advance width="517"/>
  <unicode hex="09F9"/>
  <outline>
    <contour>
      <point x="378" y="163"/>
      <point x="444" y="298"/>
      <point x="444" y="409" type="curve" smooth="yes"/>
      <point x="444" y="526"/>
      <point x="383" y="592"/>
      <point x="270" y="592" type="curve" smooth="yes"/>
      <point x="124" y="592"/>
      <point x="58" y="457"/>
      <point x="58" y="347" type="curve" smooth="yes"/>
      <point x="58" y="230"/>
      <point x="120" y="163"/>
      <point x="233" y="163" type="curve" smooth="yes"/>
    </contour>
    <contour>
      <point x="176" y="258"/>
      <point x="134" y="289"/>
      <point x="134" y="358" type="curve" smooth="yes"/>
      <point x="134" y="438"/>
      <point x="188" y="497"/>
      <point x="267" y="497" type="curve" smooth="yes"/>
      <point x="326" y="497"/>
      <point x="368" y="465"/>
      <point x="368" y="397" type="curve" smooth="yes"/>
      <point x="368" y="317"/>
      <point x="314" y="258"/>
      <point x="235" y="258" type="curve" smooth="yes"/>
    </contour>
  </outline>
</glyph>
<glyph name="emdash" format="1">
  <advance width="866"/>
  <unicode hex="2014"/>
  <outline>
    <contour>
      <point x="32" y="299"/>
      <point x="29" y="269"/>
      <point x="26" y="234" type="curve"/>
      <point x="232" y="192"/>
      <point x="575" y="184"/>
      <point x="827" y="227" type="curve"/>
      <point x="835" y="258"/>
      <point x="840" y="292"/>
      <point x="840" y="324" type="curve"/>
      <point x="759" y="315"/>
      <point x="628" y="304"/>
      <point x="482" y="304" type="curve" smooth="yes"/>
      <point x="251" y="304"/>
      <point x="136" y="316"/>
      <point x="36" y="332" type="curve"/>
    </contour>
  </outline>
</glyph>
<glyph name="quoteleft" format="1">
  <advance width="207"/>
  <unicode hex="2018"/>
  <outline>
    <contour>
      <point x="16" y="726" type="curve"/>
      <point x="17" y="644"/>
      <point x="32" y="580"/>
      <point x="70" y="482" type="curve"/>
      <point x="108" y="483"/>
      <point x="143" y="487"/>
      <point x="172" y="494" type="curve"/>
      <point x="150" y="594"/>
      <point x="145" y="669"/>
      <point x="148" y="737" type="curve"/>
      <point x="107" y="741"/>
      <point x="58" y="737"/>
    </contour>
  </outline>
</glyph>
<glyph name="quotesinglbase" format="1">
  <advance width="204"/>
  <unicode hex="201A"/>
  <outline>
    <contour>
      <point x="179" y="103" type="curve"/>
      <point x="137" y="114"/>
      <point x="87" y="116"/>
      <point x="47" y="112" type="curve"/>
      <point x="51" y="47"/>
      <point x="44" y="-28"/>
      <point x="26" y="-126" type="curve"/>
      <point x="53" y="-133"/>
      <point x="89" y="-139"/>
      <point x="126" y="-140" type="curve"/>
      <point x="165" y="-34"/>
      <point x="178" y="23"/>
    </contour>
  </outline>
</glyph>
<glyph name="dagger" format="1">
  <advance width="493"/>
  <unicode hex="2020"/>
  <outline>
    <contour>
      <point x="297" y="721" type="curve"/>
      <point x="283" y="724"/>
      <point x="264" y="726"/>
      <point x="249" y="726" type="curve" smooth="yes"/>
      <point x="226" y="726"/>
      <point x="200" y="720"/>
      <point x="188" y="713" type="curve"/>
      <point x="193" y="642"/>
      <point x="200" y="582"/>
      <point x="210" y="501" type="curve"/>
      <point x="230" y="501"/>
      <point x="270" y="505"/>
      <point x="282" y="508" type="curve"/>
      <point x="292" y="599"/>
      <point x="296" y="663"/>
    </contour>
    <contour>
      <point x="36" y="559" type="curve"/>
      <point x="32" y="545"/>
      <point x="30" y="531"/>
      <point x="30" y="515" type="curve" smooth="yes"/>
      <point x="29" y="493"/>
      <point x="35" y="465"/>
      <point x="41" y="453" type="curve"/>
      <point x="111" y="464"/>
      <point x="164" y="470"/>
      <point x="252" y="469" type="curve"/>
      <point x="254" y="488"/>
      <point x="251" y="525"/>
      <point x="247" y="538" type="curve"/>
      <point x="162" y="550"/>
      <point x="89" y="560"/>
    </contour>
    <contour>
      <point x="452" y="448" type="curve"/>
      <point x="456" y="462"/>
      <point x="458" y="479"/>
      <point x="458" y="494" type="curve" smooth="yes"/>
      <point x="459" y="516"/>
      <point x="454" y="542"/>
      <point x="448" y="554" type="curve"/>
      <point x="379" y="548"/>
      <point x="318" y="544"/>
      <point x="239" y="538" type="curve"/>
      <point x="237" y="518"/>
      <point x="241" y="482"/>
      <point x="243" y="469" type="curve"/>
      <point x="333" y="457"/>
      <point x="396" y="450"/>
    </contour>
    <contour>
      <point x="211" y="-214" type="curve"/>
      <point x="228" y="-217"/>
      <point x="269" y="-216"/>
      <point x="289" y="-214" type="curve"/>
      <point x="288" y="89"/>
      <point x="305" y="266"/>
      <point x="281" y="515" type="curve"/>
      <point x="262" y="515"/>
      <point x="221" y="511"/>
      <point x="209" y="508" type="curve"/>
      <point x="193" y="300"/>
      <point x="199" y="73"/>
    </contour>
  </outline>
</glyph>
<glyph name="Euro" format="1">
  <advance width="575"/>
  <unicode hex="20AC"/>
  <outline>
    <contour>
      <point x="453" y="212" type="curve"/>
      <point x="440" y="112"/>
      <point x="407" y="57"/>
      <point x="355" y="57" type="curve" smooth="yes"/>
      <point x="287" y="57"/>
      <point x="260" y="163"/>
      <point x="260" y="278" type="curve" smooth="yes"/>
      <point x="260" y="459"/>
      <point x="308" y="574"/>
      <point x="360" y="574" type="curve" smooth="yes"/>
      <point x="399" y="574"/>
      <point x="422" y="535"/>
      <point x="417" y="422" type="curve"/>
      <point x="484" y="422"/>
      <point x="513" y="431"/>
      <point x="555" y="449" type="curve"/>
      <point x="552" y="594"/>
      <point x="491" y="668"/>
      <point x="387" y="668" type="curve" smooth="yes"/>
      <point x="212" y="668"/>
      <point x="98" y="487"/>
      <point x="98" y="261" type="curve" smooth="yes"/>
      <point x="98" y="55"/>
      <point x="192" y="-40"/>
      <point x="322" y="-40" type="curve" smooth="yes"/>
      <point x="433" y="-40"/>
      <point x="501" y="21"/>
      <point x="552" y="148" type="curve"/>
      <point x="530" y="180"/>
      <point x="494" y="206"/>
    </contour>
    <contour>
      <point x="375" y="330" type="curve"/>
      <point x="383" y="352"/>
      <point x="382" y="395"/>
      <point x="379" y="415" type="curve"/>
      <point x="233" y="397"/>
      <point x="138" y="397"/>
      <point x="10" y="408" type="curve"/>
      <point x="5" y="381"/>
      <point x="10" y="334"/>
      <point x="14" y="313" type="curve"/>
      <point x="116" y="301"/>
      <point x="216" y="305"/>
    </contour>
    <contour>
      <point x="378" y="187" type="curve"/>
      <point x="386" y="208"/>
      <point x="386" y="251"/>
      <point x="382" y="272" type="curve"/>
      <point x="237" y="249"/>
      <point x="144" y="250"/>
      <point x="17" y="261" type="curve"/>
      <point x="12" y="234"/>
      <point x="16" y="187"/>
      <point x="20" y="166" type="curve"/>
      <point x="122" y="154"/>
      <point x="220" y="158"/>
    </contour>
  </outline>
</glyph>
<glyph name="product" format="1">
  <advance width="617"/>
  <unicode hex="220F"/>
  <outline>
    <contour>
      <point x="210" y="708" type="curve"/>
      <point x="39" y="708" type="line"/>
      <point x="39" y="501"/>
      <point x="55" y="181"/>
      <point x="70" y="-36" type="curve"/>
      <point x="114" y="-37"/>
      <point x="175" y="-29"/>
      <point x="202" y="-21" type="curve"/>
      <point x="197" y="221"/>
      <point x="195" y="524"/>
    </contour>
    <contour>
      <point x="578" y="-35" type="curve"/>
      <point x="578" y="163"/>
      <point x="568" y="485"/>
      <point x="557" y="720" type="curve"/>
      <point x="409" y="715" type="line"/>
      <point x="424" y="540"/>
      <point x="433" y="194"/>
      <point x="429" y="-21" type="curve"/>
      <point x="458" y="-29"/>
      <point x="527" y="-35"/>
    </contour>
    <contour>
      <point x="555" y="602" type="curve"/>
      <point x="557" y="723" type="line"/>
      <point x="376" y="731"/>
      <point x="208" y="729"/>
      <point x="39" y="708" type="curve"/>
      <point x="47" y="595" type="line"/>
      <point x="220" y="613"/>
      <point x="382" y="610"/>
    </contour>
  </outline>
</glyph>
<glyph name="minus" format="1">
  <advance width="445"/>
  <unicode hex="2212"/>
  <outline>
    <contour>
      <point x="38" y="375" type="curve"/>
      <point x="33" y="342"/>
      <point x="31" y="316"/>
      <point x="31" y="282" type="curve"/>
      <point x="139" y="266"/>
      <point x="287" y="264"/>
      <point x="404" y="282" type="curve"/>
      <point x="412" y="311"/>
      <point x="417" y="342"/>
      <point x="417" y="374" type="curve"/>
      <point x="277" y="360"/>
      <point x="157" y="360"/>
    </contour>
  </outline>
</glyph>
<glyph name="radical" format="1">
  <advance width="533"/>
  <unicode hex="221A"/>
  <outline>
    <contour>
      <point x="306" y="-80" type="curve"/>
      <point x="429" y="175"/>
      <point x="513" y="437"/>
      <point x="551" y="737" type="curve"/>
      <point x="507" y="754"/>
      <point x="461" y="763"/>
      <point x="414" y="765" type="curve"/>
      <point x="385" y="478"/>
      <point x="341" y="281"/>
      <point x="261" y="69" type="curve"/>
      <point x="219" y="187"/>
      <point x="194" y="273"/>
      <point x="179" y="394" type="curve"/>
      <point x="119" y="391"/>
      <point x="83" y="380"/>
      <point x="37" y="360" type="curve"/>
      <point x="63" y="205"/>
      <point x="109" y="79"/>
      <point x="194" y="-96" type="curve"/>
      <point x="241" y="-96"/>
      <point x="274" y="-92"/>
    </contour>
  </outline>
</glyph>
<glyph name="infinity" format="1">
  <advance width="666"/>
  <unicode hex="221E"/>
  <outline>
    <contour>
      <point x="640" y="342" type="curve" smooth="yes"/>
      <point x="640" y="447"/>
      <point x="572" y="520"/>
      <point x="477" y="520" type="curve" smooth="yes"/>
      <point x="407" y="520"/>
      <point x="363" y="484"/>
      <point x="314" y="415" type="curve"/>
      <point x="381" y="327" type="line"/>
      <point x="416" y="381"/>
      <point x="446" y="422"/>
      <point x="490" y="422" type="curve" smooth="yes"/>
      <point x="533" y="423"/>
      <point x="558" y="391"/>
      <point x="558" y="344" type="curve" smooth="yes"/>
      <point x="558" y="298"/>
      <point x="536" y="269"/>
      <point x="500" y="269" type="curve" smooth="yes"/>
      <point x="457" y="269"/>
      <point x="425" y="314"/>
      <point x="378" y="380" type="curve" smooth="yes"/>
      <point x="305" y="470"/>
      <point x="252" y="515"/>
      <point x="180" y="515" type="curve" smooth="yes"/>
      <point x="90" y="515"/>
      <point x="25" y="442"/>
      <point x="25" y="340" type="curve" smooth="yes"/>
      <point x="25" y="238"/>
      <point x="87" y="163"/>
      <point x="183" y="163" type="curve" smooth="yes"/>
      <point x="259" y="163"/>
      <point x="309" y="203"/>
      <point x="352" y="278" type="curve"/>
      <point x="287" y="372" type="line"/>
      <point x="249" y="303"/>
      <point x="218" y="270"/>
      <point x="166" y="270" type="curve" smooth="yes"/>
      <point x="127" y="270"/>
      <point x="104" y="299"/>
      <point x="104" y="338" type="curve" smooth="yes"/>
      <point x="104" y="380"/>
      <point x="132" y="407"/>
      <point x="168" y="407" type="curve" smooth="yes"/>
      <point x="214" y="407"/>
      <point x="244" y="371"/>
      <point x="285" y="307" type="curve" smooth="yes"/>
      <point x="348" y="214"/>
      <point x="402" y="161"/>
      <point x="481" y="161" type="curve" smooth="yes"/>
      <point x="572" y="161"/>
      <point x="640" y="241"/>
    </contour>
  </outline>
</glyph>
<glyph name="lessequal" format="1">
  <advance width="444"/>
  <unicode hex="2264"/>
  <outline>
    <contour>
      <point x="30" y="44" type="curve"/>
      <point x="138" y="29"/>
      <point x="286" y="27"/>
      <point x="403" y="44" type="curve"/>
      <point x="411" y="73"/>
      <point x="415" y="104"/>
      <point x="415" y="136" type="curve"/>
      <point x="276" y="122"/>
      <point x="155" y="122"/>
      <point x="37" y="138" type="curve"/>
      <point x="32" y="104"/>
      <point x="30" y="78"/>
    </contour>
    <contour>
      <point x="80" y="340" type="line"/>
      <point x="178" y="413"/>
      <point x="286" y="473"/>
      <point x="414" y="527" type="curve"/>
      <point x="407" y="561"/>
      <point x="400" y="582"/>
      <point x="385" y="612" type="curve"/>
      <point x="268" y="567"/>
      <point x="118" y="486"/>
      <point x="29" y="418" type="curve"/>
      <point x="28" y="364" type="line"/>
      <point x="114" y="297"/>
      <point x="267" y="215"/>
      <point x="384" y="171" type="curve"/>
      <point x="399" y="199"/>
      <point x="407" y="222"/>
      <point x="413" y="255" type="curve"/>
      <point x="285" y="310"/>
      <point x="173" y="370"/>
      <point x="79" y="443" type="curve"/>
    </contour>
  </outline>
</glyph>
<glyph name="lozenge" format="1">
  <advance width="468"/>
  <unicode hex="25CA"/>
  <outline>
    <contour>
      <point x="261" y="3" type="line"/>
      <point x="328" y="89"/>
      <point x="398" y="214"/>
      <point x="454" y="361" type="curve"/>
      <point x="409" y="478"/>
      <point x="329" y="628"/>
      <point x="260" y="717" type="curve"/>
      <point x="207" y="718" type="line"/>
      <point x="131" y="622"/>
      <point x="81" y="533"/>
      <point x="13" y="361" type="curve"/>
      <point x="58" y="244"/>
      <point x="139" y="93"/>
      <point x="207" y="4" type="curve"/>
    </contour>
    <contour>
      <point x="234" y="129" type="curve"/>
      <point x="189" y="199"/>
      <point x="148" y="275"/>
      <point x="110" y="362" type="curve"/>
      <point x="148" y="448"/>
      <point x="188" y="525"/>
      <point x="233" y="592" type="curve"/>
      <point x="278" y="522"/>
      <point x="319" y="447"/>
      <point x="357" y="360" type="curve"/>
      <point x="320" y="274"/>
      <point x="279" y="197"/>
    </contour>
  </outline>
</glyph>
<glyph name="bn_aakaar.b" format="1">
  <advance width="265"/>
  <outline>
    <contour>
      <point x="189" y="96"/>
      <point x="199" y="292"/>
      <point x="199" y="495" type="curve"/>
      <point x="117" y="484" type="line"/>
      <point x="88" y="480" type="line"/>
      <point x="86" y="253"/>
      <point x="72" y="92"/>
      <point x="43" y="-50" type="curve"/>
      <point x="72" y="-58"/>
      <point x="132" y="-64"/>
      <point x="178" y="-64" type="curve"/>
    </contour>
    <contour>
      <point x="167" y="458" type="line"/>
      <point x="167" y="586"/>
      <point x="106" y="625"/>
      <point x="50" y="624" type="curve" smooth="yes"/>
      <point x="34" y="624"/>
      <point x="17" y="622"/>
      <point x="0" y="618" type="curve"/>
      <point x="-5" y="605"/>
      <point x="-7" y="588"/>
      <point x="-7" y="570" type="curve" smooth="yes"/>
      <point x="-7" y="549"/>
      <point x="-4" y="528"/>
      <point x="0" y="514" type="curve"/>
      <point x="15" y="518"/>
      <point x="27" y="519"/>
      <point x="35" y="519" type="curve" smooth="yes"/>
      <point x="73" y="519"/>
      <point x="87" y="481"/>
      <point x="87" y="401" type="curve"/>
    </contour>
    <contour>
      <point x="194" y="479"/>
      <point x="220" y="504"/>
      <point x="265" y="514" type="curve"/>
      <point x="274" y="544"/>
      <point x="278" y="598"/>
      <point x="265" y="618" type="curve"/>
      <point x="191" y="603"/>
      <point x="121" y="566"/>
      <point x="94" y="502" type="curve"/>
      <point x="183" y="450" type="line"/>
    </contour>
  </outline>
</glyph>
<glyph name="bn_aikaar.init" format="1">
  <advance width="334"/>
  <outline>
    <contour>
      <point x="334" y="618" type="line"/>
      <point x="319" y="715"/>
      <point x="274" y="802"/>
      <point x="188" y="802" type="curve" smooth="yes"/>
      <point x="147" y="802"/>
      <point x="102" y="783"/>
      <point x="69" y="783" type="curve" smooth="yes"/>
      <point x="25" y="783"/>
      <point x="0" y="813"/>
      <point x="-22" y="849" type="curve"/>
      <point x="-42" y="837"/>
      <point x="-72" y="817"/>
      <point x="-93" y="790" type="curve"/>
      <point x="-60" y="733"/>
      <point x="-13" y="684"/>
      <point x="59" y="684" type="curve" smooth="yes"/>
      <point x="103" y="684"/>
      <point x="146" y="703"/>
      <point x="185" y="703" type="curve" smooth="yes"/>
      <point x="248" y="703"/>
      <point x="262" y="648"/>
      <point x="273" y="592" type="curve"/>
    </contour>
    <component base="bn_ekaar.init"/>
  </outline>
</glyph>
<glyph name="bn_b_da" format="1">
  <advance width="704"/>
  <outline>
    <contour>
      <point x="87" y="531"/>
      <point x="206" y="545"/>
      <point x="347" y="545" type="curve" smooth="yes"/>
      <point x="485" y="545"/>
      <point x="618" y="532"/>
      <point x="704" y="514" type="curve"/>
      <point x="708" y="528"/>
      <point x="712" y="548"/>
      <point x="712" y="570" type="curve" smooth="yes"/>
      <point x="712" y="589"/>
      <point x="708" y="607"/>
      <point x="704" y="618" type="curve"/>
      <point x="625" y="639"/>
      <point x="491" y="653"/>
      <point x="350" y="653" type="curve" smooth="yes"/>
      <point x="209" y="653"/>
      <point x="84" y="639"/>
      <point x="0" y="618" type="curve"/>
      <point x="-5" y="610"/>
      <point x="-8" y="590"/>
      <point x="-8" y="571" type="curve" smooth="yes"/>
      <point x="-8" y="549"/>
      <point x="-4" y="527"/>
      <point x="0" y="514" type="curve"/>
    </contour>
    <contour>
      <point x="571" y="-55"/>
      <point x="622" y="-44"/>
      <point x="645" y="-31" type="curve"/>
      <point x="633" y="29"/>
      <point x="626" y="87"/>
      <point x="626" y="141" type="curve" smooth="yes"/>
      <point x="626" y="222"/>
      <point x="639" y="296"/>
      <point x="660" y="365" type="curve"/>
      <point x="632" y="405"/>
      <point x="607" y="435"/>
      <point x="568" y="451" type="curve"/>
      <point x="477" y="396"/>
      <point x="388" y="307"/>
      <point x="303" y="170" type="curve"/>
      <point x="402" y="217" type="line"/>
      <point x="418" y="309"/>
      <point x="428" y="416"/>
      <point x="428" y="506" type="curve" smooth="yes"/>
      <point x="428" y="525"/>
      <point x="427" y="545"/>
      <point x="426" y="563" type="curve"/>
      <point x="338" y="552" type="line"/>
      <point x="336" y="428"/>
      <point x="310" y="281"/>
      <point x="271" y="153" type="curve"/>
      <point x="296" y="133"/>
      <point x="336" y="107"/>
      <point x="369" y="103" type="curve"/>
      <point x="422" y="192"/>
      <point x="516" y="292"/>
      <point x="609" y="349" type="curve"/>
      <point x="568" y="354" type="line"/>
      <point x="542" y="282"/>
      <point x="527" y="190"/>
      <point x="527" y="99" type="curve" smooth="yes"/>
      <point x="527" y="46"/>
      <point x="533" y="-7"/>
      <point x="544" y="-57" type="curve"/>
    </contour>
    <contour>
      <point x="306" y="194" type="line"/>
      <point x="284" y="276"/>
      <point x="224" y="334"/>
      <point x="158" y="367" type="curve"/>
      <point x="128" y="310" type="line"/>
      <point x="188" y="359"/>
      <point x="294" y="409"/>
      <point x="374" y="443" type="curve"/>
      <point x="377" y="556" type="line"/>
      <point x="258" y="512"/>
      <point x="130" y="450"/>
      <point x="59" y="393" type="curve"/>
      <point x="61" y="355"/>
      <point x="73" y="324"/>
      <point x="99" y="289" type="curve"/>
      <point x="187" y="277"/>
      <point x="252" y="236"/>
      <point x="271" y="153" type="curve"/>
    </contour>
    <contour>
      <point x="583" y="-33" type="move" name="blwm"/>
    </contour>
    <contour>
      <point x="410" y="-33" type="move" name="haln"/>
    </contour>
    <contour>
      <point x="390" y="690" type="move" name="reph"/>
    </contour>
    <contour>
      <point x="390" y="690" type="move" name="chandrabindu"/>
    </contour>
  </outline>
</glyph>
<glyph name="bn_b_dha" format="1">
  <advance width="639"/>
  <outline>
    <contour>
      <point x="311" y="-73" type="line"/>
      <point x="288" y="11"/>
      <point x="232" y="76"/>
      <point x="167" y="109" type="curve"/>
      <point x="149" y="58" type="line"/>
      <point x="211" y="109"/>
      <point x="315" y="168"/>
      <point x="396" y="202" type="curve"/>
      <point x="398" y="315" type="line"/>
      <point x="279" y="271"/>
      <point x="153" y="200"/>
      <point x="80" y="141" type="curve"/>
      <point x="82" y="103"/>
      <point x="95" y="72"/>
      <point x="121" y="37" type="curve"/>
      <point x="187" y="19"/>
      <point x="241" y="-33"/>
      <point x="276" y="-114" type="curve"/>
    </contour>
    <contour>
      <point x="422" y="-37"/>
      <point x="441" y="175"/>
      <point x="441" y="308" type="curve" smooth="yes"/>
      <point x="441" y="437"/>
      <point x="424" y="535"/>
      <point x="413" y="568" type="curve"/>
      <point x="326" y="563" type="line"/>
      <point x="351" y="497"/>
      <point x="354" y="413"/>
      <point x="354" y="302" type="curve" smooth="yes"/>
      <point x="354" y="182"/>
      <point x="314" y="-23"/>
      <point x="276" y="-114" type="curve"/>
      <point x="303" y="-125"/>
      <point x="351" y="-135"/>
      <point x="390" y="-135" type="curve"/>
    </contour>
    <contour>
      <point x="79" y="530"/>
      <point x="187" y="545"/>
      <point x="314" y="545" type="curve" smooth="yes"/>
      <point x="440" y="545"/>
      <point x="560" y="530"/>
      <point x="639" y="514" type="curve"/>
      <point x="643" y="528"/>
      <point x="647" y="548"/>
      <point x="647" y="570" type="curve" smooth="yes"/>
      <point x="647" y="589"/>
      <point x="643" y="607"/>
      <point x="639" y="618" type="curve"/>
      <point x="566" y="637"/>
      <point x="445" y="653"/>
      <point x="317" y="653" type="curve" smooth="yes"/>
      <point x="189" y="653"/>
      <point x="77" y="637"/>
      <point x="0" y="618" type="curve"/>
      <point x="-5" y="610"/>
      <point x="-8" y="590"/>
      <point x="-8" y="571" type="curve" smooth="yes"/>
      <point x="-8" y="549"/>
      <point x="-4" y="527"/>
      <point x="0" y="514" type="curve"/>
    </contour>
    <contour>
      <point x="557" y="-124"/>
      <point x="597" y="-117"/>
      <point x="623" y="-103" type="curve"/>
      <point x="598" y="-20"/>
      <point x="586" y="63"/>
      <point x="586" y="160" type="curve" smooth="yes"/>
      <point x="586" y="199"/>
      <point x="589" y="239"/>
      <point x="594" y="281" type="curve"/>
      <point x="521" y="368" type="line"/>
      <point x="479" y="354"/>
      <point x="438" y="337"/>
      <point x="396" y="318" type="curve"/>
      <point x="394" y="202" type="line"/>
      <point x="441" y="224"/>
      <point x="489" y="243"/>
      <point x="532" y="256" type="curve"/>
      <point x="504" y="290" type="line"/>
      <point x="499" y="232"/>
      <point x="495" y="177"/>
      <point x="495" y="117" type="curve" smooth="yes"/>
      <point x="495" y="35"/>
      <point x="502" y="-47"/>
      <point x="516" y="-124" type="curve"/>
    </contour>
    <contour>
      <point x="287" y="243" type="line"/>
      <point x="246" y="276"/>
      <point x="192" y="295"/>
      <point x="144" y="319" type="curve"/>
      <point x="133" y="268" type="line"/>
      <point x="184" y="320"/>
      <point x="301" y="385"/>
      <point x="358" y="402" type="curve"/>
      <point x="372" y="525" type="line"/>
      <point x="264" y="489"/>
      <point x="116" y="405"/>
      <point x="60" y="353" type="curve"/>
      <point x="63" y="313"/>
      <point x="75" y="282"/>
      <point x="101" y="245" type="curve"/>
      <point x="145" y="235"/>
      <point x="191" y="225"/>
      <point x="229" y="203" type="curve"/>
    </contour>
    <contour>
      <point x="323" y="-116" type="move" name="blwm"/>
    </contour>
    <contour>
      <point x="210" y="-115" type="move" name="haln"/>
    </contour>
    <contour>
      <point x="396" y="750" type="move" name="reph"/>
    </contour>
    <contour>
      <point x="396" y="750" type="move" name="chandrabindu"/>
    </contour>
  </outline>
</glyph>
<glyph name="bn_ba_phala" format="1">
  <advance width="0"/>
  <outline>
    <contour>
      <point x="-24" y="-259" type="line"/>
      <point x="-52" y="-201"/>
      <point x="-140" y="-163"/>
      <point x="-217" y="-129" type="curve"/>
      <point x="-227" y="-167" type="line"/>
      <point x="-159" y="-121"/>
      <point x="-66" y="-79"/>
      <point x="23" y="-71" type="curve"/>
      <point x="-30" y="20" type="line"/>
      <point x="-139" y="-15"/>
      <point x="-232" y="-53"/>
      <point x="-299" y="-97" type="curve"/>
      <point x="-298" y="-137"/>
      <point x="-289" y="-170"/>
      <point x="-265" y="-208" type="curve"/>
      <point x="-183" y="-219"/>
      <point x="-92" y="-243"/>
      <point x="-50" y="-304" type="curve"/>
    </contour>
    <contour>
      <point x="-17" y="-307"/>
      <point x="27" y="-303"/>
      <point x="54" y="-293" type="curve"/>
      <point x="43" y="-258"/>
      <point x="38" y="-213"/>
      <point x="38" y="-160" type="curve" smooth="yes"/>
      <point x="38" y="-112"/>
      <point x="42" y="-71"/>
      <point x="56" y="7" type="curve"/>
      <point x="-30" y="20" type="line"/>
      <point x="-60" y="-82"/>
      <point x="-55" y="-167"/>
      <point x="-55" y="-249" type="curve" smooth="yes"/>
      <point x="-55" y="-274"/>
      <point x="-53" y="-291"/>
      <point x="-50" y="-304" type="curve"/>
    </contour>
    <contour>
      <point x="0" y="0" type="move" name="_blwm"/>
    </contour>
  </outline>
</glyph>
<glyph name="bn_bh_la" format="1">
  <advance width="555"/>
  <outline>
    <contour>
      <point x="269" y="542" type="curve" smooth="yes"/>
      <point x="372" y="542"/>
      <point x="499" y="528"/>
      <point x="555" y="514" type="curve"/>
      <point x="559" y="528"/>
      <point x="562" y="550"/>
      <point x="562" y="572" type="curve" smooth="yes"/>
      <point x="562" y="588"/>
      <point x="561" y="605"/>
      <point x="556" y="618" type="curve"/>
      <point x="505" y="636"/>
      <point x="376" y="650"/>
      <point x="273" y="650" type="curve" smooth="yes"/>
      <point x="170" y="650"/>
      <point x="64" y="636"/>
      <point x="0" y="618" type="curve"/>
      <point x="-5" y="608"/>
      <point x="-8" y="591"/>
      <point x="-8" y="574" type="curve" smooth="yes"/>
      <point x="-8" y="552"/>
      <point x="-4" y="530"/>
      <point x="0" y="514" type="curve"/>
      <point x="65" y="529"/>
      <point x="168" y="542"/>
    </contour>
    <contour>
      <point x="360" y="-123" type="curve"/>
      <point x="398" y="-123"/>
      <point x="445" y="-119"/>
      <point x="480" y="-107" type="curve"/>
      <point x="495" y="22"/>
      <point x="505" y="163"/>
      <point x="505" y="342" type="curve" smooth="yes"/>
      <point x="506" y="377"/>
      <point x="493" y="408"/>
      <point x="472" y="433" type="curve"/>
      <point x="447" y="456"/>
      <point x="412" y="482"/>
      <point x="385" y="497" type="curve"/>
      <point x="319" y="390"/>
      <point x="263" y="330"/>
      <point x="219" y="330" type="curve" smooth="yes"/>
      <point x="196" y="330"/>
      <point x="181" y="343"/>
      <point x="181" y="362" type="curve" smooth="yes"/>
      <point x="181" y="394"/>
      <point x="227" y="428"/>
      <point x="282" y="439" type="curve"/>
      <point x="268" y="473"/>
      <point x="226" y="501"/>
      <point x="191" y="508" type="curve"/>
      <point x="148" y="491"/>
      <point x="101" y="448"/>
      <point x="101" y="381" type="curve" smooth="yes"/>
      <point x="101" y="298"/>
      <point x="170" y="236"/>
      <point x="250" y="236" type="curve" smooth="yes"/>
      <point x="320" y="236"/>
      <point x="379" y="300"/>
      <point x="433" y="403" type="curve"/>
      <point x="375" y="394" type="line"/>
      <point x="400" y="375"/>
      <point x="403" y="354"/>
      <point x="403" y="322" type="curve" smooth="yes"/>
      <point x="403" y="225"/>
      <point x="379" y="14"/>
    </contour>
    <contour>
      <point x="192" y="-35" type="curve"/>
      <point x="178" y="-39"/>
      <point x="162" y="-41"/>
      <point x="147" y="-41" type="curve" smooth="yes"/>
      <point x="110" y="-41"/>
      <point x="77" y="-22"/>
      <point x="77" y="8" type="curve" smooth="yes"/>
      <point x="77" y="34"/>
      <point x="94" y="49"/>
      <point x="122" y="49" type="curve" smooth="yes"/>
      <point x="156" y="49"/>
      <point x="179" y="21"/>
      <point x="206" y="-18" type="curve"/>
      <point x="238" y="27" type="line"/>
      <point x="209" y="105"/>
      <point x="170" y="158"/>
      <point x="119" y="158" type="curve" smooth="yes"/>
      <point x="55" y="158"/>
      <point x="9" y="99"/>
      <point x="9" y="18" type="curve" smooth="yes"/>
      <point x="9" y="-69"/>
      <point x="69" y="-121"/>
      <point x="168" y="-127" type="curve"/>
      <point x="184" y="-104"/>
      <point x="192" y="-65"/>
    </contour>
    <contour>
      <point x="289" y="-18" type="curve"/>
      <point x="224" y="88" type="line"/>
      <point x="165" y="42" type="line"/>
      <point x="222" y="-41" type="line"/>
      <point x="251" y="-34"/>
      <point x="273" y="-26"/>
    </contour>
    <contour>
      <point x="389" y="4" type="line"/>
      <point x="367" y="110"/>
      <point x="328" y="159"/>
      <point x="271" y="159" type="curve" smooth="yes"/>
      <point x="233" y="159"/>
      <point x="204" y="120"/>
      <point x="199" y="57" type="curve"/>
      <point x="225" y="-1" type="line"/>
      <point x="283" y="-8" type="line"/>
      <point x="273" y="8"/>
      <point x="267" y="18"/>
      <point x="267" y="31" type="curve" smooth="yes"/>
      <point x="267" y="48"/>
      <point x="275" y="59"/>
      <point x="291" y="59" type="curve" smooth="yes"/>
      <point x="322" y="59"/>
      <point x="360" y="4"/>
      <point x="360" y="-123" type="curve"/>
    </contour>
    <contour>
      <point x="404" y="-105" type="move" name="blwm"/>
    </contour>
    <contour>
      <point x="265" y="-96" type="move" name="haln"/>
    </contour>
    <contour>
      <point x="462" y="690" type="move" name="reph"/>
    </contour>
    <contour>
      <point x="460" y="690" type="move" name="chandrabindu"/>
    </contour>
  </outline>
</glyph>
<glyph name="bn_bh_ra_ukaar" format="1">
  <advance width="762"/>
  <outline>
    <contour>
      <point x="483" y="-77" type="curve"/>
      <point x="497" y="43"/>
      <point x="505" y="175"/>
      <point x="505" y="342" type="curve" smooth="yes"/>
      <point x="506" y="377"/>
      <point x="493" y="408"/>
      <point x="472" y="433" type="curve"/>
      <point x="447" y="456"/>
      <point x="412" y="482"/>
      <point x="385" y="497" type="curve"/>
      <point x="319" y="390"/>
      <point x="263" y="330"/>
      <point x="219" y="330" type="curve" smooth="yes"/>
      <point x="196" y="330"/>
      <point x="181" y="343"/>
      <point x="181" y="362" type="curve" smooth="yes"/>
      <point x="181" y="394"/>
      <point x="227" y="428"/>
      <point x="282" y="439" type="curve"/>
      <point x="268" y="473"/>
      <point x="226" y="501"/>
      <point x="191" y="508" type="curve"/>
      <point x="148" y="491"/>
      <point x="101" y="448"/>
      <point x="101" y="381" type="curve" smooth="yes"/>
      <point x="101" y="298"/>
      <point x="170" y="236"/>
      <point x="250" y="236" type="curve" smooth="yes"/>
      <point x="320" y="236"/>
      <point x="379" y="300"/>
      <point x="433" y="403" type="curve"/>
      <point x="375" y="394" type="line"/>
      <point x="400" y="375"/>
      <point x="403" y="354"/>
      <point x="403" y="322" type="curve" smooth="yes"/>
      <point x="403" y="247"/>
      <point x="393" y="81"/>
      <point x="370" y="-22" type="curve"/>
      <point x="399" y="-55" type="line"/>
      <point x="374" y="49"/>
      <point x="348" y="96"/>
      <point x="293" y="96" type="curve" smooth="yes"/>
      <point x="252" y="96"/>
      <point x="197" y="71"/>
      <point x="163" y="71" type="curve" smooth="yes"/>
      <point x="139" y="71"/>
      <point x="121" y="84"/>
      <point x="121" y="117" type="curve" smooth="yes"/>
      <point x="121" y="142"/>
      <point x="131" y="175"/>
      <point x="147" y="204" type="curve"/>
      <point x="126" y="213"/>
      <point x="98" y="218"/>
      <point x="63" y="219" type="curve"/>
      <point x="43" y="176"/>
      <point x="26" y="124"/>
      <point x="26" y="76" type="curve" smooth="yes"/>
      <point x="26" y="-2"/>
      <point x="70" y="-54"/>
      <point x="141" y="-54" type="curve" smooth="yes"/>
      <point x="198" y="-54"/>
      <point x="260" y="-21"/>
      <point x="308" y="-21" type="curve" smooth="yes"/>
      <point x="359" y="-21"/>
      <point x="370" y="-59"/>
      <point x="388" y="-93" type="curve"/>
      <point x="418" y="-93"/>
      <point x="454" y="-87"/>
    </contour>
    <contour>
      <point x="740" y="292" type="curve" smooth="yes"/>
      <point x="740" y="407"/>
      <point x="685" y="471"/>
      <point x="618" y="471" type="curve" smooth="yes"/>
      <point x="583" y="471"/>
      <point x="558" y="453"/>
      <point x="546" y="432" type="curve"/>
      <point x="547" y="387"/>
      <point x="559" y="336"/>
      <point x="576" y="304" type="curve"/>
      <point x="588" y="332"/>
      <point x="609" y="362"/>
      <point x="631" y="362" type="curve" smooth="yes"/>
      <point x="651" y="362"/>
      <point x="664" y="345"/>
      <point x="664" y="312" type="curve" smooth="yes"/>
      <point x="664" y="269"/>
      <point x="639" y="234"/>
      <point x="601" y="234" type="curve" smooth="yes"/>
      <point x="559" y="234"/>
      <point x="502" y="276"/>
      <point x="495" y="363" type="curve"/>
      <point x="476" y="301" type="line"/>
      <point x="501" y="174"/>
      <point x="551" y="109"/>
      <point x="623" y="109" type="curve" smooth="yes"/>
      <point x="694" y="109"/>
      <point x="740" y="185"/>
    </contour>
    <contour>
      <point x="366" y="546" type="curve" smooth="yes"/>
      <point x="512" y="546"/>
      <point x="675" y="532"/>
      <point x="759" y="514" type="curve"/>
      <point x="763" y="527"/>
      <point x="767" y="551"/>
      <point x="767" y="570" type="curve" smooth="yes"/>
      <point x="767" y="588"/>
      <point x="764" y="607"/>
      <point x="759" y="618" type="curve"/>
      <point x="681" y="639"/>
      <point x="517" y="654"/>
      <point x="369" y="654" type="curve" smooth="yes"/>
      <point x="228" y="654"/>
      <point x="78" y="637"/>
      <point x="0" y="618" type="curve"/>
      <point x="-6" y="607"/>
      <point x="-8" y="587"/>
      <point x="-8" y="571" type="curve" smooth="yes"/>
      <point x="-8" y="551"/>
      <point x="-4" y="528"/>
      <point x="0" y="514" type="curve"/>
      <point x="81" y="531"/>
      <point x="226" y="546"/>
    </contour>
    <contour>
      <point x="422" y="-71" type="move" name="blwm"/>
    </contour>
    <contour>
      <point x="264" y="-71" type="move" name="haln"/>
    </contour>
    <contour>
      <point x="452" y="690" type="move" name="reph"/>
    </contour>
    <contour>
      <point x="452" y="690" type="move" name="chandrabindu"/>
    </contour>
  </outline>
</glyph>
<glyph name="bn_bha.half" format="1">
  <advance width="630"/>
  <outline>
    <contour>
      <point x="76" y="528"/>
      <point x="191" y="541"/>
      <point x="313" y="541" type="curve" smooth="yes"/>
      <point x="435" y="541"/>
      <point x="553" y="528"/>
      <point x="630" y="514" type="curve"/>
      <point x="636" y="528"/>
      <point x="639" y="550"/>
      <point x="639" y="572" type="curve" smooth="yes"/>
      <point x="639" y="590"/>
      <point x="637" y="608"/>
      <point x="630" y="618" type="curve"/>
      <point x="554" y="635"/>
      <point x="437" y="649"/>
      <point x="313" y="649" type="curve" smooth="yes"/>
      <point x="190" y="649"/>
      <point x="74" y="635"/>
      <point x="0" y="618" type="curve"/>
      <point x="-5" y="608"/>
      <point x="-8" y="591"/>
      <point x="-8" y="572" type="curve" smooth="yes"/>
      <point x="-8" y="550"/>
      <point x="-4" y="527"/>
      <point x="0" y="514" type="curve"/>
    </contour>
    <contour>
      <point x="527" y="138"/>
      <point x="608" y="208"/>
      <point x="608" y="311" type="curve" smooth="yes"/>
      <point x="608" y="351"/>
      <point x="596" y="393"/>
      <point x="576" y="427" type="curve"/>
      <point x="553" y="444"/>
      <point x="522" y="462"/>
      <point x="497" y="474" type="curve"/>
      <point x="432" y="427"/>
      <point x="377" y="393"/>
      <point x="334" y="393" type="curve" smooth="yes"/>
      <point x="312" y="393"/>
      <point x="298" y="401"/>
      <point x="298" y="415" type="curve" smooth="yes"/>
      <point x="298" y="439"/>
      <point x="345" y="462"/>
      <point x="400" y="471" type="curve"/>
      <point x="385" y="495"/>
      <point x="340" y="517"/>
      <point x="305" y="522" type="curve"/>
      <point x="262" y="510"/>
      <point x="218" y="477"/>
      <point x="218" y="428" type="curve" smooth="yes"/>
      <point x="218" y="366"/>
      <point x="289" y="319"/>
      <point x="370" y="319" type="curve" smooth="yes"/>
      <point x="438" y="319"/>
      <point x="497" y="350"/>
      <point x="549" y="400" type="curve"/>
      <point x="503" y="425" type="line"/>
      <point x="513" y="400"/>
      <point x="521" y="367"/>
      <point x="521" y="339" type="curve" smooth="yes"/>
      <point x="521" y="276"/>
      <point x="477" y="238"/>
      <point x="389" y="238" type="curve" smooth="yes"/>
      <point x="257" y="238"/>
      <point x="165" y="332"/>
      <point x="99" y="493" type="curve"/>
      <point x="68" y="485"/>
      <point x="38" y="476"/>
      <point x="10" y="464" type="curve"/>
      <point x="63" y="321"/>
      <point x="162" y="138"/>
      <point x="387" y="138" type="curve" smooth="yes"/>
    </contour>
  </outline>
</glyph>
<glyph name="bn_c_ch_ra" format="1">
  <advance width="859"/>
  <outline>
    <contour>
      <point x="419" y="323" type="curve" smooth="yes"/>
      <point x="419" y="382"/>
      <point x="389" y="411"/>
      <point x="334" y="435" type="curve" smooth="yes"/>
      <point x="274" y="462"/>
      <point x="215" y="498"/>
      <point x="201" y="571" type="curve"/>
      <point x="176" y="506" type="line"/>
      <point x="184" y="446"/>
      <point x="218" y="406"/>
      <point x="259" y="380" type="curve" smooth="yes"/>
      <point x="282" y="366"/>
      <point x="296" y="357"/>
      <point x="296" y="334" type="curve" smooth="yes"/>
      <point x="296" y="248"/>
      <point x="239" y="124"/>
      <point x="182" y="124" type="curve" smooth="yes"/>
      <point x="161" y="124"/>
      <point x="152" y="140"/>
      <point x="152" y="181" type="curve" smooth="yes"/>
      <point x="152" y="281"/>
      <point x="180" y="477"/>
      <point x="214" y="590" type="curve"/>
      <point x="105" y="622" type="line"/>
      <point x="79" y="526"/>
      <point x="51" y="328"/>
      <point x="51" y="218" type="curve" smooth="yes"/>
      <point x="51" y="102"/>
      <point x="123" y="50"/>
      <point x="198" y="50" type="curve" smooth="yes"/>
      <point x="320" y="50"/>
      <point x="419" y="187"/>
    </contour>
    <contour>
      <point x="478" y="552" type="curve" smooth="yes"/>
      <point x="638" y="552"/>
      <point x="776" y="529"/>
      <point x="858" y="514" type="curve"/>
      <point x="863" y="527"/>
      <point x="867" y="549"/>
      <point x="867" y="572" type="curve" smooth="yes"/>
      <point x="867" y="591"/>
      <point x="864" y="610"/>
      <point x="858" y="618" type="curve"/>
      <point x="780" y="635"/>
      <point x="639" y="660"/>
      <point x="477" y="660" type="curve" smooth="yes"/>
      <point x="274" y="660"/>
      <point x="97" y="640"/>
      <point x="0" y="618" type="curve"/>
      <point x="-5" y="610"/>
      <point x="-8" y="591"/>
      <point x="-8" y="572" type="curve" smooth="yes"/>
      <point x="-8" y="550"/>
      <point x="-4" y="528"/>
      <point x="0" y="514" type="curve"/>
      <point x="99" y="533"/>
      <point x="276" y="552"/>
    </contour>
    <contour>
      <point x="872" y="-89" type="curve"/>
      <point x="761" y="1"/>
      <point x="666" y="83"/>
      <point x="562" y="137" type="curve"/>
      <point x="597" y="74" type="line"/>
      <point x="729" y="74"/>
      <point x="830" y="132"/>
      <point x="830" y="254" type="curve" smooth="yes"/>
      <point x="830" y="347"/>
      <point x="773" y="427"/>
      <point x="708" y="475" type="curve"/>
      <point x="618" y="487"/>
      <point x="529" y="517"/>
      <point x="502" y="574" type="curve"/>
      <point x="490" y="518" type="line"/>
      <point x="506" y="469"/>
      <point x="551" y="431"/>
      <point x="618" y="420" type="curve"/>
      <point x="605" y="445" type="line"/>
      <point x="608" y="436"/>
      <point x="609" y="428"/>
      <point x="609" y="419" type="curve" smooth="yes"/>
      <point x="609" y="358"/>
      <point x="565" y="304"/>
      <point x="527" y="304" type="curve" smooth="yes"/>
      <point x="511" y="304"/>
      <point x="504" y="313"/>
      <point x="504" y="333" type="curve" smooth="yes"/>
      <point x="504" y="397"/>
      <point x="513" y="502"/>
      <point x="526" y="565" type="curve"/>
      <point x="413" y="584" type="line"/>
      <point x="402" y="512"/>
      <point x="395" y="413"/>
      <point x="395" y="358" type="curve" smooth="yes"/>
      <point x="395" y="282"/>
      <point x="462" y="237"/>
      <point x="526" y="237" type="curve" smooth="yes"/>
      <point x="633" y="237"/>
      <point x="713" y="330"/>
      <point x="713" y="435" type="curve"/>
      <point x="672" y="398" type="line"/>
      <point x="702" y="374"/>
      <point x="722" y="340"/>
      <point x="722" y="296" type="curve" smooth="yes"/>
      <point x="722" y="223"/>
      <point x="667" y="183"/>
      <point x="584" y="183" type="curve" smooth="yes"/>
      <point x="543" y="183"/>
      <point x="491" y="191"/>
      <point x="436" y="211" type="curve"/>
      <point x="450" y="90" type="line"/>
      <point x="573" y="41"/>
      <point x="685" y="-45"/>
      <point x="803" y="-160" type="curve"/>
      <point x="830" y="-139"/>
      <point x="853" y="-114"/>
    </contour>
    <contour>
      <point x="603" y="-250" type="curve"/>
      <point x="638" y="-251"/>
      <point x="684" y="-248"/>
      <point x="716" y="-233" type="curve"/>
      <point x="706" y="-174"/>
      <point x="704" y="-87"/>
      <point x="718" y="5" type="curve"/>
      <point x="630" y="9" type="line"/>
      <point x="614" y="-65"/>
      <point x="601" y="-149"/>
      <point x="600" y="-217" type="curve"/>
      <point x="623" y="-212" type="line"/>
      <point x="601" y="-108"/>
      <point x="547" y="-89"/>
      <point x="487" y="-89" type="curve" smooth="yes"/>
      <point x="455" y="-89"/>
      <point x="414" y="-98"/>
      <point x="388" y="-98" type="curve" smooth="yes"/>
      <point x="363" y="-98"/>
      <point x="344" y="-83"/>
      <point x="344" y="-56" type="curve" smooth="yes"/>
      <point x="344" y="-37"/>
      <point x="351" y="-16"/>
      <point x="357" y="0" type="curve"/>
      <point x="338" y="10"/>
      <point x="309" y="17"/>
      <point x="279" y="17" type="curve"/>
      <point x="263" y="-14"/>
      <point x="251" y="-51"/>
      <point x="251" y="-91" type="curve" smooth="yes"/>
      <point x="251" y="-160"/>
      <point x="302" y="-207"/>
      <point x="386" y="-207" type="curve" smooth="yes"/>
      <point x="426" y="-207"/>
      <point x="467" y="-198"/>
      <point x="506" y="-198" type="curve" smooth="yes"/>
      <point x="562" y="-198"/>
      <point x="589" y="-223"/>
    </contour>
    <contour>
      <point x="640" y="-228" type="move" name="blwm"/>
    </contour>
    <contour>
      <point x="516" y="-224" type="move" name="haln"/>
    </contour>
    <contour>
      <point x="656" y="690" type="move" name="reph"/>
    </contour>
    <contour>
      <point x="656" y="690" type="move" name="chandrabindu"/>
    </contour>
  </outline>
</glyph>
<glyph name="bn_ca.half" format="1">
  <advance width="475"/>
  <outline>
    <contour>
      <point x="337" y="138"/>
      <point x="441" y="248"/>
      <point x="441" y="357" type="curve" smooth="yes"/>
      <point x="441" y="405"/>
      <point x="409" y="429"/>
      <point x="351" y="448" type="curve" smooth="yes"/>
      <point x="288" y="469"/>
      <point x="227" y="498"/>
      <point x="211" y="558" type="curve"/>
      <point x="186" y="506" type="line"/>
      <point x="194" y="456"/>
      <point x="230" y="423"/>
      <point x="273" y="402" type="curve" smooth="yes"/>
      <point x="297" y="390"/>
      <point x="312" y="383"/>
      <point x="312" y="364" type="curve" smooth="yes"/>
      <point x="312" y="296"/>
      <point x="251" y="198"/>
      <point x="192" y="198" type="curve" smooth="yes"/>
      <point x="170" y="198"/>
      <point x="160" y="211"/>
      <point x="160" y="244" type="curve" smooth="yes"/>
      <point x="160" y="323"/>
      <point x="190" y="483"/>
      <point x="225" y="573" type="curve"/>
      <point x="110" y="598" type="line"/>
      <point x="83" y="521"/>
      <point x="53" y="362"/>
      <point x="53" y="273" type="curve" smooth="yes"/>
      <point x="53" y="178"/>
      <point x="130" y="138"/>
      <point x="208" y="138" type="curve" smooth="yes"/>
    </contour>
    <contour>
      <point x="57" y="527"/>
      <point x="154" y="538"/>
      <point x="239" y="538" type="curve" smooth="yes"/>
      <point x="325" y="538"/>
      <point x="420" y="527"/>
      <point x="475" y="514" type="curve"/>
      <point x="478" y="528"/>
      <point x="482" y="550"/>
      <point x="482" y="573" type="curve" smooth="yes"/>
      <point x="482" y="589"/>
      <point x="480" y="607"/>
      <point x="475" y="618" type="curve"/>
      <point x="427" y="633"/>
      <point x="322" y="646"/>
      <point x="237" y="646" type="curve" smooth="yes"/>
      <point x="151" y="646"/>
      <point x="52" y="634"/>
      <point x="0" y="618" type="curve"/>
      <point x="-4" y="607"/>
      <point x="-7" y="589"/>
      <point x="-7" y="572" type="curve" smooth="yes"/>
      <point x="-7" y="550"/>
      <point x="-4" y="528"/>
      <point x="0" y="514" type="curve"/>
    </contour>
  </outline>
</glyph>
<glyph name="bn_ch_ba" format="1">
  <advance width="532"/>
  <outline>
    <contour>
      <point x="57" y="529"/>
      <point x="169" y="542"/>
      <point x="272" y="542" type="curve" smooth="yes"/>
      <point x="374" y="542"/>
      <point x="478" y="529"/>
      <point x="532" y="514" type="curve"/>
      <point x="535" y="528"/>
      <point x="540" y="550"/>
      <point x="540" y="573" type="curve" smooth="yes"/>
      <point x="540" y="589"/>
      <point x="538" y="607"/>
      <point x="533" y="618" type="curve"/>
      <point x="485" y="636"/>
      <point x="376" y="650"/>
      <point x="273" y="650" type="curve" smooth="yes"/>
      <point x="169" y="650"/>
      <point x="52" y="636"/>
      <point x="0" y="618" type="curve"/>
      <point x="-4" y="607"/>
      <point x="-7" y="589"/>
      <point x="-7" y="572" type="curve" smooth="yes"/>
      <point x="-7" y="550"/>
      <point x="-4" y="528"/>
      <point x="0" y="514" type="curve"/>
    </contour>
    <contour>
      <point x="489" y="-139"/>
      <point x="512" y="-114"/>
      <point x="531" y="-89" type="curve"/>
      <point x="420" y="1"/>
      <point x="325" y="83"/>
      <point x="221" y="137" type="curve"/>
      <point x="256" y="74" type="line"/>
      <point x="388" y="74"/>
      <point x="489" y="132"/>
      <point x="489" y="254" type="curve" smooth="yes"/>
      <point x="489" y="347"/>
      <point x="432" y="427"/>
      <point x="367" y="475" type="curve"/>
      <point x="277" y="488"/>
      <point x="188" y="518"/>
      <point x="161" y="574" type="curve"/>
      <point x="149" y="518" type="line"/>
      <point x="165" y="469"/>
      <point x="210" y="431"/>
      <point x="277" y="420" type="curve"/>
      <point x="264" y="445" type="line"/>
      <point x="267" y="436"/>
      <point x="268" y="428"/>
      <point x="268" y="419" type="curve" smooth="yes"/>
      <point x="268" y="358"/>
      <point x="224" y="304"/>
      <point x="186" y="304" type="curve" smooth="yes"/>
      <point x="170" y="304"/>
      <point x="163" y="313"/>
      <point x="163" y="333" type="curve" smooth="yes"/>
      <point x="163" y="397"/>
      <point x="172" y="502"/>
      <point x="185" y="565" type="curve"/>
      <point x="72" y="584" type="line"/>
      <point x="61" y="512"/>
      <point x="54" y="413"/>
      <point x="54" y="358" type="curve" smooth="yes"/>
      <point x="54" y="282"/>
      <point x="121" y="237"/>
      <point x="185" y="237" type="curve" smooth="yes"/>
      <point x="292" y="237"/>
      <point x="372" y="330"/>
      <point x="372" y="435" type="curve"/>
      <point x="331" y="398" type="line"/>
      <point x="361" y="374"/>
      <point x="381" y="340"/>
      <point x="381" y="296" type="curve" smooth="yes"/>
      <point x="381" y="223"/>
      <point x="326" y="183"/>
      <point x="243" y="183" type="curve" smooth="yes"/>
      <point x="202" y="183"/>
      <point x="151" y="191"/>
      <point x="95" y="211" type="curve"/>
      <point x="109" y="90" type="line"/>
      <point x="232" y="41"/>
      <point x="344" y="-46"/>
      <point x="462" y="-160" type="curve"/>
    </contour>
    <contour>
      <point x="287" y="-208" type="line"/>
      <point x="257" y="-149"/>
      <point x="162" y="-111"/>
      <point x="79" y="-76" type="curve"/>
      <point x="69" y="-113" type="line"/>
      <point x="135" y="-72"/>
      <point x="243" y="-38"/>
      <point x="321" y="-25" type="curve"/>
      <point x="240" y="55" type="line"/>
      <point x="134" y="28"/>
      <point x="48" y="-2"/>
      <point x="-10" y="-43" type="curve"/>
      <point x="-10" y="-82"/>
      <point x="-1" y="-118"/>
      <point x="25" y="-155" type="curve"/>
      <point x="114" y="-166"/>
      <point x="216" y="-189"/>
      <point x="261" y="-250" type="curve"/>
    </contour>
    <contour>
      <point x="298" y="-251"/>
      <point x="346" y="-249"/>
      <point x="379" y="-234" type="curve"/>
      <point x="368" y="-201"/>
      <point x="363" y="-160"/>
      <point x="363" y="-111" type="curve" smooth="yes"/>
      <point x="363" y="-78"/>
      <point x="369" y="-30"/>
      <point x="377" y="5" type="curve"/>
      <point x="293" y="19" type="line"/>
      <point x="273" y="-47"/>
      <point x="256" y="-132"/>
      <point x="256" y="-197" type="curve" smooth="yes"/>
      <point x="256" y="-221"/>
      <point x="258" y="-237"/>
      <point x="261" y="-250" type="curve"/>
    </contour>
    <contour>
      <point x="305" y="-232" type="move" name="blwm"/>
    </contour>
    <contour>
      <point x="188" y="-231" type="move" name="haln"/>
    </contour>
    <contour>
      <point x="331" y="690" type="move" name="reph"/>
    </contour>
    <contour>
      <point x="331" y="690" type="move" name="chandrabindu"/>
    </contour>
  </outline>
</glyph>
<glyph name="bn_cha.half" format="1">
  <advance width="532"/>
  <outline>
    <contour>
      <point x="489" y="57"/>
      <point x="512" y="75"/>
      <point x="531" y="92" type="curve"/>
      <point x="420" y="157"/>
      <point x="319" y="208"/>
      <point x="215" y="247" type="curve"/>
      <point x="265" y="204" type="line"/>
      <point x="392" y="204"/>
      <point x="489" y="248"/>
      <point x="489" y="337" type="curve" smooth="yes"/>
      <point x="489" y="404"/>
      <point x="432" y="460"/>
      <point x="367" y="494" type="curve"/>
      <point x="277" y="503"/>
      <point x="185" y="522"/>
      <point x="160" y="560" type="curve"/>
      <point x="148" y="520" type="line"/>
      <point x="163" y="487"/>
      <point x="209" y="461"/>
      <point x="276" y="453" type="curve"/>
      <point x="251" y="473" type="line"/>
      <point x="254" y="466"/>
      <point x="255" y="462"/>
      <point x="255" y="454" type="curve" smooth="yes"/>
      <point x="255" y="411"/>
      <point x="218" y="372"/>
      <point x="186" y="372" type="curve" smooth="yes"/>
      <point x="170" y="372"/>
      <point x="163" y="379"/>
      <point x="163" y="394" type="curve" smooth="yes"/>
      <point x="163" y="437"/>
      <point x="172" y="509"/>
      <point x="184" y="554" type="curve"/>
      <point x="71" y="567" type="line"/>
      <point x="61" y="517"/>
      <point x="54" y="448"/>
      <point x="54" y="411" type="curve" smooth="yes"/>
      <point x="54" y="355"/>
      <point x="121" y="322"/>
      <point x="185" y="322" type="curve" smooth="yes"/>
      <point x="292" y="322"/>
      <point x="372" y="390"/>
      <point x="372" y="466" type="curve"/>
      <point x="330" y="438" type="line"/>
      <point x="360" y="421"/>
      <point x="381" y="397"/>
      <point x="381" y="366" type="curve" smooth="yes"/>
      <point x="381" y="315"/>
      <point x="326" y="287"/>
      <point x="243" y="287" type="curve" smooth="yes"/>
      <point x="202" y="287"/>
      <point x="151" y="292"/>
      <point x="95" y="306" type="curve"/>
      <point x="114" y="207" type="line"/>
      <point x="234" y="173"/>
      <point x="350" y="120"/>
      <point x="462" y="42" type="curve"/>
    </contour>
    <contour>
      <point x="57" y="529"/>
      <point x="169" y="542"/>
      <point x="272" y="542" type="curve" smooth="yes"/>
      <point x="374" y="542"/>
      <point x="478" y="529"/>
      <point x="532" y="514" type="curve"/>
      <point x="535" y="528"/>
      <point x="540" y="550"/>
      <point x="540" y="573" type="curve" smooth="yes"/>
      <point x="540" y="589"/>
      <point x="538" y="607"/>
      <point x="533" y="618" type="curve"/>
      <point x="485" y="636"/>
      <point x="376" y="650"/>
      <point x="273" y="650" type="curve" smooth="yes"/>
      <point x="169" y="650"/>
      <point x="52" y="636"/>
      <point x="0" y="618" type="curve"/>
      <point x="-4" y="607"/>
      <point x="-7" y="589"/>
      <point x="-7" y="572" type="curve" smooth="yes"/>
      <point x="-7" y="550"/>
      <point x="-4" y="528"/>
      <point x="0" y="514" type="curve"/>
    </contour>
  </outline>
</glyph>
<glyph name="bn_d_bha" format="1">
  <advance width="630"/>
  <outline>
    <contour>
      <point x="542" y="31" type="curve"/>
      <point x="529" y="91"/>
      <point x="520" y="146"/>
      <point x="520" y="199" type="curve" smooth="yes"/>
      <point x="520" y="277"/>
      <point x="536" y="349"/>
      <point x="559" y="417" type="curve"/>
      <point x="527" y="457"/>
      <point x="494" y="482"/>
      <point x="448" y="499" type="curve"/>
      <point x="361" y="451"/>
      <point x="278" y="369"/>
      <point x="196" y="250" type="curve"/>
      <point x="268" y="265" type="line"/>
      <point x="282" y="342"/>
      <point x="287" y="434"/>
      <point x="287" y="511" type="curve" smooth="yes"/>
      <point x="287" y="529"/>
      <point x="286" y="547"/>
      <point x="285" y="563" type="curve"/>
      <point x="197" y="553" type="line"/>
      <point x="195" y="452"/>
      <point x="188" y="329"/>
      <point x="153" y="227" type="curve"/>
      <point x="180" y="209"/>
      <point x="236" y="193"/>
      <point x="277" y="188" type="curve"/>
      <point x="328" y="266"/>
      <point x="419" y="353"/>
      <point x="508" y="402" type="curve"/>
      <point x="465" y="407" type="line"/>
      <point x="438" y="338"/>
      <point x="421" y="250"/>
      <point x="421" y="161" type="curve" smooth="yes"/>
      <point x="421" y="110"/>
      <point x="430" y="58"/>
      <point x="441" y="8" type="curve"/>
      <point x="469" y="9"/>
      <point x="519" y="20"/>
    </contour>
    <contour>
      <point x="596" y="-67" type="curve" smooth="yes"/>
      <point x="596" y="-22"/>
      <point x="583" y="23"/>
      <point x="565" y="61" type="curve"/>
      <point x="543" y="80"/>
      <point x="512" y="100"/>
      <point x="489" y="112" type="curve"/>
      <point x="426" y="60"/>
      <point x="372" y="22"/>
      <point x="330" y="22" type="curve" smooth="yes"/>
      <point x="307" y="22"/>
      <point x="293" y="31"/>
      <point x="293" y="47" type="curve" smooth="yes"/>
      <point x="293" y="75"/>
      <point x="328" y="105"/>
      <point x="374" y="113" type="curve"/>
      <point x="360" y="139"/>
      <point x="327" y="163"/>
      <point x="297" y="167" type="curve"/>
      <point x="254" y="154"/>
      <point x="209" y="119"/>
      <point x="209" y="65" type="curve" smooth="yes"/>
      <point x="209" y="-6"/>
      <point x="283" y="-62"/>
      <point x="368" y="-62" type="curve" smooth="yes"/>
      <point x="433" y="-62"/>
      <point x="490" y="-26"/>
      <point x="541" y="29" type="curve"/>
      <point x="493" y="59" type="line"/>
      <point x="503" y="31"/>
      <point x="512" y="-4"/>
      <point x="512" y="-36" type="curve" smooth="yes"/>
      <point x="512" y="-112"/>
      <point x="469" y="-155"/>
      <point x="384" y="-155" type="curve" smooth="yes"/>
      <point x="259" y="-155"/>
      <point x="153" y="-31"/>
      <point x="106" y="166" type="curve"/>
      <point x="78" y="158"/>
      <point x="51" y="147"/>
      <point x="25" y="135" type="curve"/>
      <point x="54" y="-36"/>
      <point x="168" y="-260"/>
      <point x="380" y="-260" type="curve" smooth="yes"/>
      <point x="517" y="-260"/>
      <point x="596" y="-182"/>
    </contour>
    <contour>
      <point x="313" y="541" type="curve" smooth="yes"/>
      <point x="435" y="541"/>
      <point x="553" y="528"/>
      <point x="630" y="514" type="curve"/>
      <point x="636" y="528"/>
      <point x="639" y="550"/>
      <point x="639" y="572" type="curve" smooth="yes"/>
      <point x="639" y="590"/>
      <point x="637" y="608"/>
      <point x="630" y="618" type="curve"/>
      <point x="554" y="635"/>
      <point x="437" y="649"/>
      <point x="313" y="649" type="curve" smooth="yes"/>
      <point x="190" y="649"/>
      <point x="74" y="635"/>
      <point x="0" y="618" type="curve"/>
      <point x="-5" y="608"/>
      <point x="-8" y="591"/>
      <point x="-8" y="572" type="curve" smooth="yes"/>
      <point x="-8" y="550"/>
      <point x="-4" y="527"/>
      <point x="0" y="514" type="curve"/>
      <point x="76" y="528"/>
      <point x="191" y="541"/>
    </contour>
    <contour>
      <point x="329" y="690" type="move" name="reph"/>
    </contour>
    <contour>
      <point x="329" y="690" type="move" name="chandrabindu"/>
    </contour>
    <contour>
      <point x="387" y="-250" type="move" name="blwm"/>
    </contour>
    <contour>
      <point x="259" y="-250" type="move" name="haln"/>
    </contour>
  </outline>
</glyph>
<glyph name="bn_d_ma" format="1">
  <advance width="907"/>
  <outline>
    <contour>
      <point x="797" y="-204" type="curve"/>
      <point x="760" y="-73"/>
      <point x="728" y="113"/>
      <point x="728" y="291" type="curve" smooth="yes"/>
      <point x="728" y="401"/>
      <point x="732" y="468"/>
      <point x="739" y="551" type="curve"/>
      <point x="649" y="567" type="line"/>
      <point x="625" y="454"/>
      <point x="618" y="304"/>
      <point x="618" y="186" type="curve" smooth="yes"/>
      <point x="618" y="-45"/>
      <point x="654" y="-153"/>
      <point x="676" y="-236" type="curve"/>
      <point x="717" y="-236"/>
      <point x="765" y="-223"/>
    </contour>
    <contour>
      <point x="451" y="-14" type="curve"/>
      <point x="378" y="34" type="line"/>
      <point x="376" y="-11"/>
      <point x="346" y="-36"/>
      <point x="311" y="-36" type="curve" smooth="yes"/>
      <point x="284" y="-36"/>
      <point x="267" y="-21"/>
      <point x="267" y="0" type="curve" smooth="yes"/>
      <point x="267" y="23"/>
      <point x="284" y="39"/>
      <point x="308" y="39" type="curve" smooth="yes"/>
      <point x="337" y="39"/>
      <point x="385" y="17"/>
      <point x="407" y="-24" type="curve"/>
      <point x="410" y="55" type="line"/>
      <point x="387" y="87"/>
      <point x="350" y="104"/>
      <point x="311" y="104" type="curve" smooth="yes"/>
      <point x="246" y="104"/>
      <point x="199" y="55"/>
      <point x="199" y="-12" type="curve" smooth="yes"/>
      <point x="199" y="-78"/>
      <point x="249" y="-130"/>
      <point x="322" y="-130" type="curve" smooth="yes"/>
      <point x="395" y="-130"/>
      <point x="446" y="-83"/>
    </contour>
    <contour>
      <point x="702" y="-203" type="line"/>
      <point x="678" y="-91"/>
      <point x="483" y="33"/>
      <point x="406" y="67" type="curve"/>
      <point x="383" y="-12" type="line"/>
      <point x="500" y="-60"/>
      <point x="619" y="-120"/>
      <point x="678" y="-235" type="curve"/>
    </contour>
    <contour>
      <point x="457" y="552" type="curve" smooth="yes"/>
      <point x="646" y="552"/>
      <point x="810" y="532"/>
      <point x="907" y="514" type="curve"/>
      <point x="912" y="527"/>
      <point x="916" y="549"/>
      <point x="916" y="572" type="curve" smooth="yes"/>
      <point x="916" y="591"/>
      <point x="913" y="610"/>
      <point x="907" y="618" type="curve"/>
      <point x="815" y="639"/>
      <point x="648" y="660"/>
      <point x="457" y="660" type="curve" smooth="yes"/>
      <point x="263" y="660"/>
      <point x="98" y="640"/>
      <point x="0" y="618" type="curve"/>
      <point x="-5" y="610"/>
      <point x="-8" y="591"/>
      <point x="-8" y="572" type="curve" smooth="yes"/>
      <point x="-8" y="550"/>
      <point x="-4" y="528"/>
      <point x="0" y="514" type="curve"/>
      <point x="99" y="532"/>
      <point x="265" y="552"/>
    </contour>
    <contour>
      <point x="378" y="51" type="curve"/>
      <point x="458" y="27" type="line"/>
      <point x="457" y="119"/>
      <point x="477" y="304"/>
      <point x="527" y="409" type="curve"/>
      <point x="501" y="449"/>
      <point x="465" y="481"/>
      <point x="419" y="499" type="curve"/>
      <point x="337" y="452"/>
      <point x="253" y="380"/>
      <point x="176" y="278" type="curve"/>
      <point x="228" y="217" type="line"/>
      <point x="248" y="310"/>
      <point x="261" y="426"/>
      <point x="261" y="506" type="curve" smooth="yes"/>
      <point x="261" y="525"/>
      <point x="260" y="545"/>
      <point x="259" y="563" type="curve"/>
      <point x="171" y="552" type="line"/>
      <point x="168" y="442"/>
      <point x="147" y="315"/>
      <point x="106" y="203" type="curve"/>
      <point x="131" y="175"/>
      <point x="178" y="151"/>
      <point x="216" y="144" type="curve"/>
      <point x="272" y="234"/>
      <point x="375" y="335"/>
      <point x="476" y="392" type="curve"/>
      <point x="435" y="397" type="line"/>
      <point x="392" y="331"/>
      <point x="380" y="169"/>
    </contour>
    <contour>
      <point x="660" y="690" type="move" name="reph"/>
    </contour>
    <contour>
      <point x="660" y="690" type="move" name="chandrabindu"/>
    </contour>
    <contour>
      <point x="715" y="-208" type="move" name="blwm"/>
    </contour>
    <contour>
      <point x="540" y="-211" type="move" name="haln"/>
    </contour>
  </outline>
</glyph>
<glyph name="bn_gha.half" format="1">
  <advance width="523"/>
  <outline>
    <contour>
      <point x="374" y="178" type="line"/>
      <point x="330" y="255"/>
      <point x="237" y="307"/>
      <point x="141" y="335" type="curve"/>
      <point x="146" y="290" type="line"/>
      <point x="304" y="377" type="line"/>
      <point x="299" y="407"/>
      <point x="283" y="442"/>
      <point x="264" y="463" type="curve"/>
      <point x="232" y="441"/>
      <point x="205" y="434"/>
      <point x="185" y="434" type="curve" smooth="yes"/>
      <point x="159" y="434"/>
      <point x="136" y="446"/>
      <point x="136" y="467" type="curve" smooth="yes"/>
      <point x="136" y="493"/>
      <point x="163" y="522"/>
      <point x="247" y="542" type="curve"/>
      <point x="89" y="558" type="line"/>
      <point x="50" y="537"/>
      <point x="32" y="509"/>
      <point x="32" y="479" type="curve" smooth="yes"/>
      <point x="32" y="422"/>
      <point x="101" y="395"/>
      <point x="174" y="394" type="curve" smooth="yes"/>
      <point x="229" y="393"/>
      <point x="251" y="407"/>
      <point x="263" y="415" type="curve"/>
      <point x="175" y="422" type="line"/>
      <point x="56" y="354" type="line"/>
      <point x="55" y="325"/>
      <point x="72" y="293"/>
      <point x="110" y="268" type="curve"/>
      <point x="204" y="256"/>
      <point x="283" y="215"/>
      <point x="346" y="142" type="curve"/>
    </contour>
    <contour>
      <point x="469" y="155" type="curve"/>
      <point x="453" y="208"/>
      <point x="449" y="291"/>
      <point x="449" y="365" type="curve" smooth="yes"/>
      <point x="449" y="433"/>
      <point x="452" y="483"/>
      <point x="462" y="541" type="curve"/>
      <point x="364" y="556" type="line"/>
      <point x="345" y="451"/>
      <point x="337" y="374"/>
      <point x="337" y="264" type="curve" smooth="yes"/>
      <point x="337" y="208"/>
      <point x="339" y="172"/>
      <point x="346" y="142" type="curve"/>
      <point x="385" y="142"/>
      <point x="437" y="145"/>
    </contour>
    <contour>
      <point x="263" y="541" type="curve" smooth="yes"/>
      <point x="367" y="541"/>
      <point x="464" y="528"/>
      <point x="523" y="514" type="curve"/>
      <point x="527" y="528"/>
      <point x="531" y="551"/>
      <point x="531" y="573" type="curve" smooth="yes"/>
      <point x="531" y="590"/>
      <point x="529" y="607"/>
      <point x="523" y="618" type="curve"/>
      <point x="468" y="635"/>
      <point x="372" y="649"/>
      <point x="268" y="649" type="curve" smooth="yes"/>
      <point x="161" y="649"/>
      <point x="63" y="635"/>
      <point x="0" y="618" type="curve"/>
      <point x="-5" y="608"/>
      <point x="-8" y="591"/>
      <point x="-8" y="573" type="curve" smooth="yes"/>
      <point x="-8" y="552"/>
      <point x="-4" y="530"/>
      <point x="0" y="514" type="curve"/>
      <point x="64" y="528"/>
      <point x="159" y="541"/>
    </contour>
  </outline>
</glyph>
<glyph name="bn_h_la" format="1">
  <advance width="559"/>
  <outline>
    <contour>
      <point x="167" y="-170" type="curve"/>
      <point x="154" y="-173"/>
      <point x="140" y="-175"/>
      <point x="126" y="-175" type="curve" smooth="yes"/>
      <point x="92" y="-175"/>
      <point x="60" y="-160"/>
      <point x="60" y="-135" type="curve" smooth="yes"/>
      <point x="60" y="-113"/>
      <point x="75" y="-101"/>
      <point x="100" y="-101" type="curve" smooth="yes"/>
      <point x="140" y="-101"/>
      <point x="173" y="-124"/>
      <point x="199" y="-162" type="curve"/>
      <point x="228" y="-122" type="line"/>
      <point x="202" y="-53"/>
      <point x="154" y="-9"/>
      <point x="98" y="-9" type="curve" smooth="yes"/>
      <point x="40" y="-9"/>
      <point x="0" y="-58"/>
      <point x="0" y="-126" type="curve" smooth="yes"/>
      <point x="0" y="-206"/>
      <point x="60" y="-255"/>
      <point x="139" y="-258" type="curve"/>
      <point x="156" y="-236"/>
      <point x="167" y="-199"/>
    </contour>
    <contour>
      <point x="274" y="-161" type="curve"/>
      <point x="215" y="-69" type="line"/>
      <point x="161" y="-109" type="line"/>
      <point x="213" y="-181" type="line"/>
      <point x="240" y="-175"/>
      <point x="259" y="-168"/>
    </contour>
    <contour>
      <point x="259" y="-8" type="curve" smooth="yes"/>
      <point x="224" y="-8"/>
      <point x="197" y="-42"/>
      <point x="193" y="-96" type="curve"/>
      <point x="215" y="-146" type="line"/>
      <point x="268" y="-152" type="line"/>
      <point x="259" y="-137"/>
      <point x="254" y="-129"/>
      <point x="254" y="-118" type="curve" smooth="yes"/>
      <point x="254" y="-103"/>
      <point x="262" y="-92"/>
      <point x="276" y="-92" type="curve" smooth="yes"/>
      <point x="304" y="-92"/>
      <point x="340" y="-144"/>
      <point x="348" y="-255" type="curve"/>
      <point x="356" y="-147" type="line"/>
      <point x="350" y="-65"/>
      <point x="306" y="-8"/>
    </contour>
    <contour>
      <point x="465" y="-243" type="curve"/>
      <point x="448" y="-172"/>
      <point x="437" y="-90"/>
      <point x="441" y="-6" type="curve"/>
      <point x="345" y="32" type="line"/>
      <point x="336" y="-94"/>
      <point x="344" y="-194"/>
      <point x="347" y="-255" type="curve"/>
      <point x="391" y="-255"/>
      <point x="434" y="-252"/>
    </contour>
    <contour>
      <point x="571" y="-67" type="curve"/>
      <point x="465" y="26"/>
      <point x="366" y="98"/>
      <point x="266" y="150" type="curve"/>
      <point x="223" y="106" type="line"/>
      <point x="249" y="103"/>
      <point x="275" y="101"/>
      <point x="298" y="101" type="curve" smooth="yes"/>
      <point x="414" y="101"/>
      <point x="496" y="150"/>
      <point x="496" y="253" type="curve" smooth="yes"/>
      <point x="496" y="374"/>
      <point x="381" y="499"/>
      <point x="262" y="499" type="curve" smooth="yes"/>
      <point x="196" y="499"/>
      <point x="142" y="461"/>
      <point x="142" y="387" type="curve" smooth="yes"/>
      <point x="142" y="359"/>
      <point x="151" y="327"/>
      <point x="174" y="298" type="curve"/>
      <point x="210" y="297"/>
      <point x="256" y="310"/>
      <point x="284" y="327" type="curve"/>
      <point x="270" y="341"/>
      <point x="255" y="356"/>
      <point x="255" y="377" type="curve" smooth="yes"/>
      <point x="255" y="398"/>
      <point x="267" y="412"/>
      <point x="292" y="412" type="curve" smooth="yes"/>
      <point x="341" y="412"/>
      <point x="384" y="360"/>
      <point x="384" y="303" type="curve" smooth="yes"/>
      <point x="384" y="249"/>
      <point x="344" y="223"/>
      <point x="268" y="223" type="curve" smooth="yes"/>
      <point x="221" y="223"/>
      <point x="163" y="232"/>
      <point x="97" y="253" type="curve"/>
      <point x="117" y="115" type="line"/>
      <point x="250" y="73"/>
      <point x="377" y="-6"/>
      <point x="505" y="-138" type="curve"/>
      <point x="530" y="-117"/>
      <point x="553" y="-92"/>
    </contour>
    <contour>
      <point x="285" y="541" type="curve" smooth="yes"/>
      <point x="394" y="541"/>
      <point x="498" y="529"/>
      <point x="559" y="514" type="curve"/>
      <point x="562" y="528"/>
      <point x="565" y="550"/>
      <point x="565" y="572" type="curve" smooth="yes"/>
      <point x="565" y="589"/>
      <point x="563" y="607"/>
      <point x="559" y="618" type="curve"/>
      <point x="505" y="636"/>
      <point x="397" y="649"/>
      <point x="287" y="649" type="curve" smooth="yes"/>
      <point x="172" y="649"/>
      <point x="69" y="637"/>
      <point x="0" y="618" type="curve"/>
      <point x="-5" y="608"/>
      <point x="-8" y="591"/>
      <point x="-8" y="573" type="curve" smooth="yes"/>
      <point x="-8" y="552"/>
      <point x="-5" y="530"/>
      <point x="0" y="514" type="curve"/>
      <point x="71" y="530"/>
      <point x="172" y="541"/>
    </contour>
    <contour>
      <point x="391" y="-236" type="move" name="blwm"/>
    </contour>
    <contour>
      <point x="285" y="690" type="move" name="reph"/>
    </contour>
    <contour>
      <point x="228" y="-230" type="move" name="haln"/>
    </contour>
    <contour>
      <point x="285" y="690" type="move" name="chandrabindu"/>
    </contour>
  </outline>
</glyph>
<glyph name="bn_ha.half" format="1">
  <advance width="496"/>
  <outline>
    <contour>
      <point x="62" y="528"/>
      <point x="150" y="541"/>
      <point x="248" y="541" type="curve" smooth="yes"/>
      <point x="347" y="541"/>
      <point x="441" y="528"/>
      <point x="496" y="514" type="curve"/>
      <point x="500" y="528"/>
      <point x="503" y="550"/>
      <point x="503" y="572" type="curve" smooth="yes"/>
      <point x="503" y="589"/>
      <point x="501" y="607"/>
      <point x="496" y="618" type="curve"/>
      <point x="447" y="635"/>
      <point x="349" y="649"/>
      <point x="251" y="649" type="curve" smooth="yes"/>
      <point x="151" y="649"/>
      <point x="61" y="635"/>
      <point x="0" y="618" type="curve"/>
      <point x="-5" y="608"/>
      <point x="-8" y="591"/>
      <point x="-8" y="573" type="curve" smooth="yes"/>
      <point x="-8" y="552"/>
      <point x="-5" y="530"/>
      <point x="0" y="514" type="curve"/>
    </contour>
    <contour>
      <point x="468" y="74"/>
      <point x="491" y="92"/>
      <point x="509" y="110" type="curve"/>
      <point x="406" y="176"/>
      <point x="309" y="227"/>
      <point x="213" y="263" type="curve"/>
      <point x="161" y="224" type="line"/>
      <point x="187" y="221"/>
      <point x="213" y="219"/>
      <point x="236" y="219" type="curve" smooth="yes"/>
      <point x="352" y="219"/>
      <point x="434" y="258"/>
      <point x="434" y="336" type="curve" smooth="yes"/>
      <point x="434" y="424"/>
      <point x="319" y="515"/>
      <point x="199" y="515" type="curve" smooth="yes"/>
      <point x="133" y="515"/>
      <point x="80" y="487"/>
      <point x="80" y="434" type="curve" smooth="yes"/>
      <point x="80" y="413"/>
      <point x="89" y="390"/>
      <point x="112" y="369" type="curve"/>
      <point x="147" y="368"/>
      <point x="194" y="377"/>
      <point x="222" y="390" type="curve"/>
      <point x="207" y="400"/>
      <point x="193" y="411"/>
      <point x="193" y="427" type="curve" smooth="yes"/>
      <point x="193" y="441"/>
      <point x="204" y="451"/>
      <point x="229" y="451" type="curve" smooth="yes"/>
      <point x="278" y="451"/>
      <point x="322" y="414"/>
      <point x="322" y="372" type="curve" smooth="yes"/>
      <point x="322" y="333"/>
      <point x="282" y="314"/>
      <point x="206" y="314" type="curve" smooth="yes"/>
      <point x="159" y="314"/>
      <point x="100" y="321"/>
      <point x="35" y="336" type="curve"/>
      <point x="55" y="237" type="line"/>
      <point x="188" y="205"/>
      <point x="316" y="153"/>
      <point x="443" y="58" type="curve"/>
    </contour>
    <contour>
      <point x="135" y="-120" type="move" name="nukt"/>
    </contour>
  </outline>
</glyph>
<glyph name="bn_ha_rikaar" format="1">
  <advance width="657"/>
  <outline>
    <contour>
      <point x="570" y="58"/>
      <point x="610" y="64"/>
      <point x="636" y="74" type="curve"/>
      <point x="610" y="135"/>
      <point x="601" y="194"/>
      <point x="601" y="262" type="curve" smooth="yes"/>
      <point x="601" y="293"/>
      <point x="607" y="323"/>
      <point x="612" y="356" type="curve"/>
      <point x="549" y="441" type="line"/>
      <point x="494" y="424"/>
      <point x="440" y="407"/>
      <point x="384" y="384" type="curve"/>
      <point x="411" y="275" type="line"/>
      <point x="462" y="297"/>
      <point x="514" y="315"/>
      <point x="561" y="329" type="curve"/>
      <point x="523" y="363" type="line"/>
      <point x="517" y="318"/>
      <point x="510" y="274"/>
      <point x="510" y="233" type="curve" smooth="yes"/>
      <point x="510" y="171"/>
      <point x="515" y="114"/>
      <point x="530" y="58" type="curve"/>
    </contour>
    <contour>
      <point x="468" y="-117"/>
      <point x="490" y="-92"/>
      <point x="508" y="-67" type="curve"/>
      <point x="402" y="26"/>
      <point x="303" y="98"/>
      <point x="204" y="150" type="curve"/>
      <point x="161" y="106" type="line"/>
      <point x="187" y="103"/>
      <point x="213" y="101"/>
      <point x="236" y="101" type="curve" smooth="yes"/>
      <point x="352" y="101"/>
      <point x="434" y="150"/>
      <point x="434" y="253" type="curve" smooth="yes"/>
      <point x="434" y="374"/>
      <point x="319" y="499"/>
      <point x="199" y="499" type="curve" smooth="yes"/>
      <point x="133" y="499"/>
      <point x="80" y="461"/>
      <point x="80" y="387" type="curve" smooth="yes"/>
      <point x="80" y="359"/>
      <point x="89" y="327"/>
      <point x="112" y="298" type="curve"/>
      <point x="147" y="297"/>
      <point x="194" y="310"/>
      <point x="222" y="327" type="curve"/>
      <point x="207" y="341"/>
      <point x="193" y="356"/>
      <point x="193" y="377" type="curve" smooth="yes"/>
      <point x="193" y="398"/>
      <point x="204" y="412"/>
      <point x="230" y="412" type="curve" smooth="yes"/>
      <point x="278" y="412"/>
      <point x="322" y="360"/>
      <point x="322" y="303" type="curve" smooth="yes"/>
      <point x="322" y="249"/>
      <point x="282" y="223"/>
      <point x="206" y="223" type="curve" smooth="yes"/>
      <point x="159" y="223"/>
      <point x="100" y="232"/>
      <point x="35" y="253" type="curve"/>
      <point x="55" y="115" type="line"/>
      <point x="188" y="73"/>
      <point x="314" y="-6"/>
      <point x="443" y="-138" type="curve"/>
    </contour>
    <contour>
      <point x="85" y="533"/>
      <point x="207" y="541"/>
      <point x="341" y="541" type="curve" smooth="yes"/>
      <point x="467" y="541"/>
      <point x="587" y="532"/>
      <point x="657" y="514" type="curve"/>
      <point x="661" y="528"/>
      <point x="664" y="550"/>
      <point x="664" y="572" type="curve" smooth="yes"/>
      <point x="664" y="589"/>
      <point x="662" y="607"/>
      <point x="657" y="618" type="curve"/>
      <point x="594" y="640"/>
      <point x="469" y="649"/>
      <point x="344" y="649" type="curve" smooth="yes"/>
      <point x="207" y="649"/>
      <point x="82" y="641"/>
      <point x="0" y="618" type="curve"/>
      <point x="-5" y="608"/>
      <point x="-8" y="591"/>
      <point x="-8" y="573" type="curve" smooth="yes"/>
      <point x="-8" y="552"/>
      <point x="-5" y="530"/>
      <point x="0" y="514" type="curve"/>
    </contour>
    <contour>
      <point x="346" y="690" type="move" name="reph"/>
    </contour>
    <contour>
      <point x="346" y="690" type="move" name="chandrabindu"/>
    </contour>
  </outline>
</glyph>
<glyph name="bn_ha_ukaar" format="1">
  <advance width="496"/>
  <outline>
    <contour>
      <point x="248" y="541" type="curve" smooth="yes"/>
      <point x="347" y="541"/>
      <point x="441" y="528"/>
      <point x="496" y="514" type="curve"/>
      <point x="500" y="528"/>
      <point x="503" y="550"/>
      <point x="503" y="572" type="curve" smooth="yes"/>
      <point x="503" y="589"/>
      <point x="501" y="607"/>
      <point x="496" y="618" type="curve"/>
      <point x="447" y="635"/>
      <point x="349" y="649"/>
      <point x="251" y="649" type="curve" smooth="yes"/>
      <point x="151" y="649"/>
      <point x="61" y="635"/>
      <point x="0" y="618" type="curve"/>
      <point x="-5" y="608"/>
      <point x="-8" y="591"/>
      <point x="-8" y="573" type="curve" smooth="yes"/>
      <point x="-8" y="552"/>
      <point x="-5" y="530"/>
      <point x="0" y="514" type="curve"/>
      <point x="62" y="528"/>
      <point x="150" y="541"/>
    </contour>
    <contour>
      <point x="291" y="265" type="curve"/>
      <point x="311" y="308"/>
      <point x="332" y="369"/>
      <point x="359" y="395" type="curve"/>
      <point x="331" y="403" type="line"/>
      <point x="330" y="356"/>
      <point x="349" y="332"/>
      <point x="349" y="295" type="curve"/>
      <point x="349" y="255"/>
      <point x="324" y="217"/>
      <point x="255" y="179" type="curve" smooth="yes"/>
      <point x="166" y="130" type="line"/>
      <point x="170" y="85"/>
      <point x="185" y="45"/>
      <point x="211" y="5" type="curve"/>
      <point x="303" y="-13"/>
      <point x="368" y="-70"/>
      <point x="422" y="-178" type="curve"/>
      <point x="467" y="-129" type="line"/>
      <point x="433" y="-25"/>
      <point x="359" y="59"/>
      <point x="258" y="99" type="curve"/>
      <point x="258" y="39" type="line"/>
      <point x="322" y="80" type="line" smooth="yes"/>
      <point x="397" y="128"/>
      <point x="435" y="173"/>
      <point x="435" y="244" type="curve"/>
      <point x="435" y="332"/>
      <point x="378" y="358"/>
      <point x="378" y="459" type="curve"/>
      <point x="343" y="474"/>
      <point x="318" y="478"/>
      <point x="285" y="478" type="curve"/>
      <point x="254" y="445"/>
      <point x="239" y="401"/>
      <point x="213" y="349" type="curve"/>
      <point x="249" y="300" type="line"/>
      <point x="235" y="405"/>
      <point x="198" y="479"/>
      <point x="134" y="479" type="curve" smooth="yes"/>
      <point x="65" y="479"/>
      <point x="19" y="411"/>
      <point x="19" y="330" type="curve" smooth="yes"/>
      <point x="19" y="245"/>
      <point x="66" y="181"/>
      <point x="127" y="181" type="curve" smooth="yes"/>
      <point x="175" y="181"/>
      <point x="209" y="222"/>
      <point x="209" y="271" type="curve" smooth="yes"/>
      <point x="209" y="282"/>
      <point x="207" y="289"/>
      <point x="205" y="296" type="curve"/>
      <point x="187" y="315"/>
      <point x="159" y="331"/>
      <point x="133" y="337" type="curve"/>
      <point x="138" y="325"/>
      <point x="141" y="312"/>
      <point x="141" y="301" type="curve" smooth="yes"/>
      <point x="141" y="278"/>
      <point x="133" y="255"/>
      <point x="112" y="255" type="curve" smooth="yes"/>
      <point x="94" y="255"/>
      <point x="79" y="271"/>
      <point x="79" y="301" type="curve" smooth="yes"/>
      <point x="79" y="339"/>
      <point x="105" y="370"/>
      <point x="145" y="370" type="curve" smooth="yes"/>
      <point x="185" y="370"/>
      <point x="220" y="338"/>
      <point x="232" y="285" type="curve"/>
      <point x="241" y="277"/>
      <point x="269" y="270"/>
    </contour>
    <contour>
      <point x="251" y="690" type="move" name="reph"/>
    </contour>
    <contour>
      <point x="251" y="690" type="move" name="chandrabindu"/>
    </contour>
  </outline>
</glyph>
<glyph name="bn_iikaar.fl" format="1">
  <advance width="265"/>
  <outline>
    <contour>
      <point x="199" y="777"/>
      <point x="22" y="964"/>
      <point x="-224" y="964" type="curve" smooth="yes"/>
      <point x="-334" y="964"/>
      <point x="-409" y="913"/>
      <point x="-409" y="829" type="curve" smooth="yes"/>
      <point x="-409" y="794"/>
      <point x="-394" y="765"/>
      <point x="-367" y="744" type="curve"/>
      <point x="-315" y="770" type="line"/>
      <point x="-330" y="778"/>
      <point x="-341" y="790"/>
      <point x="-341" y="806" type="curve" smooth="yes"/>
      <point x="-341" y="845"/>
      <point x="-294" y="864"/>
      <point x="-216" y="864" type="curve" smooth="yes"/>
      <point x="-11" y="864"/>
      <point x="88" y="773"/>
      <point x="88" y="550" type="curve"/>
      <point x="198" y="494" type="line"/>
    </contour>
    <contour>
      <point x="185" y="112"/>
      <point x="201" y="308"/>
      <point x="199" y="495" type="curve"/>
      <point x="117" y="484" type="line"/>
      <point x="88" y="480" type="line"/>
      <point x="88" y="260"/>
      <point x="67" y="100"/>
      <point x="32" y="-42" type="curve"/>
      <point x="63" y="-54"/>
      <point x="121" y="-64"/>
      <point x="164" y="-64" type="curve"/>
    </contour>
    <contour>
      <point x="161" y="521" type="line"/>
      <point x="135" y="565"/>
      <point x="66" y="602"/>
      <point x="0" y="618" type="curve"/>
      <point x="-10" y="602"/>
      <point x="-10" y="542"/>
      <point x="0" y="514" type="curve"/>
      <point x="56" y="504"/>
      <point x="87" y="467"/>
      <point x="87" y="398" type="curve"/>
    </contour>
    <contour>
      <point x="196" y="483"/>
      <point x="223" y="505"/>
      <point x="265" y="514" type="curve"/>
      <point x="276" y="549"/>
      <point x="277" y="601"/>
      <point x="265" y="618" type="curve"/>
      <point x="184" y="602"/>
      <point x="119" y="560"/>
      <point x="94" y="502" type="curve"/>
      <point x="183" y="450" type="line"/>
    </contour>
  </outline>
</glyph>
<glyph name="bn_iikaar.wi1" format="1">
  <advance width="265"/>
  <outline>
    <contour>
      <point x="199" y="760"/>
      <point x="12" y="939"/>
      <point x="-302" y="939" type="curve" smooth="yes"/>
      <point x="-468" y="939"/>
      <point x="-554" y="885"/>
      <point x="-554" y="799" type="curve" smooth="yes"/>
      <point x="-554" y="725"/>
      <point x="-495" y="681"/>
      <point x="-400" y="681" type="curve" smooth="yes"/>
      <point x="-298" y="681"/>
      <point x="-237" y="711"/>
      <point x="-189" y="711" type="curve" smooth="yes"/>
      <point x="-164" y="711"/>
      <point x="-145" y="698"/>
      <point x="-130" y="679" type="curve"/>
      <point x="-114" y="698"/>
      <point x="-101" y="729"/>
      <point x="-95" y="754" type="curve"/>
      <point x="-116" y="770"/>
      <point x="-145" y="784"/>
      <point x="-181" y="784" type="curve" smooth="yes"/>
      <point x="-245" y="784"/>
      <point x="-289" y="756"/>
      <point x="-396" y="756" type="curve" smooth="yes"/>
      <point x="-444" y="756"/>
      <point x="-478" y="764"/>
      <point x="-478" y="788" type="curve" smooth="yes"/>
      <point x="-478" y="815"/>
      <point x="-425" y="834"/>
      <point x="-305" y="834" type="curve" smooth="yes"/>
      <point x="-20" y="834"/>
      <point x="88" y="756"/>
      <point x="88" y="550" type="curve"/>
      <point x="198" y="494" type="line"/>
    </contour>
    <contour>
      <point x="185" y="112"/>
      <point x="201" y="308"/>
      <point x="199" y="495" type="curve"/>
      <point x="117" y="484" type="line"/>
      <point x="88" y="480" type="line"/>
      <point x="88" y="260"/>
      <point x="67" y="100"/>
      <point x="32" y="-42" type="curve"/>
      <point x="63" y="-54"/>
      <point x="121" y="-64"/>
      <point x="164" y="-64" type="curve"/>
    </contour>
    <contour>
      <point x="161" y="521" type="line"/>
      <point x="135" y="565"/>
      <point x="66" y="602"/>
      <point x="0" y="618" type="curve"/>
      <point x="-10" y="602"/>
      <point x="-10" y="542"/>
      <point x="0" y="514" type="curve"/>
      <point x="56" y="504"/>
      <point x="87" y="467"/>
      <point x="87" y="398" type="curve"/>
    </contour>
    <contour>
      <point x="196" y="483"/>
      <point x="223" y="505"/>
      <point x="265" y="514" type="curve"/>
      <point x="276" y="549"/>
      <point x="277" y="601"/>
      <point x="265" y="618" type="curve"/>
      <point x="184" y="602"/>
      <point x="119" y="560"/>
      <point x="94" y="502" type="curve"/>
      <point x="183" y="450" type="line"/>
    </contour>
  </outline>
</glyph>
<glyph name="bn_ikaar.b" format="1">
  <advance width="265"/>
  <outline>
    <contour>
      <point x="143" y="-62"/>
      <point x="204" y="-55"/>
      <point x="233" y="-46" type="curve"/>
      <point x="203" y="114"/>
      <point x="189" y="275"/>
      <point x="196" y="499" type="curve"/>
      <point x="171" y="558" type="line"/>
      <point x="156" y="599"/>
      <point x="140" y="639"/>
      <point x="140" y="688" type="curve" smooth="yes"/>
      <point x="140" y="769"/>
      <point x="182" y="801"/>
      <point x="283" y="801" type="curve" smooth="yes"/>
      <point x="396" y="801"/>
      <point x="515" y="766"/>
      <point x="674" y="691" type="curve"/>
      <point x="691" y="716"/>
      <point x="704" y="740"/>
      <point x="711" y="769" type="curve"/>
      <point x="571" y="836"/>
      <point x="380" y="901"/>
      <point x="237" y="901" type="curve" smooth="yes"/>
      <point x="98" y="901"/>
      <point x="30" y="834"/>
      <point x="30" y="743" type="curve" smooth="yes"/>
      <point x="30" y="689"/>
      <point x="54" y="639"/>
      <point x="93" y="585" type="curve"/>
      <point x="83" y="485" type="line"/>
      <point x="78" y="323"/>
      <point x="84" y="90"/>
      <point x="99" y="-62" type="curve"/>
    </contour>
    <contour>
      <point x="117" y="526" type="line"/>
      <point x="117" y="583"/>
      <point x="66" y="622"/>
      <point x="30" y="622" type="curve" smooth="yes"/>
      <point x="19" y="622"/>
      <point x="7" y="620"/>
      <point x="0" y="618" type="curve"/>
      <point x="-3" y="605"/>
      <point x="-7" y="589"/>
      <point x="-7" y="568" type="curve" smooth="yes"/>
      <point x="-7" y="550"/>
      <point x="-4" y="528"/>
      <point x="0" y="514" type="curve"/>
      <point x="7" y="516"/>
      <point x="13" y="518"/>
      <point x="24" y="518" type="curve" smooth="yes"/>
      <point x="65" y="518"/>
      <point x="82" y="483"/>
      <point x="82" y="425" type="curve"/>
    </contour>
    <contour>
      <point x="192" y="479"/>
      <point x="218" y="504"/>
      <point x="265" y="514" type="curve"/>
      <point x="274" y="544"/>
      <point x="278" y="598"/>
      <point x="265" y="618" type="curve"/>
      <point x="190" y="603"/>
      <point x="119" y="566"/>
      <point x="91" y="502" type="curve"/>
      <point x="180" y="450" type="line"/>
    </contour>
  </outline>
</glyph>
